<svg viewBox="0 200 852 110" xmlns="http://www.w3.org/2000/svg" style="fill-rule:evenodd;clip-rule:evenodd;stroke-linejoin:round;stroke-miterlimit:2">
  <path d="M248.958 303.512v-6.915h5.175q1.74 0 3.198-.658 1.457-.67 2.321-2.54.877-1.864.878-5.316v-64.521q0-3.446-.941-5.174c-.619-1.161-1.419-1.937-2.399-2.337q-1.459-.595-3.324-.596h-4.908v-6.93h41.096c9.22 0 17.091 1.733 23.614 5.19 6.523 3.461 11.532 8.585 15.037 15.366q5.251 10.179 5.252 25.338 0 14.507-4.923 25.621c-3.285 7.4-8.185 13.167-14.708 17.294q-9.77 6.179-24.397 6.178zm38.164-8.122q8.513 0 14.175-4.908 5.658-4.923 8.576-14.096 2.931-9.184 2.933-21.967c0-8.506-.98-15.554-2.933-21.136q-2.918-8.387-8.576-12.575-5.662-4.2-14.033-4.202h-6.915v78.884zm51.49 8.122v-6.915h1.458c1.505 0 2.83-.266 3.983-.799 1.16-.534 2.203-1.482 3.136-2.854q1.393-2.068 2.728-6.052l27-78.367h17.169l26.201 79.292q1.063 3.453 2.461 5.393 1.392 1.93 3.121 2.666 1.74.722 3.857.721h2.007v6.915h-41.237v-6.915h4.656a6.6 6.6 0 0 0 3.842-1.191q1.74-1.205 1.74-3.732-.002-1.064-.204-2.258a14.5 14.5 0 0 0-.533-2.258 26 26 0 0 0-.595-1.74l-4.25-13.297H365.22l-3.591 11.431q-.142 1.069-.548 2.462a30 30 0 0 0-.659 2.869c-.18.972-.266 1.815-.266 2.524q0 2.53 1.599 3.857c1.066.89 2.438 1.333 4.124 1.333h5.064v6.915zm29.258-39.246h24.883l-6.789-23.143a961 961 0 0 1-1.866-6.523 340 340 0 0 1-1.787-6.648q-.865-3.322-1.537-6.256a112 112 0 0 1-1.599 6.005q-.927 3.188-1.866 6.444a100 100 0 0 1-1.976 6.178zm113.881 40.579q-15.429 0-25.62-6.115-10.179-6.128-15.225-17.107-5.05-10.971-5.049-25.73-.001-14.377 5.253-25.338 5.25-10.973 15.617-17.154 10.376-6.192 25.557-6.193 10.238 0 17.154 2.07 6.915 2.057 10.443 5.519 3.527 3.452 3.527 7.699c0 3.104-1.356 5.746-4.061 7.918q-4.062 3.262-12.042 3.261-.001-5.314-1.662-9.376-1.663-4.059-5.048-6.382c-2.258-1.556-5.167-2.336-8.718-2.336q-8.907 0-14.363 4.657-5.457 4.656-7.981 13.641-2.526 8.973-2.524 22.014 0 12.905 2.587 21.889 2.6 8.97 8.451 13.625 5.846 4.657 15.429 4.657c1.505 0 3.011-.086 4.516-.266a34 34 0 0 0 4.39-.8v-19.819q-.001-3.587-.925-5.645-.927-2.07-2.854-2.869c-1.285-.533-2.908-.8-4.86-.8h-1.725v-6.914h38.838v6.914h-1.458q-2.54.002-4.139.863-1.587.865-2.321 2.994c-.494 1.423-.737 3.419-.737 5.99v22.077q-7.185 3.47-14.629 5.268-7.448 1.788-15.821 1.788m46.427-1.333v-6.915h5.049q1.865.002 3.324-.596 1.458-.608 2.321-2.336.877-1.724.878-4.923v-64.773q0-3.73-.941-5.519-.928-1.799-2.32-2.399-1.399-.595-3.403-.596h-4.908v-6.93h69.038l.533 24.35h-8.781l-.674-6.115q-.13-3.322-1.129-5.582-.988-2.27-2.728-3.465-1.73-1.206-4.516-1.207h-20.352v33.397h29.399v7.856h-29.399v37.772h24.068q2.804.001 4.532-1.333 1.724-1.33 2.712-3.653 1-2.335 1.411-5.253l.925-6.13h8.655l-.799 24.35zm81.146 0v-6.915h4.516q2.13.002 3.653-.596 1.533-.61 2.462-2.461.94-1.865.941-5.598v-64.38q0-3.587-.941-5.316-.929-1.74-2.462-2.257c-1.015-.353-2.144-.534-3.387-.534h-4.782v-6.93h28.6l42.82 67.454v-52.417q0-3.446-.925-5.253c-.619-1.199-1.419-1.976-2.399-2.32-.972-.353-2.081-.534-3.324-.534h-4.782v-6.93h32.316v6.93h-4.783q-1.868.001-3.402.596-1.524.599-2.383 2.462-.864 1.868-.863 5.582v79.417h-12.512l-47.478-74.227v58.657q-.002 3.733.784 5.598c.533 1.234 1.309 2.054 2.336 2.461q1.535.598 3.528.596h4.924v6.915zm97.774 0v-6.915h5.049q1.864.002 3.324-.596 1.457-.608 2.32-2.336.877-1.724.878-4.923v-64.773q0-3.73-.941-5.519-.928-1.799-2.32-2.399-1.399-.595-3.403-.596h-4.907v-6.93h69.037l.533 24.35h-8.781l-.674-6.115q-.129-3.322-1.129-5.582-.988-2.27-2.728-3.465-1.728-1.206-4.516-1.207h-20.352v33.397h29.399v7.856h-29.399v37.772h24.068q2.804.001 4.532-1.333 1.724-1.33 2.712-3.653 1-2.335 1.411-5.253l.926-6.13h8.655l-.8 24.35z" style="fill:#222;fill-rule:nonzero"/>
  <path d="M71.322 303.145q-7.574.002-13.359-3.606-5.787-3.623-9.063-10.913-3.263-7.291-3.261-18.063c0-7.181 1.136-13.206 3.418-18.079q3.415-7.32 9.423-10.944 6.003-3.622 13.924-3.622c4.178 0 7.937.792 11.273 2.367q5.016 2.369 8.608 7.778l1.208-.236v-33.946h9.282v88.072h-9.282v-9.172l-1.208-.22q-3.074 4.658-8.341 7.62-5.27 2.964-12.622 2.964m2.916-8.31c5.841 0 10.509-1.999 14.002-6.006q5.251-6.02 5.253-18.266-.002-12.306-5.253-18.314-5.24-6.004-14.002-6.005-9.066.001-13.97 5.864-4.893 5.867-4.892 18.455 0 24.272 18.862 24.272" style="fill:#1c1018;fill-rule:nonzero"/>
  <path d="M149.829 303.145q-8.89.002-15.475-3.748-6.573-3.76-10.129-11.085-3.562-7.319-3.56-17.749-.002-10.426 3.56-17.765 3.555-7.352 10.129-11.117 6.585-3.763 15.475-3.763 8.889 0 15.46 3.763 6.585 3.765 10.145 11.117 3.558 7.339 3.559 17.765 0 10.43-3.559 17.749-3.56 7.325-10.145 11.085-6.571 3.75-15.46 3.748m0-8.31q9.39 0 14.379-5.927 4.986-5.926 4.986-18.345 0-12.477-4.986-18.392-4.988-5.928-14.379-5.927-9.408 0-14.425 5.958-5.003 5.944-5.002 18.361-.001 12.418 5.002 18.345 5.017 5.927 14.425 5.927" style="fill:#677b4c;fill-rule:nonzero"/>
  <path d="m228.38 291.981 2.964 6.664q-2.212 2.228-5.833 3.355-3.623 1.143-7.84 1.145c-12.003 0-18-6.072-18-18.22v-38.227h-10.929v-7.636h10.929v-13.28l9.282-1.537v14.817h20.227v7.636h-20.227v37.318q0 10.818 9.408 10.819 5.125.002 8.827-2.854z" style="fill:#1c1018;fill-rule:nonzero"/>
  <clipPath id="a">
    <path d="M150.291 245.29c-13.112 0-23.739 12.352-23.739 27.588 0 15.241 10.627 27.592 23.739 27.592s23.739-12.351 23.739-27.592c0-15.236-10.627-27.588-23.739-27.588"/>
  </clipPath>
  <g clip-path="url(#a)">
    <path style="fill:#677b4c;fill-rule:nonzero" d="M126.552 245.29h47.478v55.271h-47.478z"/>
  </g>
</svg>
