<?xml version="1.0" encoding="UTF-8"?>
<svg id="Desktop" xmlns="http://www.w3.org/2000/svg" viewBox="0 0 1022 1025.06">
  <defs>
    <style>
      .cls-1 {
        fill: #44403c;
      }

      .cls-1, .cls-2, .cls-3, .cls-4 {
        stroke-width: 0px;
      }

      .cls-2 {
        fill: #2b2422;
      }

      .cls-3 {
        fill: #78716c;
      }

      .cls-4 {
        fill: #fab759;
      }
    </style>
  </defs>
  <g>
    <path class="cls-2" d="m1024.36,240.9c.06,12.05.17,24.09.17,36.14.02,170.17.08,340.35-.15,510.52,0,7.33.66,14.65.18,21.97-.92,14.09.34,28.17.06,42.26-.28,14.22-.06,28.44-.06,42.67s0,28.78,0,43.17c0,14.22,0,28.45,0,42.67,0,14.39,0,28.78,0,43.17q0,6.85-6.63,6.86c-191.71,0-383.41,0-575.11,0-21.01,0-42.03,0-63.04,0-127.4,0-254.81,0-382.21,0v-317.32c1.39.16,2.61-.34,3.85-.9,28.28-12.99,56.62-25.85,84.83-38.98,21.73-10.12,43.4-20.35,65.25-30.23,34.23-15.47,68.14-31.63,102.21-47.45,40.14-18.63,80.45-36.89,120.41-55.9,25.48-12.12,51.24-23.63,76.49-36.28,19.21-9.63,39.28-17.51,58.64-26.92,17.71-8.61,35.7-16.64,53.55-24.96,20.73-9.66,41.4-19.44,62.18-29.01,31.22-14.38,62.54-28.56,93.76-42.96,17.9-8.26,35.62-16.9,53.51-25.17,32.13-14.85,64.33-29.57,96.52-44.3,14.27-6.53,28.57-13.01,42.91-19.39,25.47-11.33,50.97-22.58,76.47-33.83,12.06-5.32,24.16-10.55,36.24-15.81Z"/>
    <path class="cls-1" d="m1024.36,240.9c-12.08,5.27-24.18,10.5-36.24,15.81-25.5,11.25-51,22.5-76.47,33.83-14.34,6.38-28.64,12.86-42.91,19.39-32.19,14.73-64.38,29.45-96.52,44.3-17.89,8.27-35.61,16.91-53.51,25.17-31.21,14.4-62.53,28.58-93.76,42.96-20.77,9.57-41.45,19.35-62.18,29.01-17.85,8.32-35.84,16.35-53.55,24.96-19.36,9.41-39.43,17.3-58.64,26.92-25.25,12.65-51.01,24.16-76.49,36.28-39.96,19.01-80.27,37.27-120.41,55.9-34.07,15.81-67.98,31.98-102.21,47.45-21.85,9.87-43.51,20.11-65.25,30.23-28.21,13.13-56.55,25.99-84.83,38.98-1.24.57-2.46,1.06-3.85.9v-60.25c4.93-3.71,8.71-8.56,13-12.92,9.12-9.26,17.07-19.64,27.14-28,3.69-3.06,7.64-6.19,10.22-10.11,6.67-10.17,12.65-20.8,18.88-31.26.79-1.33,1.77-2.3,3.19-3.02,6.39-3.24,12.97-6.07,19.7-8.49,12.24-4.4,22.73-11.36,30.06-22.12,8.94-13.1,16.82-26.87,23.62-41.24.62-1.31.4-2.48.21-3.84-1.08-7.77-3.35-15.26-5.07-22.88-3.37-14.96-7.87-29.61-12.64-44.18-.71-2.17-1.24-3.98.61-5.98,5.66-6.12,11.08-12.46,16.72-18.6,9.38-10.23,17.52-21.4,25.5-32.71,1.3-1.84,1.8-3.52-.28-5.2-6.72-5.41-6.7-13.25-7.13-20.78-.14-2.43-1.58-4.69-.47-7.33,3.48-8.31,6.71-16.72,10.07-25.08,3.85-9.57,8.4-18.87,11.44-28.76,3.03-.03,6.13,1.5,7.8,3.02,13.98,12.67,25.78,22.52,40.4,34.45,9.57,7.81,19.34,15.36,29.02,23.03,1.48,1.18,3.16,1.86,5.06,1.94,6.59,3.76,11.31,9.74,17.07,14.51,21.72,17.97,45.85,31.44,72.44,40.71,19.36,6.75,38.54,14.03,57.94,20.65,13.24,4.52,26.76,8.22,40.08,12.5,2.58.83,3.84.24,5.36-1.78,3-3.99,6.22-7.83,9.52-11.58,11.14-12.64,22.3-25.26,33.58-37.77,4.9-5.44,8.39-11.48,10.22-18.63,2.72-10.65,6.43-21.09,8.6-31.84,2.9-14.35,10.72-24.31,23.55-30.88,9.81-5.02,19.57-10.16,29.16-15.6,5.15-2.92,10.98-5.37,13.49-11.44,7.69-18.64,18.35-35.59,29.47-52.28,1.13-1.69,2.44-3.47,1.8-5.54-1.81-5.85-2.56-12.09-6.73-17.07-6.96-8.32-13.39-17.07-19.13-26.27-4.36-6.99-9.51-12.91-17.68-15.34-2.89-.86-2.74-2.29-1.52-4.41,3.73-6.52,7.27-13.15,11.12-19.59,8.27-13.81,18.15-26.34,30.14-37.13,2.08-1.87,2.66-3.63,1.95-6.5-1.97-7.97-4.79-15.62-7.9-23.17-.65-1.57-.76-2.72-.25-4.19,1.7-4.88,3.49-9.73,4.98-14.67,3.69-12.27,7.63-24.49,9.11-37.3,2.23-.31,3.88.32,5.23,1.55,4.44,4.03,7.77,6.39,12.15,10.48,11.21,10.45,22.43,20.88,33.61,31.36,3.88,3.63,8.58,6.01,13.53,7.27,6.02,1.54,9.63,5.74,13.29,9.99,13.06,15.18,27.31,29.17,42.08,42.67.7.64,1.73.92,2.61,1.36.47.47.85,1.1,1.41,1.38,27.86,13.77,57.1,24.19,85.94,35.61,19.82,7.85,41.03,11.8,59.99,21.92.81.43,1.76,1.36,2.7.47.89-.84.19-1.86-.15-2.78-3.07-8.31-5.04-16.94-6.99-25.54-.74-3.25-1.93-5.92-4.04-8.35-4.37-5.04-8.67-10.13-13.07-15.14-1.69-1.92-2.23-3.74-1.38-6.35,1.45-4.42,2.24-9.06,3.65-13.5.97-3.08-.23-4.72-2.72-6.09-5.41-2.98-10.68-6.21-16.19-8.98-2.79-1.41-2.58-2.82-1.24-5.03,8.23-13.53,15.33-27.75,25.05-40.37,1.49-1.94,3.1-3.93,3.56-6.54,1.99-11.12,4.04-22.24,6.06-33.35,4.01,1.99,6.51,5.63,8.9,9.06,9.84,14.13,21.52,26.25,36.33,35.21,4.97,3.01,8.01,8.03,11.71,12.28,8.25,9.48,18.17,16.78,29.05,22.72,5.96,3.25,8.1,9.2,11.57,14.11,12.61,17.86,25.68,35.36,39.01,52.68,1.17,1.53,1.97,2.95,1.97,4.94-.1,29.94-.15,59.88-.22,89.81Z"/>
    <path class="cls-2" d="m182.33,280.24c-3.04,9.9-7.59,19.19-11.44,28.76-3.36,8.36-6.59,16.77-10.07,25.08-1.11,2.64.34,4.9.47,7.33.42,7.53.41,15.37,7.13,20.78,2.08,1.68,1.58,3.36.28,5.2-7.98,11.31-16.12,22.49-25.5,32.71-5.63,6.14-11.06,12.48-16.72,18.6-1.84,2-1.32,3.82-.61,5.98,4.77,14.57,9.27,29.22,12.64,44.18,1.72,7.62,3.99,15.11,5.07,22.88.19,1.36.42,2.53-.21,3.84-6.8,14.36-14.68,28.14-23.62,41.24-7.34,10.75-17.82,17.72-30.06,22.12-6.73,2.42-13.3,5.25-19.7,8.49-1.43.72-2.4,1.69-3.19,3.02-6.23,10.46-12.21,21.08-18.88,31.26-2.57,3.92-6.53,7.05-10.22,10.11-10.07,8.36-18.03,18.74-27.14,28-4.29,4.36-8.07,9.21-13,12.92v-232.97c2.58.43,3.96-1.41,5.45-2.96,16.86-17.38,35.85-32.37,53.89-48.42,10.85-9.65,23.41-15.16,36.12-20.84,7.77-3.47,14.17-8.61,20.45-14.08,10.54-9.19,20.64-18.95,31.71-27.45,10.92-8.39,21.75-17,33.6-24.13,1.12-.68,2.1-1.56,3.53-1.66Z"/>
    <path class="cls-2" d="m620.98,8.06c-1.48,12.81-5.42,25.03-9.11,37.3-1.49,4.94-3.28,9.79-4.98,14.67-.51,1.47-.4,2.62.25,4.19,3.12,7.54,5.94,15.2,7.9,23.17.71,2.88.13,4.64-1.95,6.5-11.99,10.79-21.87,23.32-30.14,37.13-3.86,6.44-7.39,13.07-11.12,19.59-1.22,2.13-1.37,3.55,1.52,4.41,8.17,2.44,13.32,8.35,17.68,15.34,5.74,9.2,12.17,17.95,19.13,26.27,4.16,4.98,4.91,11.22,6.73,17.07.64,2.08-.67,3.85-1.8,5.54-11.12,16.7-21.78,33.64-29.47,52.28-2.5,6.07-8.33,8.52-13.49,11.44-9.59,5.43-19.34,10.58-29.16,15.6-12.83,6.56-20.65,16.52-23.55,30.88-2.17,10.75-5.88,21.19-8.6,31.84-1.83,7.15-5.32,13.19-10.22,18.63-11.28,12.52-22.44,25.14-33.58,37.77-3.3,3.75-6.52,7.59-9.52,11.58-1.52,2.02-2.79,2.6-5.36,1.78-13.32-4.28-26.84-7.98-40.08-12.5-19.4-6.62-38.58-13.9-57.94-20.65-26.58-9.27-50.71-22.75-72.44-40.71-5.76-4.76-10.48-10.74-17.07-14.51,3.45-4.26,6.24-8.15,9.96-11.51,12.98-11.76,25.61-23.87,38.05-36.19,19.3-19.11,38.68-38.16,58.12-57.13,6.81-6.64,14.69-12.08,22.59-17.23,13.09-8.53,23.46-19.6,32.39-32.1,6.76-9.46,14.98-17.83,20.81-27.97.27-.48,1.11-.63,1.68-.93,1.27,21.28-5.55,40.93-12.38,60.9,1.52-.49,1.98-1.63,2.75-2.48,9.21-10.03,17.04-21.34,27.84-29.9,1.88-1.49,2.78-3.39,3.16-5.94.73-4.91,2.31-9.69,3.27-14.58,1.36-6.86,5.13-13.04,5.58-20.14,10.27-8.35,18.11-19.11,27.79-28.02,6.5-5.98,10.57-13.68,15.71-20.61,4.36-5.87,8.6-11.83,12.86-17.77.73-1.03,1.98-2.21,2.55-2.73,1.33,7.66,1.84,16.55,5.93,23.56.66,1.14.42,2.94.25,4.4-1.77,15.24-3.61,30.46-5.44,45.69,9.44-26.77,14.76-54.47,19.56-82.28,1.96-4.12,6.21-5.91,9.18-9,6.11-6.37,11.81-13.17,18.3-19.13,9.95-9.13,18.95-19.16,28.51-28.65,2.12-2.11,4.28-4.19,7.34-4.9Z"/>
    <path class="cls-2" d="m886.05.09c-2.03,11.12-4.07,22.23-6.06,33.35-.47,2.6-2.07,4.6-3.56,6.54-9.71,12.62-16.82,26.84-25.05,40.37-1.34,2.21-1.55,3.62,1.24,5.03,5.51,2.78,10.78,6,16.19,8.98,2.49,1.37,3.7,3.01,2.72,6.09-1.4,4.44-2.19,9.08-3.65,13.5-.86,2.6-.31,4.43,1.38,6.35,4.41,5,8.71,10.1,13.07,15.14,2.11,2.43,3.3,5.1,4.04,8.35,1.95,8.6,3.92,17.23,6.99,25.54.34.92,1.04,1.94.15,2.78-.94.89-1.89-.04-2.7-.47-18.96-10.12-40.17-14.07-59.99-21.92-28.84-11.42-58.08-21.84-85.94-35.61-.56-.28-.95-.91-1.41-1.38,3.54-4.64,9-6.75,13.63-9.79,20.39-13.43,40.69-26.99,60.91-40.68,6.97-4.72,12.48-11.01,18.62-16.59,15.54-14.11,30.49-28.88,45.68-43.38,1.08-1.03,2-2.3,3.74-2.2Z"/>
    <path class="cls-1" d="m478.44,147.5c-.45,7.1-4.22,13.28-5.58,20.14-.97,4.89-2.54,9.67-3.27,14.58-.38,2.55-1.28,4.45-3.16,5.94-10.79,8.56-18.63,19.87-27.84,29.9-.78.85-1.23,1.99-2.75,2.48,6.82-19.97,13.65-39.61,12.38-60.9.43-1.98,2.13-2.31,3.68-2.85,8.85-3.09,17.7-6.19,26.54-9.28Z"/>
    <path class="cls-1" d="m557.65,69.74c-4.8,27.81-10.12,55.5-19.56,82.28,1.82-15.23,3.66-30.46,5.44-45.69.17-1.46.41-3.27-.25-4.4-4.09-7.01-4.6-15.9-5.93-23.56,1.12-1.16,1.26-1.54,2.62-1.96,6.02-1.89,15.23-4.23,17.68-6.66Z"/>
  </g>
  <g>
    <path class="cls-3" d="m843.89,701.87c3.73,1.51,7.5,2.92,11.37,4.03,3.92,1.73,8.04,2.89,12.03,4.41.49.19.52-.1.78-.39.83-.93,1.79-.65,2.03.56.1.51.07.97.7,1.15.22.06.49.3.34.63-.12.26-.34.5-.64.32-.47-.26-.67-.06-1.01.28-.8.8-1.65.63-1.91-.5-.19-.83-.66-1.07-1.31-1.3-4.08-1.41-8.08-3.07-12.22-4.31-3.62-1.43-7.25-2.81-10.96-3.98-2.18-.78-4.37-1.55-6.55-2.36-.52-.19-.79-.12-1.12.35-.6.85-1.5,1.11-2.41.64-.62-.32-.82-.23-1.1.36-.6,1.27-1.53,2.31-2.71,3.02-2.42,1.45-4.67,3.19-7.31,4.28-.51.21-1.05.42-1.14,1.06-.4,2.68-.96,5.33-1.72,8.16,3.77-1.72,7.32-3.35,10.88-4.95.61-.28,1.19-.7,1.92-.6.85,1.89.87,1.94-.99,2.79-3.43,1.57-6.87,3.13-10.35,4.58-1.04.44-1.65.99-1.65,2.12.39.21.61-.12.87-.24,4.48-2.1,8.94-4.24,13.43-6.32.75-.35,1.64-1.32,2.24-.83.7.57.28,1.78.16,2.72-4.75,2.2-9.52,4.36-14.26,6.61-3.61,1.71-7.16,3.56-10.78,5.28-4.45,2.12-8.95,4.12-13.39,6.25-3.74,1.79-7.43,3.7-11.15,5.53-.86.42-1.73.84-2.63,1.14-1.84.59-3.88-.05-4.94-1.45-.26-.35-.46-.69-.27-1.12.13-.31.41-.34.69-.3,3.13.51,5.8-.99,8.47-2.16,5.34-2.35,10.58-4.94,15.87-7.4,1.09-.5.24-1.76,1.19-2.3-.76-.35-1.18.12-1.63.34-7.75,3.78-15.68,7.15-23.49,10.78-1.92.89-4.11.41-5.38-1.07-.33-.38-.7-.82-.46-1.34.28-.61.86-.34,1.32-.25,1.88.39,3.51-.28,5.27-.9,5.05-1.77,9.73-4.37,14.72-6.24,4.18-1.57,7.24-4.39,10.08-7.62.3-.34.57-.79.95-.97,1.9-.85,2.03-2.59,2.42-4.29.29-1.24.9-2.41,1.4-3.6.87-2.07,1.51-4.2,1.8-6.44.23-1.83.97-3.38,2.54-4.5,1.56-1.12,2.93-2.47,4.22-3.89,1.9-2.09,2.84-4.43,1.91-7.28-.31-.95-.58-1.92-.83-2.89-.26-1-.62-1.43-1.43-.4-.11.14-.29.24-.37.4-1.62,2.77-4.44,3.43-7.25,4.08-.89.2-1.79.42-2.69.46-1.42.07-2.06.84-2.43,2.13-1.84,6.4-3.73,12.78-5.62,19.17-.13.43-.1.72.11,1.13.67,1.3.46,1.8-.89,2.38-.22.09-.41.17-.5.41-.16.42-.39.77-.91.55-.54-.22-.12-.62-.14-.94,0-.17-.06-.35-.14-.5-.78-1.52-.73-1.85.7-2.49.65-.29.7-.8.85-1.29,1.4-4.77,2.78-9.55,4.17-14.32.35-1.18.74-2.35,1.1-3.53.31-1.01.54-1.84-.19-2.99-1.41-2.22.68-5.47,3.27-5.36.86.04,1.46-.47,2.16-.75,2.93-1.19,5.21-2.93,5.72-6.34.19-1.27.78-2.44,1.67-3.4.47-.5.39-.81.02-1.38-1.91-2.97-2.58-6.26-1.69-9.66.94-3.57,5.04-4.75,7.45-2.27,1.22,1.25,1.28,2.89,1.25,4.49-.02.92.19,1.44,1.18,1.62.95.17,1.3,1.04,1.38,1.85.09.93.59,1.36,1.35,1.65,2.17.83,3.65,2.38,4.56,4.48.96,2.19,2.19,4.22,3.67,6.08,1.62,2.03,1.48,4.33,1.36,6.66-.13,2.42-.58,4.79-1.32,7.11-.48,1.5.1,2.5,1.58,3.02,2.23.79,4.47,1.58,6.7,2.36Z"/>
    <g>
      <path class="cls-1" d="m843.89,701.87c-.08-.6.42-.86.7-1.26,2.26-3.23,4.95-6.17,6.57-9.82,1.18-2.66,2.28-5.35,3.78-7.87,1.11-1.86,2.67-3.34,4.11-4.89,1.23-1.32,2.31-2.71,3.08-4.31,1.97-4.08,6.46-5.59,10.2-4.07,1.08.44,1.48.12,1.6-.94.2-1.74.71-3.35,1.74-4.81,1.91-2.73,6.14-2.61,7.8.29.7,1.22,1.34,2.49,2,3.74.1.19.06.5.35.52.34.03.45-.27.56-.51,1.63-3.69,4.19-6.78,6.54-9.99,2.35-3.21,5.06-2.12,6.59.23.31.48.38,1.12.98,1.51.3-.69.57-1.37.89-2.01,1.52-3.06,4.26-3.46,6.27-.7.98,1.34,2.08,1.22,3.33,1.14,1.36-.09,1.87-1.08,2.26-2.2.89-2.54,1.99-4.87,3.92-6.91,2.61-2.77,8.16-3.25,11.51-.15,1.79,1.65,2.9,3.58,2.89,6.08,0,.9.17,1.41,1.38.95,4.4-1.69,8.45-4.05,12.58-6.25,5.35-2.85,10.55-5.97,15.7-9.18,5.78-3.6,11.35-7.48,16.69-11.72,2.93-2.32,5.7-4.82,8.34-7.42,3.79-3.73,7.16-7.88,9.59-12.66,1.04-2.05,2.26-4.08,2.78-6.35,1.13-4.88-.21-9.23-3.15-13.16-1.84-2.46-4.28-4.31-6.5-6.38-3.47-3.24-6.53-6.82-6.45-11.96.06-3.44,1.59-6.4,3.68-9.06,5.2-6.6,12.42-10.49,19.55-14.52,4.61-2.61,9.35-4.96,14.1-7.28,6.59-3.23,13.33-6.12,20.09-8.96.25-.11.5-.25.86.08-.59.35-1.14.72-1.72,1-8.79,4.34-17.42,8.98-25.8,14.07-5.71,3.47-11.43,7-16.15,11.84-1.94,1.99-3.69,4.13-4.9,6.69-1.5,3.19-1,7.53,1.6,10.26,2.4,2.52,5.19,4.57,7.82,6.81,5.14,4.38,9.3,9.41,10.57,16.27.98,5.31,0,10.38-2.2,15.28-2.57,5.73-6.32,10.59-10.66,15.08-6.92,7.16-15,12.75-23.36,18.02-8.71,5.49-17.77,10.35-26.87,15.13-5.64,2.96-11.38,5.72-17.17,8.36-4.12,1.88-8.24,3.78-12.37,5.64-5.73,2.57-11.47,5.1-17.2,7.67-3.94,1.77-7.89,3.53-11.81,5.35-6.47,3.01-12.95,6.01-19.37,9.14-4.65,2.28-9.24,4.69-13.69,7.36-.69.42-1.4.89-2.27.87-3.87-1.1-7.64-2.51-11.37-4.03Z"/>
      <path class="cls-1" d="m835.56,717.55c.12-.94.54-2.15-.16-2.72-.6-.48-1.5.49-2.24.83-4.49,2.08-8.95,4.21-13.43,6.32-.26.12-.49.46-.87.24,0-1.13.6-1.68,1.65-2.12,3.48-1.46,6.92-3.01,10.35-4.58,1.86-.85,1.84-.9.99-2.79.03-.34.18-.58.45-.8,3.67-2.97,6.92-6.43,10.81-9.15,3.71,1.17,7.34,2.55,10.96,3.98-.07.62-.62.74-1.05.96-3.92,2.02-7.54,4.53-11.24,6.9-1.92,1.23-3.88,2.49-6.2,2.94Z"/>
    </g>
  </g>
  <path class="cls-4" d="m93.37,108.01c-10.49,0-18.99,8.51-18.99,19,0,10.49,8.51,18.99,19,18.99,7.67,0,14.59-4.62,17.53-11.7.65-1.56-.9-3.12-2.47-2.49-6.32,2.56-13.52-.49-16.08-6.81-1.92-4.75-.71-10.19,3.04-13.68l.15-.15c1.05-1.2.21-3.14-1.44-3.14h-.63s-.11-.02-.11-.02h0Z"/>
</svg>