<?xml version="1.0" encoding="UTF-8"?>
<svg id="Layer_7" data-name="Layer 7" xmlns="http://www.w3.org/2000/svg" viewBox="0 0 1024 1024">
  <defs>
    <style>
      .cls-1 {
        fill: #4d4f50;
      }

      .cls-1, .cls-2, .cls-3 {
        stroke-width: 0px;
      }

      .cls-2 {
        fill: #989b9d;
      }

      .cls-3 {
        fill: #fff;
      }
    </style>
  </defs>
  <g>
    <path class="cls-2" d="m392.65,142.86c-.81,1.64-2.38,2.78-4.19,3.05l-28.46,4.13-.56.11c-2.62.7-4.19,3.39-3.49,6.01.23.86.69,1.64,1.33,2.27l20.62,20.07c1.31,1.28,1.91,3.12,1.6,4.93l-4.86,28.35-.06.54c-.16,2.71,1.91,5.04,4.62,5.2.89.05,1.79-.14,2.58-.56l25.45-13.38c1.62-.85,3.56-.85,5.19,0l25.39,13.38.49.23c2.53.99,5.38-.25,6.37-2.77.33-.84.42-1.75.27-2.63l-4.87-28.35c-.31-1.81.29-3.65,1.6-4.93l20.63-20.07.38-.42c1.71-2.11,1.39-5.2-.72-6.91-.69-.56-1.52-.92-2.39-1.05l-28.46-4.13c-1.81-.26-3.38-1.4-4.19-3.05l-12.72-25.78c-1.2-2.43-4.15-3.44-6.58-2.24-.97.48-1.76,1.26-2.24,2.24l-12.73,25.78Z"/>
    <path class="cls-2" d="m616.97,117.08c-.48-.97-1.26-1.76-2.24-2.24-2.43-1.2-5.38-.2-6.58,2.24l-12.72,25.78c-.81,1.64-2.38,2.78-4.19,3.05l-28.46,4.13c-.88.13-1.7.49-2.39,1.05-2.11,1.71-2.43,4.81-.72,6.91l.38.42,20.63,20.07c1.31,1.28,1.91,3.12,1.6,4.93l-4.87,28.35c-.15.89-.06,1.8.27,2.63.99,2.53,3.85,3.77,6.37,2.77l.49-.23,25.39-13.38c1.62-.86,3.56-.86,5.19,0l25.45,13.38c.79.42,1.68.61,2.58.56,2.71-.16,4.78-2.49,4.62-5.2l-.06-.54-4.86-28.35c-.31-1.81.29-3.65,1.6-4.93l20.62-20.07c.64-.62,1.1-1.4,1.33-2.27.7-2.62-.87-5.32-3.49-6.01l-.56-.11-28.46-4.13c-1.81-.26-3.38-1.4-4.19-3.05l-12.73-25.78Z"/>
  </g>
  <circle class="cls-2" cx="512.69" cy="512.94" r="274.69"/>
  <circle class="cls-3" cx="512.69" cy="512.94" r="238.67"/>
  <path class="cls-1" d="m580.73,686.87h-139.12c-13.25,0-25.34-7.54-31.2-19.39-5.86-11.89-4.45-26.09,3.62-36.58l110.75-144.08c14.5-19.63,21.18-36.11,21.18-43.44,0-19.19-15.61-34.78-34.78-34.78s-34.78,15.59-34.78,34.78-15.57,34.78-34.78,34.78-34.78-15.56-34.78-34.78c0-57.54,46.8-104.34,104.34-104.34s104.34,46.8,104.34,104.34c0,31.15-19.14,63.58-35.19,85.29l-68.12,88.65h68.53c19.21,0,34.78,15.56,34.78,34.78s-15.57,34.78-34.78,34.78Z"/>
  <g>
    <g>
      <path class="cls-2" d="m888.69,486.08c-2.29,8.59-5.85,16.66-10.58,24.2-1.08,1.71-2.12,2.94-3.18,3.67-.34.24-.7.44-1.06.57-.47.19-.95.29-1.45.29-1.77,0-3.65-1.22-5.83-3.63-25.28-27.99-29.17-67.14-10.14-102.27,1.4-2.58,2.74-5.22,4.41-7.64.45-.64.91-1.2,1.38-1.66.14-.14.28-.26.42-.38.15-.11.29-.23.44-.33.2-.14.39-.25.59-.36.2-.1.4-.19.6-.26.41-.14.83-.21,1.24-.21,1.41,0,2.9.79,4.48,2.47,20.85,25.32,27.16,53.82,18.69,85.54Z"/>
      <path class="cls-2" d="m873.87,514.53c.36-.14.71-.33,1.06-.57-.36.24-.7.44-1.06.57Z"/>
    </g>
    <g>
      <path class="cls-2" d="m919.66,584.09c-10.09,18.77-28.57,32.53-52.07,39.89-1.09.34-2.05.61-2.91.79,2.07-2.27,3.95-5.28,5.45-9.25,3.72-9.88,5.92-20.16,6.54-30.55.6-9.83.1-19.22-1.48-28.17h0c5.31-8.28,12.4-15.41,20.33-22,8.34-6.93,17.35-12.99,27.8-16.45,6.57-2.18,9.04-.79,9.15,5.86.31,19.62-2,38.81-12.81,59.87Z"/>
      <path class="cls-2" d="m860.56,584.01c-.53,8.88-2.41,17.5-5.54,25.83-.17.47-.36.92-.55,1.33-.09.21-.18.4-.29.6-.2.39-.39.75-.6,1.07-.14.22-.29.44-.44.62-.14.19-.29.38-.45.54-.03.05-.08.09-.11.13-.1.1-.21.21-.31.3-.11.1-.23.2-.33.28-.09.07-.18.13-.28.18h-.01c-.07.03-.13.08-.18.11-.01.01-.02.01-.03.02-.02.01-.06.03-.08.05-.01,0-.02,0-.03.01-.01,0-.01.01-.02.01s-.01.01-.02.01-.01.01-.02.01c-.15.07-.31.14-.47.18-.09.03-.2.06-.29.08-.14.03-.28.07-.41.07-.07.01-.14.02-.21.02-.09.02-.2.02-.3.02h-.02c-1.57,0-3.41-.83-5.62-2.47-30.36-22.39-41.97-59.98-30.34-98.2.86-2.81,1.65-5.66,2.8-8.37.07-.16.14-.33.22-.48.15-.32.3-.62.46-.89.21-.34.41-.67.64-.94.1-.15.22-.28.34-.4.11-.13.23-.24.36-.36.2-.17.39-.33.61-.46.15-.09.3-.17.45-.24.11-.06.24-.11.36-.15.11-.05.23-.08.36-.1.14-.03.28-.06.41-.08.16-.02.33-.03.5-.03,1.2,0,2.56.52,4.1,1.61,25.47,20.65,37.34,47.31,35.36,80.09Z"/>
    </g>
    <g>
      <path class="cls-2" d="m906.44,647.65c-4.33,19.15-11.07,37.25-26.53,55.18-14.23,15.87-35.42,24.9-59.99,26.52-1.12.08-2.12.1-3.01.08,2.51-1.71,5.05-4.19,7.45-7.7,5.94-8.73,10.5-18.2,13.54-28.15,2.89-9.42,4.62-18.68,5.2-27.73,7.11-6.8,15.69-12.06,24.93-16.59,9.73-4.77,19.92-8.55,30.89-9.46,6.91-.57,8.97,1.35,7.52,7.85Z"/>
      <path class="cls-2" d="m822.49,688.85c-2.6,8.5-6.46,16.44-11.46,23.8-.13.18-.24.36-.37.53-.24.33-.48.65-.72.94-.09.11-.2.23-.3.34-.09.11-.18.22-.29.32-.09.11-.2.22-.29.31s-.18.18-.29.28c-.17.16-.36.31-.53.45-.1.08-.21.16-.31.24-.13.09-.24.17-.37.24-.05.02-.08.05-.11.07-.13.07-.23.14-.36.18-.02.01-.06.02-.08.03-.18.09-.36.16-.54.21-.18.06-.36.1-.54.13-.02.01-.05.01-.07.01-.05.01-.09.01-.14.02-.05.01-.09.01-.14.01-.09.01-.18.01-.28.01-1.8,0-3.68-1.29-5.83-3.84-24.23-28.89-26.69-68.16-6.39-102.57,1.5-2.54,2.95-5.12,4.69-7.47.18-.25.37-.48.55-.7.18-.22.38-.41.56-.61.18-.18.38-.36.56-.52.2-.16.38-.31.57-.44.78-.52,1.57-.78,2.39-.78,1.45,0,2.96.84,4.52,2.64,19.9,26.07,25.16,54.77,15.54,86.16Z"/>
    </g>
    <g>
      <path class="cls-2" d="m845.61,764.85c-9.73,17.05-21.47,32.38-41.49,45.03-18.23,11.03-41.15,13.46-65.12,7.84-1.08-.25-2.03-.5-2.85-.78,3.13-.99,6.22-2.71,9.33-5.21,8.23-6.62,15.35-14.34,21.17-22.96,5.52-8.17,9.88-16.52,13.08-25.03,8.78-4.42,18.51-6.93,28.68-8.57,10.71-1.72,21.55-2.36,32.3-.02,6.78,1.47,8.19,3.92,4.9,9.71Z"/>
      <path class="cls-2" d="m753.29,779.74c-4.98,7.37-10.97,13.84-17.91,19.4-2.18,1.76-3.99,2.64-5.58,2.64-.14,0-.28-.01-.41-.02-.28-.02-.54-.08-.8-.17-.26-.08-.52-.19-.77-.34-.24-.14-.48-.31-.72-.52-.11-.1-.23-.21-.34-.32l-.1-.1c-.1-.11-.22-.24-.32-.37-.09-.1-.18-.22-.28-.34-.07-.09-.15-.19-.23-.31-.29-.41-.55-.86-.81-1.37-.14-.25-.26-.52-.39-.79-.14-.28-.28-.57-.4-.88-14.74-34.71-5.62-72.98,23.84-99.97,2.17-1.99,4.31-4.04,6.67-5.78,1.51-1.11,2.93-1.71,4.2-1.71.14,0,.26.01.39.02.07,0,.13.01.18.02.07,0,.14.02.2.03.25.05.5.13.73.23.13.05.24.1.36.17.1.05.2.11.29.17.08.05.16.1.23.16.07.05.14.1.2.16.1.08.21.17.3.26.18.18.38.39.55.62.18.23.36.48.53.76.13.21.25.42.37.65.13.23.24.47.36.73,11.43,30.74,8.08,59.74-10.3,86.95Z"/>
    </g>
    <path class="cls-2" d="m701.69,764.41c-.13,1.22-.28,2.43-.45,3.63v.03c-4.23,30.79-19.99,54.01-47.5,69.61-7.73,4.37-15.98,7.49-24.67,9.4-1.3.29-2.42.44-3.42.44-1.63,0-2.86-.39-3.71-1.24-.25-.23-.47-.49-.64-.81-.2-.31-.36-.65-.5-1.02-.41-1.25-.56-2.88-.44-4.93,2.26-37.65,27.47-67.84,65.86-78.89,2.85-.81,5.66-1.69,8.54-2.2.71-.13,1.37-.2,1.97-.2,2.11,0,3.63.78,4.38,2.44h0c.45.96.64,2.2.57,3.75Z"/>
    <path class="cls-2" d="m743.03,865.45c-16.28,10.94-33.63,19.45-57.2,21.85-17.17,1.43-34.61-3.57-50.67-13.86-12.31-5.82-29.74-5.28-41.89-3.16-4.21.72-11.51,2.39-18.3,3.99-.05-2.96-.3-5.88-.76-8.73,7.91-1.71,16.86-3.55,21.5-4.21,5.38-.78,13.71-1.51,21.21-2.08.26-.02.5-.05.76-.07.68-.03,1.31-.1,1.9-.15,3.75-.3,6.61-.61,8.17-.8.85-.08,1.3-.15,1.3-.15.73-.08,1.51-.24,2.34-.41,9.79-2.15,19.11-5.71,27.7-10.57,6.05-3.42,11.61-7.21,16.66-11.33,12.77-1.84,25.53.48,38.29,4.44,10.35,3.22,20.36,7.49,28.94,14.35,5.4,4.34,5.59,7.17.06,10.88Z"/>
  </g>
  <g>
    <path class="cls-2" d="m157.41,511.19c-2.18,2.41-4.06,3.63-5.83,3.63-.49,0-.98-.09-1.45-.29-.48-.18-.95-.47-1.41-.85-.23-.18-.47-.4-.7-.63-.13-.11-.24-.24-.36-.37-.59-.65-1.17-1.46-1.77-2.4-4.73-7.54-8.28-15.61-10.58-24.2-8.47-31.73-2.16-60.22,18.69-85.54,1.57-1.68,3.06-2.47,4.48-2.47.42,0,.84.07,1.24.21.2.07.4.16.6.26.2.09.39.22.59.36.15.1.3.22.44.33.15.11.29.24.42.38.47.46.93,1.02,1.38,1.66,1.65,2.42,3.01,5.06,4.41,7.64,19.02,35.14,15.14,74.29-10.14,102.27Z"/>
    <g>
      <path class="cls-2" d="m159.34,624.77c-.86-.18-1.82-.45-2.91-.79-23.5-7.36-41.99-21.11-52.07-39.89-10.81-21.07-13.12-40.25-12.82-59.87.1-6.66,2.58-8.04,9.16-5.86,10.45,3.47,19.46,9.52,27.79,16.45,7.93,6.59,15.02,13.71,20.34,21.99h0c-1.58,8.96-2.08,18.35-1.48,28.18.62,10.38,2.82,20.67,6.54,30.55,1.49,3.97,3.38,6.98,5.45,9.25Z"/>
      <g>
        <path class="cls-2" d="m180.07,613.02c-2.21,1.64-4.06,2.47-5.62,2.47-1.16,0-2.17-.46-3.06-1.4-.45-.46-.87-1.04-1.27-1.76h0c-.4-.72-.78-1.55-1.14-2.49-.39-1.04-.77-2.09-1.11-3.13-.26-.79-.52-1.58-.76-2.38-.24-.79-.47-1.58-.69-2.39-.2-.7-.38-1.41-.55-2.12-.11-.45-.23-.9-.32-1.34-.11-.45-.22-.9-.31-1.35-.11-.54-.23-1.08-.33-1.62s-.21-1.08-.3-1.62c-.09-.52-.18-1.03-.26-1.54-.02-.11-.03-.22-.05-.33-.08-.47-.15-.93-.21-1.4-.08-.55-.15-1.09-.21-1.64-.06-.39-.09-.78-.13-1.17-.06-.5-.11-1.01-.15-1.51-.07-.76-.13-1.51-.17-2.28-1.96-32.78,9.89-59.44,35.38-80.09,1.53-1.09,2.89-1.61,4.1-1.61.17,0,.34.01.5.03.14.02.28.05.41.08.13.02.24.06.36.1.13.05.24.09.37.15.15.07.3.15.44.24.22.13.41.29.61.46.09.09.2.18.29.28.2.19.38.41.55.65.13.17.25.36.37.55.09.14.17.29.25.44.2.36.38.75.56,1.16,1.14,2.71,1.94,5.55,2.8,8.37,11.64,38.22.01,75.81-30.34,98.2Z"/>
        <path class="cls-2" d="m168.99,609.84c-.39-1.04-.77-2.09-1.12-3.13.34,1.04.72,2.09,1.11,3.13.36.94.73,1.77,1.14,2.48-.39-.7-.77-1.53-1.12-2.48Z"/>
      </g>
    </g>
    <g>
      <path class="cls-2" d="m207.09,729.43c-.87.02-1.87,0-3.01-.08-24.57-1.62-45.77-10.65-59.99-26.52-15.46-17.93-22.2-36.03-26.53-55.18-1.47-6.49.61-8.42,7.52-7.85,10.97.91,21.16,4.68,30.89,9.46,9.25,4.53,17.82,9.79,24.93,16.58h0c.56,9.08,2.29,18.31,5.19,27.75,3.05,9.95,7.61,19.42,13.55,28.15,2.39,3.51,4.93,5.99,7.45,7.7Z"/>
      <path class="cls-2" d="m224.5,713.13c-2.13,2.56-4.02,3.84-5.83,3.84h-.13c-.09,0-.18-.01-.28-.02-.1-.01-.2-.02-.3-.05-.09-.01-.2-.03-.3-.07-.1-.02-.22-.06-.33-.1-.15-.05-.3-.11-.44-.18-.13-.06-.24-.11-.36-.18-.11-.06-.22-.13-.33-.21-.21-.14-.42-.3-.63-.48-.15-.11-.3-.25-.45-.39-.23-.23-.47-.47-.71-.75-.47-.54-.95-1.17-1.45-1.89-5-7.36-8.86-15.3-11.46-23.8-9.63-31.39-4.37-60.09,15.54-86.16,1.56-1.8,3.08-2.64,4.52-2.64.81,0,1.61.26,2.39.78.2.13.38.28.57.44.2.16.38.33.56.52.2.2.38.39.56.61.18.22.37.45.55.7,1.74,2.35,3.19,4.93,4.68,7.47,20.3,34.41,17.85,73.68-6.39,102.57Z"/>
    </g>
    <g>
      <path class="cls-2" d="m287.85,816.93c-.81.28-1.77.53-2.85.78-23.97,5.62-46.89,3.19-65.12-7.84-20.02-12.65-31.77-27.98-41.49-45.03-3.29-5.78-1.88-8.24,4.9-9.71,10.75-2.34,21.6-1.7,32.3.02,10.18,1.64,19.9,4.15,28.69,8.57h0c3.19,8.53,7.55,16.86,13.07,25.03,5.82,8.62,12.94,16.34,21.17,22.96,3.11,2.5,6.2,4.22,9.33,5.21Z"/>
      <path class="cls-2" d="m299.8,796.24c-.25.59-.5,1.12-.77,1.62-.08.17-.17.32-.26.48-.2.34-.39.65-.59.94-.08.11-.15.22-.23.31-.09.13-.18.24-.28.34-.1.13-.22.25-.32.37-.03.03-.07.07-.1.1-.11.11-.23.22-.34.32-.24.21-.48.38-.72.52-.25.15-.5.26-.77.34-.25.09-.52.15-.79.17-.14.01-.28.02-.42.02-1.57,0-3.4-.88-5.57-2.64-6.94-5.57-12.93-12.04-17.91-19.4-18.38-27.22-21.73-56.21-10.3-86.95,1.22-2.74,2.8-4,4.67-4,1.27,0,2.69.6,4.2,1.71,2.35,1.74,4.5,3.8,6.67,5.78,29.46,26.99,38.58,65.26,23.84,99.97Z"/>
    </g>
    <path class="cls-2" d="m403.22,844.44c-.16.37-.31.71-.5,1.02-.17.32-.39.59-.64.81-.85.85-2.09,1.24-3.71,1.24-1,0-2.12-.15-3.42-.44-8.69-1.9-16.94-5.03-24.67-9.4-27.53-15.59-43.28-38.84-47.52-69.65v-.03c-.16-1.18-.31-2.38-.44-3.58-.07-1.55.13-2.79.57-3.74h0c.76-1.68,2.26-2.46,4.38-2.46.61,0,1.26.07,1.97.2,2.88.52,5.69,1.39,8.53,2.2,38.41,11.05,63.62,41.24,65.86,78.89.14,2.05-.01,3.68-.42,4.93Z"/>
    <path class="cls-2" d="m428.29,861.33c4.66.67,13.61,2.5,21.53,4.21-.46,2.86-.72,5.77-.77,8.73-6.79-1.61-14.1-3.27-18.3-3.99-12.15-2.12-29.59-2.66-41.89,3.16-16.06,10.29-33.51,15.3-50.68,13.86-23.56-2.4-40.91-10.91-57.19-21.85-5.53-3.71-5.36-6.54.06-10.88,8.58-6.86,18.59-11.13,28.94-14.35,12.76-3.96,25.51-6.28,38.29-4.44,5.05,4.12,10.61,7.91,16.66,11.33,8.59,4.85,17.91,8.42,27.7,10.57.81.17,1.59.33,2.34.41,0,0,.45.07,1.3.15,1.56.19,4.42.5,8.16.8.61.05,1.24.11,1.9.15.26.02.5.05.77.07,7.49.56,15.82,1.3,21.19,2.08Z"/>
  </g>
  <g>
    <path class="cls-2" d="m536.78,832.7l-22.5,33.32,22.11.28-43.14,55.01,17.25-44.36-21.9-.06,24.98-50.76s6.54.18,12.17,1.77c5.61,1.58,11.03,4.81,11.03,4.81h0Z"/>
    <path class="cls-2" d="m506.88,826.38l-10.24,20.81c-.28.15-.54.3-.81.46-4.87,2.91-8.76,6.8-11.67,11.67-2.9,4.87-4.36,10.28-4.36,16.24s1.46,11.3,4.36,16.17c2.67,4.46,6.16,8.11,10.48,10.92l-6.1,16.41c-.55-.3-1.1-.62-1.64-.94-3.52-2.1-6.78-4.65-9.79-7.65-4.7-4.72-8.31-10.05-10.81-16.03-2.24-5.37-3.47-11-3.69-16.88-.02-.67-.03-1.33-.03-2,0-2.4.16-4.76.5-7.09.56-4.05,1.64-7.99,3.24-11.81,2.49-6,6.09-11.36,10.8-16.06,4.7-4.67,10.05-8.24,16.03-10.74,1.59-.67,3.21-1.24,4.85-1.72,2.89-.86,5.86-1.45,8.89-1.76Z"/>
    <path class="cls-2" d="m561.44,875.56c0,.67-.01,1.33-.03,2-.23,5.88-1.46,11.51-3.71,16.88-2.49,5.98-6.07,11.31-10.73,16.03-4.7,4.7-10.06,8.31-16.06,10.8-6,2.49-12.3,3.74-18.91,3.74-2.32,0-4.61-.16-6.86-.47-1.97-.26-3.91-.67-5.83-1.17l12.19-15.61h.52c5.96,0,11.36-1.45,16.24-4.36,4.87-2.9,8.76-6.79,11.67-11.67,2.9-4.87,4.36-10.26,4.36-16.17s-1.46-11.36-4.36-16.24c-2.11-3.53-4.74-6.55-7.88-9.05l9.64-14.26c.18.14.36.26.53.41,1.66,1.27,3.25,2.66,4.77,4.18,4.66,4.7,8.24,10.06,10.73,16.06,1.59,3.82,2.67,7.76,3.24,11.81.34,2.33.5,4.69.5,7.09Z"/>
  </g>
</svg>