<?xml version="1.0" encoding="UTF-8"?>
<svg id="Layer_1" data-name="Layer 1" xmlns="http://www.w3.org/2000/svg" viewBox="0 0 736.58 583.09">
  <defs>
    <style>
      .cls-1 {
        fill: #060606;
      }

      .cls-1, .cls-2 {
        stroke-width: 0px;
      }

      .cls-2 {
        fill: #b9c9cf;
      }
    </style>
  </defs>
  <path class="cls-1" d="m194.34,470.98c10.27,4.17,20.64,8.05,31.31,11.09,10.79,4.76,22.14,7.97,33.13,12.15,1.35.51,1.44-.28,2.15-1.07,2.27-2.56,4.93-1.8,5.59,1.55.28,1.41.2,2.67,1.94,3.16.62.17,1.35.82.93,1.73-.33.7-.92,1.37-1.76.89-1.28-.73-1.85-.16-2.77.77-2.21,2.22-4.54,1.73-5.26-1.37-.53-2.29-1.82-2.96-3.61-3.58-11.25-3.88-22.25-8.44-33.66-11.87-9.96-3.94-19.97-7.73-30.18-10.95-6.01-2.16-12.05-4.27-18.03-6.5-1.43-.54-2.17-.32-3.07.95-1.65,2.34-4.12,3.06-6.63,1.75-1.7-.89-2.26-.62-3.02.99-1.64,3.49-4.23,6.37-7.47,8.31-6.67,3.99-12.87,8.8-20.12,11.8-1.42.59-2.89,1.17-3.15,2.91-1.09,7.38-2.64,14.67-4.75,22.48,10.39-4.74,20.16-9.22,29.95-13.64,1.68-.76,3.27-1.93,5.28-1.65,2.33,5.2,2.4,5.34-2.72,7.69-9.44,4.33-18.92,8.61-28.5,12.62-2.88,1.2-4.53,2.72-4.53,5.84,1.06.59,1.68-.33,2.4-.67,12.33-5.79,24.62-11.67,36.98-17.4,2.05-.95,4.53-3.62,6.18-2.29,1.94,1.56.78,4.9.44,7.48-13.09,6.05-26.23,12.01-39.26,18.19-9.95,4.72-19.73,9.82-29.67,14.55-12.25,5.83-24.64,11.36-36.88,17.22-10.3,4.93-20.46,10.18-30.7,15.23-2.36,1.16-4.75,2.33-7.25,3.13-5.07,1.64-10.69-.14-13.62-3.99-.72-.95-1.25-1.89-.74-3.1.36-.86,1.13-.95,1.89-.82,8.63,1.41,15.96-2.72,23.31-5.96,14.71-6.48,29.13-13.6,43.71-20.37,2.99-1.39.66-4.85,3.27-6.33-2.08-.97-3.25.33-4.49.93-21.33,10.4-43.17,19.69-64.69,29.69-5.27,2.45-11.32,1.13-14.82-2.93-.9-1.05-1.93-2.24-1.26-3.69.78-1.68,2.37-.94,3.64-.68,5.19,1.08,9.66-.78,14.5-2.49,13.9-4.89,26.81-12.03,40.53-17.18,11.52-4.32,19.93-12.1,27.75-20.98.83-.94,1.56-2.19,2.63-2.66,5.22-2.34,5.59-7.14,6.67-11.83.79-3.42,2.49-6.63,3.87-9.9,2.4-5.7,4.17-11.56,4.95-17.73.64-5.03,2.67-9.29,7-12.4,4.29-3.08,8.07-6.8,11.63-10.71,5.23-5.76,7.81-12.21,5.26-20.04-.86-2.63-1.6-5.29-2.29-7.97-.7-2.74-1.72-3.94-3.94-1.1-.31.39-.79.67-1.03,1.09-4.47,7.63-12.21,9.45-19.96,11.22-2.44.56-4.92,1.15-7.41,1.28-3.91.2-5.68,2.31-6.7,5.86-5.08,17.62-10.28,35.21-15.49,52.79-.35,1.17-.28,1.99.3,3.12,1.85,3.59,1.27,4.96-2.44,6.55-.61.26-1.12.47-1.37,1.12-.44,1.15-1.07,2.11-2.5,1.51-1.48-.61-.34-1.7-.37-2.58-.02-.47-.18-.96-.39-1.38-2.14-4.19-2.02-5.09,1.94-6.84,1.78-.79,1.93-2.21,2.33-3.55,3.86-13.13,7.64-26.29,11.48-39.43.95-3.26,2.04-6.47,3.03-9.71.85-2.79,1.49-5.07-.53-8.24-3.89-6.12,1.87-15.05,9.01-14.75,2.36.1,4.01-1.29,5.95-2.07,8.07-3.27,14.34-8.07,15.75-17.47.52-3.48,2.14-6.73,4.59-9.37,1.29-1.38,1.06-2.24.05-3.8-5.27-8.17-7.1-17.23-4.64-26.61,2.58-9.84,13.87-13.07,20.52-6.25,3.35,3.43,3.52,7.96,3.44,12.37-.04,2.52.51,3.96,3.24,4.46,2.62.47,3.58,2.87,3.8,5.09.26,2.56,1.61,3.74,3.72,4.55,5.97,2.29,10.04,6.56,12.57,12.33,2.64,6.03,6.04,11.63,10.12,16.73,4.46,5.58,4.09,11.91,3.74,18.33-.36,6.68-1.6,13.19-3.64,19.58-1.32,4.12.28,6.87,4.36,8.31,6.15,2.18,12.3,4.34,18.45,6.51Z"/>
  <g>
    <path class="cls-2" d="m194.34,470.98c-.22-1.64,1.14-2.37,1.92-3.48,6.23-8.89,13.63-16.99,18.1-27.05,3.25-7.32,6.29-14.74,10.4-21.66,3.05-5.13,7.34-9.19,11.33-13.47,3.38-3.63,6.37-7.46,8.5-11.86,5.42-11.24,17.8-15.41,28.1-11.22,2.97,1.21,4.07.33,4.4-2.58.54-4.79,1.97-9.23,4.79-13.25,5.27-7.52,16.91-7.19,21.49.79,1.94,3.37,3.68,6.86,5.5,10.29.28.52.15,1.37.96,1.44.93.08,1.25-.74,1.54-1.4,4.5-10.16,11.53-18.66,18.01-27.52,6.47-8.84,13.94-5.83,18.16.65.86,1.33,1.05,3.1,2.7,4.15.84-1.91,1.56-3.76,2.44-5.54,4.18-8.44,11.72-9.51,17.25-1.93,2.7,3.7,5.72,3.36,9.18,3.13,3.75-.25,5.14-2.98,6.21-6.05,2.44-6.99,5.47-13.4,10.78-19.03,7.19-7.62,22.47-8.95,31.7-.42,4.92,4.55,7.98,9.86,7.97,16.75,0,2.49.48,3.89,3.81,2.61,12.11-4.65,23.28-11.16,34.65-17.22,14.73-7.85,29.07-16.44,43.23-25.29,15.9-9.92,31.26-20.6,45.96-32.27,8.06-6.4,15.69-13.28,22.97-20.43,10.44-10.26,19.72-21.7,26.42-34.85,2.88-5.65,6.21-11.24,7.66-17.49,3.11-13.45-.57-25.41-8.68-36.25-5.07-6.78-11.78-11.86-17.91-17.57-9.56-8.92-18-18.79-17.77-32.94.15-9.48,4.38-17.62,10.14-24.94,14.33-18.18,34.21-28.89,53.84-39.99,12.69-7.18,25.74-13.65,38.82-20.06,18.14-8.89,36.7-16.85,55.32-24.67.7-.29,1.37-.69,2.36.23-1.63.96-3.13,1.97-4.74,2.77-24.21,11.94-47.98,24.73-71.04,38.73-15.73,9.55-31.48,19.28-44.47,32.6-5.33,5.47-10.15,11.37-13.48,18.43-4.14,8.77-2.76,20.74,4.39,28.25,6.61,6.94,14.29,12.58,21.54,18.76,14.15,12.07,25.62,25.92,29.1,44.81,2.7,14.63-.01,28.59-6.06,42.07-7.08,15.78-17.4,29.15-29.36,41.53-19.04,19.71-41.31,35.1-64.32,49.62-23.97,15.13-48.92,28.49-73.98,41.67-15.52,8.16-31.33,15.74-47.28,23.03-11.35,5.19-22.68,10.42-34.07,15.54-15.77,7.08-31.58,14.05-47.36,21.12-10.86,4.87-21.73,9.72-32.52,14.75-17.82,8.3-35.67,16.54-53.33,25.18-12.82,6.27-25.46,12.92-37.7,20.28-1.91,1.15-3.84,2.45-6.25,2.38-10.67-3.04-21.04-6.93-31.31-11.09Z"/>
    <path class="cls-2" d="m171.4,514.16c.34-2.58,1.5-5.92-.44-7.48-1.65-1.33-4.13,1.34-6.18,2.29-12.36,5.73-24.65,11.6-36.98,17.4-.72.34-1.34,1.25-2.4.67,0-3.12,1.66-4.64,4.53-5.84,9.58-4.01,19.05-8.29,28.5-12.62,5.12-2.35,5.06-2.48,2.72-7.69.08-.92.49-1.61,1.24-2.21,10.11-8.17,19.07-17.71,29.76-25.19,10.22,3.22,20.22,7.01,30.18,10.95-.2,1.71-1.71,2.04-2.89,2.65-10.8,5.55-20.75,12.47-30.96,19-5.3,3.39-10.7,6.85-17.08,8.09Z"/>
  </g>
</svg>