<?xml version="1.0" encoding="UTF-8"?>
<svg id="Layer_7" data-name="Layer 7" xmlns="http://www.w3.org/2000/svg" viewBox="0 0 1024 1024">
  <defs>
    <style>
      .cls-1 {
        fill: #7a533b;
      }

      .cls-1, .cls-2, .cls-3 {
        stroke-width: 0px;
      }

      .cls-2 {
        fill: #fff;
      }

      .cls-3 {
        fill: #c78860;
      }
    </style>
  </defs>
  <path class="cls-3" d="m515.68,78.26c-.52-1.06-1.38-1.92-2.45-2.45-2.67-1.31-5.89-.22-7.2,2.45l-13.93,28.23c-.89,1.8-2.6,3.05-4.59,3.33l-31.16,4.52c-.96.14-1.87.54-2.62,1.15-2.31,1.87-2.66,5.26-.79,7.57l.42.46,22.58,21.98c1.44,1.4,2.1,3.42,1.76,5.4l-5.33,31.03c-.17.97-.06,1.97.3,2.88,1.09,2.76,4.21,4.12,6.98,3.03l.54-.25,27.79-14.65c1.78-.94,3.9-.94,5.68,0l27.86,14.65c.87.46,1.84.67,2.82.61,2.97-.18,5.23-2.72,5.05-5.69l-.07-.59-5.32-31.03c-.34-1.98.32-4,1.76-5.4l22.57-21.97c.7-.68,1.2-1.54,1.45-2.48.76-2.87-.95-5.82-3.82-6.58l-.61-.12-31.16-4.52c-1.99-.29-3.7-1.53-4.59-3.33l-13.93-28.23Z"/>
  <circle class="cls-3" cx="510.86" cy="512.69" r="274.4"/>
  <circle class="cls-2" cx="510.86" cy="512.69" r="238.42"/>
  <path class="cls-1" d="m614.47,582.35c0,57.37-46.66,104.09-104.04,104.09s-104.09-46.71-104.09-104.09c0-18.31,14.84-33.15,33.15-33.15s33.15,14.84,33.15,33.15c0,20.81,16.93,37.79,37.79,37.79s37.74-16.98,37.74-37.79-16.93-37.79-37.74-37.79c-18.31,0-33.15-14.84-33.15-33.15s14.84-33.15,33.15-33.15c4.03,0,8.01.25,11.93.71q.05-.05.05,0c16.37-5.1,28.3-20.45,28.3-38.5,0-22.23-18.05-40.29-40.29-40.29s-40.34,18.05-40.34,40.29c0,16.93-13.72,30.6-30.6,30.6s-30.6-13.67-30.6-30.6c0-55.95,45.54-101.49,101.54-101.49s101.49,45.54,101.49,101.49c0,26.67-10.3,51-27.23,69.1,18.41,18.77,29.78,44.47,29.78,72.78Z"/>
  <g>
    <path class="cls-3" d="m873.35,590.97c11.1,34.15,6.12,65.7-15.22,94.64-5.78,7.84-12.64,14.64-20.47,20.42-5.99,4.42-9.44,3.34-12.08-3.69-14.55-38.64-2.83-80.09,30.63-108.26,2.46-2.07,4.9-4.22,7.55-6.02,4.2-2.85,7.56-2.23,9.6,2.91Z"/>
    <g>
      <path class="cls-3" d="m877.22,752.97c-10.65,18.66-23.5,35.45-45.43,49.3-19.96,12.06-45.04,14.74-71.29,8.58-1.19-.28-2.22-.55-3.12-.85,3.43-1.08,6.8-2.98,10.21-5.71,9.01-7.24,16.81-15.7,23.19-25.13,6.04-8.94,10.81-18.07,14.31-27.39h0c9.61-4.85,20.27-7.6,31.41-9.4,11.71-1.88,23.58-2.58,35.36-.02,7.42,1.61,8.98,4.3,5.36,10.62Z"/>
      <g>
        <path class="cls-3" d="m776.15,769.28c-5.45,8.07-12.03,15.15-19.61,21.24-2.39,1.92-4.38,2.89-6.11,2.89-.16,0-.31-.01-.46-.02-.16-.01-.3-.04-.44-.07s-.29-.07-.43-.12c-.29-.08-.55-.22-.83-.37-.41-.23-.8-.54-1.18-.92-.13-.12-.25-.25-.37-.4-.13-.14-.25-.3-.37-.46-.12-.16-.24-.32-.35-.49-.24-.35-.47-.73-.7-1.14-.34-.62-.67-1.31-1-2.08-16.13-38-6.14-79.9,26.1-109.43,2.38-2.18,4.72-4.42,7.3-6.34,1.66-1.22,3.2-1.87,4.6-1.87,2.05,0,3.78,1.38,5.12,4.38,12.51,33.66,8.83,65.4-11.28,95.2Z"/>
        <path class="cls-3" d="m748.27,792.83c.28.16.54.29.83.37-.29-.1-.56-.22-.83-.37Z"/>
      </g>
    </g>
    <path class="cls-3" d="m719.66,752.49c-.14,1.33-.3,2.65-.49,3.95.01.01,0,.02,0,.02-4.62,33.74-21.89,59.17-52,76.25-8.47,4.79-17.5,8.2-27.02,10.29-1.42.31-2.65.48-3.74.48-1.78,0-3.13-.43-4.06-1.36-.28-.26-.52-.54-.71-.9-.22-.34-.37-.71-.54-1.12-.46-1.37-.62-3.16-.48-5.4,2.47-41.21,30.06-74.27,72.11-86.35,3.11-.91,6.19-1.86,9.34-2.42.79-.14,1.5-.22,2.16-.22,2.32,0,3.96.85,4.8,2.66h0c.49,1.06.71,2.41.64,4.12Z"/>
    <path class="cls-3" d="m764.92,863.11c-17.83,11.97-36.82,21.29-62.62,23.92-18.79,1.56-37.89-3.91-55.47-15.17-13.48-6.38-32.56-5.78-45.86-3.47-4.6.8-12.59,2.6-20.04,4.37-.05-3.24-.34-6.42-.84-9.55,8.67-1.86,18.47-3.86,23.56-4.61,5.88-.85,15.01-1.66,23.21-2.27.29-.02.55-.05.83-.07.73-.05,1.43-.12,2.09-.17,4.1-.34,7.24-.67,8.94-.88.92-.1,1.42-.17,1.42-.17.82-.1,1.67-.26,2.57-.46,10.72-2.34,20.91-6.25,30.33-11.57,6.61-3.74,12.71-7.9,18.23-12.4,13.98-2.02,27.95.52,41.92,4.86,11.33,3.53,22.29,8.21,31.67,15.72,5.93,4.74,6.12,7.85.07,11.91Z"/>
  </g>
  <g>
    <path class="cls-3" d="m150.65,590.97c-11.1,34.15-6.12,65.7,15.22,94.64,5.78,7.84,12.64,14.64,20.47,20.42,5.99,4.42,9.44,3.34,12.08-3.69,14.55-38.64,2.83-80.09-30.63-108.26-2.46-2.07-4.9-4.22-7.55-6.02-4.2-2.85-7.56-2.23-9.6,2.91Z"/>
    <g>
      <path class="cls-3" d="m266.62,810c-.9.29-1.93.58-3.12.85-26.25,6.16-51.33,3.48-71.29-8.58-21.93-13.85-34.78-30.64-45.43-49.3-3.61-6.32-2.06-9.01,5.36-10.62,11.77-2.56,23.64-1.86,35.36.02,11.14,1.8,21.79,4.56,31.41,9.4,3.5,9.31,8.27,18.45,14.31,27.39,6.37,9.43,14.17,17.89,23.19,25.13,3.4,2.74,6.78,4.63,10.21,5.71Z"/>
      <path class="cls-3" d="m279.69,787.34c-.32.77-.66,1.45-1,2.08-.23.41-.46.79-.7,1.14-.24.35-.48.66-.72.95-.25.29-.52.55-.78.78-.12.1-.24.19-.37.28-.08.07-.18.13-.28.19-.08.06-.18.11-.28.16-.12.06-.24.12-.36.17-.11.05-.22.08-.32.12-.13.05-.26.08-.4.11-.04.01-.08.02-.12.02-.12.02-.24.05-.36.06-.16.01-.3.02-.46.02-1.72,0-3.71-.97-6.1-2.89-7.6-6.1-14.16-13.18-19.61-21.24-20.11-29.8-23.79-61.53-11.28-95.2,1.33-3,3.07-4.38,5.11-4.38,1.4,0,2.94.65,4.6,1.87,2.58,1.92,4.93,4.15,7.3,6.34,32.26,29.54,42.25,71.43,26.12,109.43Z"/>
    </g>
    <path class="cls-3" d="m392.9,840.1c-.17.41-.34.78-.54,1.12-.19.36-.43.64-.72.9-.92.92-2.27,1.36-4.04,1.36-1.09,0-2.33-.17-3.76-.48-9.51-2.09-18.54-5.5-27-10.29-30.15-17.09-47.41-42.56-52.02-76.33-.18-1.28-.34-2.58-.48-3.89-.08-1.69.13-3.06.62-4.09t0-.01c.83-1.82,2.48-2.68,4.81-2.68.66,0,1.37.07,2.15.22,3.16.56,6.24,1.51,9.35,2.42,42.04,12.09,69.63,45.14,72.11,86.35.13,2.24-.02,4.03-.48,5.4Z"/>
    <path class="cls-3" d="m420.36,858.59c5.1.74,14.88,2.75,23.55,4.61-.5,3.13-.79,6.31-.84,9.55-7.44-1.76-15.43-3.56-20.03-4.37-13.3-2.32-32.39-2.92-45.86,3.47-17.59,11.26-36.68,16.73-55.48,15.17-25.79-2.63-44.79-11.95-62.61-23.92-6.05-4.06-5.86-7.17.07-11.91,9.39-7.51,20.34-12.19,31.67-15.72,13.97-4.34,27.93-6.88,41.92-4.86,5.52,4.5,11.62,8.65,18.23,12.4,9.42,5.32,19.61,9.23,30.33,11.57.9.19,1.75.36,2.56.46,0,0,.5.07,1.43.17,1.7.2,4.84.54,8.94.88.66.05,1.34.12,2.09.17.28.02.54.05.83.07,8.2.61,17.33,1.42,23.21,2.27Z"/>
  </g>
  <g>
    <path class="cls-3" d="m539.13,827.25l-24.64,36.47,24.21.31-47.22,60.22,18.88-48.57-23.97-.06,27.34-55.57s7.16.2,13.33,1.93c6.15,1.73,12.07,5.26,12.07,5.26h0Z"/>
    <path class="cls-3" d="m566.12,874.17c0,.73-.01,1.44-.04,2.16h0c-.25,6.45-1.6,12.61-4.06,18.49-2.72,6.54-6.65,12.4-11.75,17.55-5.15,5.16-11.02,9.1-17.58,11.83-6.58,2.72-13.47,4.09-20.7,4.09-2.54,0-5.05-.17-7.51-.52-2.16-.3-4.28-.72-6.38-1.28l13.35-17.08h.56c6.52,0,12.45-1.6,17.77-4.78,5.33-3.18,9.59-7.44,12.77-12.77,3.18-5.33,4.78-11.23,4.78-17.7s-1.6-12.45-4.78-17.77c-2.3-3.86-5.18-7.18-8.63-9.91l10.55-15.61c.2.14.4.3.59.46,1.81,1.39,3.55,2.92,5.22,4.56,5.11,5.16,9.03,11.02,11.75,17.59,1.74,4.16,2.92,8.47,3.55,12.91.36,2.56.54,5.14.54,7.78Z"/>
    <path class="cls-3" d="m506.39,820.33l-11.21,22.78c-.3.17-.59.34-.89.5-5.33,3.19-9.59,7.44-12.77,12.78-3.18,5.33-4.78,11.26-4.78,17.77s1.6,12.37,4.78,17.7c2.92,4.88,6.74,8.87,11.47,11.95l-6.68,17.97c-.6-.34-1.2-.67-1.8-1.03-3.85-2.3-7.43-5.09-10.72-8.39-5.16-5.15-9.1-11.01-11.82-17.55-2.46-5.88-3.8-12.05-4.06-18.48-.02-.72-.04-1.44-.04-2.17,0-2.63.18-5.22.54-7.77.64-4.44,1.81-8.75,3.55-12.93,2.72-6.58,6.66-12.43,11.82-17.59,5.16-5.1,11.01-9.01,17.55-11.75,1.75-.73,3.52-1.36,5.32-1.9,3.17-.94,6.41-1.58,9.73-1.91Z"/>
  </g>
</svg>