<?xml version="1.0" encoding="UTF-8"?>
<svg id="Desktop" xmlns="http://www.w3.org/2000/svg" viewBox="0 0 1022 1025.06">
  <defs>
    <style>
      .cls-1 {
        fill: #060606;
      }

      .cls-1, .cls-2, .cls-3 {
        stroke-width: 0px;
      }

      .cls-2 {
        fill: #b9c9cf;
      }

      .cls-3 {
        fill: #ede3d4;
      }
    </style>
  </defs>
  <g>
    <path class="cls-3" d="m1024.52,240.86c.06,12.05.17,24.09.17,36.14.02,170.2.08,340.4-.15,510.6,0,7.33.66,14.65.18,21.97-.92,14.09.34,28.17.06,42.27-.28,14.22-.06,28.45-.06,42.67s0,28.78,0,43.18c0,14.23,0,28.45,0,42.68,0,14.39,0,28.78,0,43.18q0,6.86-6.64,6.86c-191.73,0-383.47,0-575.2,0-21.02,0-42.03,0-63.05,0-127.42,0-254.85,0-382.27,0v-317.37c1.39.16,2.61-.34,3.85-.9,28.28-12.99,56.63-25.85,84.84-38.98,21.73-10.12,43.4-20.36,65.26-30.23,34.23-15.47,68.15-31.64,102.23-47.45,40.15-18.63,80.46-36.9,120.43-55.91,25.48-12.12,51.25-23.64,76.5-36.29,19.22-9.63,39.29-17.51,58.65-26.93,17.71-8.61,35.7-16.64,53.55-24.96,20.73-9.66,41.41-19.44,62.19-29.01,31.23-14.39,62.55-28.56,93.77-42.97,17.9-8.26,35.62-16.9,53.52-25.18,32.14-14.85,64.34-29.58,96.53-44.31,14.27-6.53,28.57-13.01,42.91-19.39,25.47-11.33,50.98-22.58,76.48-33.83,12.06-5.32,24.16-10.55,36.24-15.82Z"/>
    <path class="cls-2" d="m1024.52,240.86c-12.08,5.27-24.18,10.5-36.24,15.82-25.51,11.25-51.01,22.5-76.48,33.83-14.34,6.38-28.64,12.86-42.91,19.39-32.2,14.73-64.39,29.46-96.53,44.31-17.9,8.27-35.62,16.92-53.52,25.18-31.22,14.4-62.54,28.58-93.77,42.97-20.77,9.57-41.45,19.35-62.19,29.01-17.85,8.32-35.84,16.35-53.55,24.96-19.36,9.41-39.43,17.3-58.65,26.93-25.25,12.65-51.02,24.16-76.5,36.29-39.97,19.01-80.28,37.28-120.43,55.91-34.08,15.82-67.99,31.98-102.23,47.45-21.85,9.87-43.52,20.11-65.26,30.23-28.22,13.13-56.56,25.99-84.84,38.98-1.24.57-2.46,1.06-3.85.9v-60.26c4.93-3.71,8.71-8.56,13-12.92,9.12-9.27,17.07-19.65,27.15-28,3.69-3.06,7.64-6.19,10.22-10.11,6.67-10.17,12.65-20.8,18.88-31.26.79-1.33,1.77-2.3,3.19-3.02,6.39-3.24,12.97-6.07,19.7-8.49,12.24-4.4,22.73-11.37,30.07-22.12,8.94-13.1,16.83-26.88,23.63-41.24.62-1.31.4-2.48.21-3.84-1.08-7.77-3.35-15.27-5.07-22.89-3.37-14.97-7.87-29.62-12.64-44.19-.71-2.17-1.24-3.98.61-5.98,5.66-6.12,11.09-12.46,16.72-18.6,9.38-10.23,17.52-21.41,25.51-32.72,1.3-1.84,1.8-3.52-.29-5.2-6.72-5.41-6.7-13.25-7.13-20.78-.14-2.43-1.58-4.69-.47-7.33,3.48-8.31,6.71-16.72,10.07-25.08,3.85-9.58,8.4-18.87,11.44-28.77,3.04-.03,6.13,1.5,7.8,3.02,13.98,12.68,25.79,22.53,40.41,34.45,9.57,7.81,19.34,15.37,29.03,23.03,1.48,1.18,3.16,1.86,5.06,1.94,6.59,3.76,11.31,9.74,17.07,14.51,21.73,17.97,45.86,31.45,72.45,40.72,19.36,6.75,38.54,14.03,57.95,20.66,13.24,4.52,26.76,8.22,40.09,12.5,2.58.83,3.85.24,5.36-1.78,3.01-3.99,6.22-7.84,9.52-11.58,11.14-12.64,22.31-25.26,33.59-37.78,4.9-5.44,8.39-11.48,10.22-18.63,2.72-10.66,6.43-21.09,8.6-31.85,2.9-14.36,10.73-24.32,23.56-30.88,9.81-5.02,19.57-10.17,29.16-15.6,5.15-2.92,10.98-5.37,13.49-11.45,7.69-18.64,18.35-35.59,29.47-52.29,1.13-1.69,2.44-3.47,1.8-5.54-1.81-5.85-2.56-12.1-6.73-17.07-6.96-8.32-13.39-17.07-19.14-26.27-4.36-6.99-9.52-12.91-17.68-15.35-2.89-.86-2.74-2.29-1.52-4.41,3.73-6.52,7.27-13.15,11.12-19.59,8.27-13.81,18.15-26.34,30.14-37.14,2.08-1.87,2.66-3.63,1.95-6.51-1.97-7.97-4.79-15.63-7.91-23.17-.65-1.57-.76-2.72-.25-4.19,1.7-4.88,3.49-9.73,4.98-14.67,3.69-12.27,7.64-24.49,9.11-37.31,2.23-.31,3.88.32,5.23,1.55,4.44,4.03,7.77,6.39,12.15,10.48,11.21,10.45,22.43,20.88,33.62,31.36,3.88,3.63,8.58,6.01,13.53,7.27,6.02,1.54,9.63,5.74,13.29,9.99,13.07,15.18,27.32,29.18,42.08,42.67.7.64,1.73.92,2.61,1.36.47.47.85,1.1,1.41,1.38,27.87,13.77,57.11,24.19,85.95,35.61,19.82,7.85,41.03,11.8,60,21.92.81.43,1.76,1.36,2.7.47.89-.84.19-1.86-.15-2.78-3.07-8.31-5.04-16.94-6.99-25.54-.74-3.25-1.93-5.92-4.04-8.35-4.37-5.04-8.67-10.13-13.08-15.14-1.69-1.92-2.23-3.75-1.38-6.35,1.45-4.42,2.24-9.06,3.65-13.5.97-3.08-.23-4.72-2.72-6.09-5.41-2.98-10.69-6.21-16.19-8.98-2.79-1.41-2.59-2.82-1.24-5.03,8.23-13.53,15.34-27.76,25.05-40.38,1.49-1.94,3.1-3.93,3.56-6.54,1.99-11.13,4.04-22.24,6.06-33.36,4.01,1.99,6.51,5.63,8.9,9.06,9.84,14.13,21.52,26.25,36.33,35.22,4.97,3.01,8.01,8.03,11.71,12.28,8.25,9.48,18.17,16.78,29.06,22.73,5.96,3.25,8.1,9.2,11.57,14.11,12.61,17.86,25.68,35.37,39.02,52.69,1.17,1.53,1.97,2.95,1.97,4.94-.1,29.94-.15,59.88-.22,89.83Z"/>
    <path class="cls-3" d="m182.36,280.2c-3.04,9.9-7.59,19.19-11.44,28.77-3.36,8.36-6.59,16.77-10.07,25.08-1.11,2.64.34,4.91.47,7.33.42,7.53.41,15.37,7.13,20.78,2.08,1.68,1.58,3.36.29,5.2-7.98,11.31-16.13,22.49-25.51,32.72-5.64,6.14-11.06,12.48-16.72,18.6-1.85,2-1.32,3.82-.61,5.98,4.77,14.57,9.27,29.22,12.64,44.19,1.72,7.62,3.99,15.12,5.07,22.89.19,1.36.42,2.53-.21,3.84-6.8,14.37-14.69,28.14-23.63,41.24-7.34,10.75-17.83,17.72-30.07,22.12-6.73,2.42-13.31,5.25-19.7,8.49-1.43.72-2.4,1.69-3.19,3.02-6.23,10.46-12.21,21.09-18.88,31.26-2.57,3.92-6.53,7.06-10.22,10.11-10.08,8.36-18.03,18.74-27.15,28-4.29,4.36-8.07,9.21-13,12.92v-233.01c2.58.43,3.96-1.41,5.46-2.96,16.86-17.38,35.86-32.37,53.9-48.43,10.85-9.65,23.42-15.16,36.13-20.84,7.78-3.47,14.18-8.61,20.45-14.08,10.54-9.19,20.65-18.95,31.71-27.45,10.92-8.39,21.75-17.01,33.61-24.13,1.12-.68,2.1-1.56,3.53-1.66Z"/>
    <path class="cls-3" d="m621.07,7.98c-1.48,12.82-5.42,25.04-9.11,37.31-1.49,4.94-3.28,9.8-4.98,14.67-.51,1.47-.4,2.62.25,4.19,3.12,7.54,5.94,15.2,7.91,23.17.71,2.88.13,4.64-1.95,6.51-11.99,10.79-21.88,23.33-30.14,37.14-3.86,6.44-7.4,13.07-11.12,19.59-1.22,2.13-1.37,3.55,1.52,4.41,8.17,2.44,13.32,8.35,17.68,15.35,5.74,9.2,12.17,17.95,19.14,26.27,4.16,4.98,4.91,11.22,6.73,17.07.64,2.08-.67,3.85-1.8,5.54-11.12,16.7-21.79,33.65-29.47,52.29-2.5,6.07-8.33,8.52-13.49,11.45-9.59,5.44-19.35,10.58-29.16,15.6-12.83,6.56-20.66,16.52-23.56,30.88-2.17,10.76-5.88,21.19-8.6,31.85-1.83,7.15-5.32,13.19-10.22,18.63-11.28,12.52-22.44,25.14-33.59,37.78-3.3,3.75-6.52,7.6-9.52,11.58-1.52,2.02-2.79,2.6-5.36,1.78-13.33-4.28-26.85-7.98-40.09-12.5-19.41-6.62-38.59-13.9-57.95-20.66-26.59-9.27-50.72-22.75-72.45-40.72-5.76-4.76-10.48-10.75-17.07-14.51,3.45-4.26,6.25-8.15,9.96-11.51,12.98-11.76,25.61-23.87,38.06-36.19,19.3-19.12,38.68-38.16,58.13-57.13,6.81-6.64,14.69-12.08,22.59-17.23,13.1-8.53,23.46-19.61,32.39-32.11,6.76-9.46,14.98-17.83,20.81-27.97.27-.48,1.11-.63,1.68-.93,1.27,21.29-5.55,40.93-12.38,60.91,1.52-.49,1.98-1.63,2.75-2.48,9.21-10.03,17.05-21.34,27.84-29.9,1.88-1.49,2.78-3.39,3.16-5.94.73-4.91,2.31-9.69,3.27-14.58,1.36-6.86,5.13-13.04,5.58-20.14,10.27-8.35,18.11-19.11,27.79-28.03,6.5-5.98,10.57-13.68,15.72-20.61,4.36-5.87,8.61-11.83,12.86-17.78.73-1.03,1.99-2.21,2.55-2.73,1.33,7.66,1.84,16.55,5.93,23.57.66,1.14.42,2.94.25,4.4-1.77,15.24-3.61,30.47-5.44,45.7,9.44-26.78,14.76-54.47,19.56-82.29,1.96-4.12,6.22-5.91,9.18-9,6.11-6.37,11.81-13.18,18.3-19.13,9.95-9.13,18.96-19.16,28.52-28.65,2.12-2.11,4.28-4.19,7.34-4.9Z"/>
    <path class="cls-3" d="m886.18,0c-2.03,11.12-4.08,22.23-6.06,33.36-.47,2.61-2.07,4.6-3.56,6.54-9.72,12.62-16.82,26.85-25.05,40.38-1.34,2.21-1.55,3.62,1.24,5.03,5.51,2.78,10.79,6,16.19,8.98,2.49,1.37,3.7,3.01,2.72,6.09-1.4,4.44-2.19,9.08-3.65,13.5-.86,2.6-.31,4.43,1.38,6.35,4.41,5,8.71,10.1,13.08,15.14,2.11,2.43,3.3,5.1,4.04,8.35,1.95,8.6,3.92,17.23,6.99,25.54.34.92,1.04,1.94.15,2.78-.94.89-1.89-.04-2.7-.47-18.96-10.12-40.18-14.07-60-21.92-28.84-11.42-58.08-21.84-85.95-35.61-.56-.28-.95-.91-1.41-1.38,3.54-4.64,9-6.75,13.63-9.8,20.39-13.43,40.7-26.99,60.92-40.69,6.97-4.72,12.48-11.02,18.62-16.59,15.55-14.11,30.5-28.88,45.68-43.39,1.08-1.03,2-2.3,3.74-2.2Z"/>
    <path class="cls-2" d="m478.51,147.44c-.45,7.1-4.22,13.28-5.58,20.14-.97,4.89-2.54,9.67-3.27,14.58-.38,2.55-1.28,4.45-3.16,5.94-10.8,8.56-18.63,19.87-27.84,29.9-.78.85-1.23,1.99-2.75,2.48,6.82-19.97,13.65-39.62,12.38-60.91.43-1.98,2.13-2.31,3.68-2.85,8.85-3.09,17.7-6.19,26.55-9.29Z"/>
    <path class="cls-2" d="m557.73,69.67c-4.8,27.82-10.12,55.51-19.56,82.29,1.82-15.23,3.66-30.46,5.44-45.7.17-1.46.41-3.27-.25-4.4-4.09-7.01-4.61-15.9-5.93-23.57,1.12-1.16,1.26-1.54,2.62-1.96,6.02-1.89,15.23-4.23,17.68-6.66Z"/>
  </g>
  <g>
    <path class="cls-1" d="m843.89,701.87c3.73,1.51,7.5,2.92,11.37,4.03,3.92,1.73,8.04,2.89,12.03,4.41.49.19.52-.1.78-.39.83-.93,1.79-.65,2.03.56.1.51.07.97.7,1.15.22.06.49.3.34.63-.12.26-.34.5-.64.32-.47-.26-.67-.06-1.01.28-.8.8-1.65.63-1.91-.5-.19-.83-.66-1.07-1.31-1.3-4.08-1.41-8.08-3.07-12.22-4.31-3.62-1.43-7.25-2.81-10.96-3.98-2.18-.78-4.37-1.55-6.55-2.36-.52-.19-.79-.12-1.12.35-.6.85-1.5,1.11-2.41.64-.62-.32-.82-.23-1.1.36-.6,1.27-1.53,2.31-2.71,3.02-2.42,1.45-4.67,3.19-7.31,4.28-.51.21-1.05.42-1.14,1.06-.4,2.68-.96,5.33-1.72,8.16,3.77-1.72,7.32-3.35,10.88-4.95.61-.28,1.19-.7,1.92-.6.85,1.89.87,1.94-.99,2.79-3.43,1.57-6.87,3.13-10.35,4.58-1.04.44-1.65.99-1.65,2.12.39.21.61-.12.87-.24,4.48-2.1,8.94-4.24,13.43-6.32.75-.35,1.64-1.32,2.24-.83.7.57.28,1.78.16,2.72-4.75,2.2-9.52,4.36-14.26,6.61-3.61,1.71-7.16,3.56-10.78,5.28-4.45,2.12-8.95,4.12-13.39,6.25-3.74,1.79-7.43,3.7-11.15,5.53-.86.42-1.73.84-2.63,1.14-1.84.59-3.88-.05-4.94-1.45-.26-.35-.46-.69-.27-1.12.13-.31.41-.34.69-.3,3.13.51,5.8-.99,8.47-2.16,5.34-2.35,10.58-4.94,15.87-7.4,1.09-.5.24-1.76,1.19-2.3-.76-.35-1.18.12-1.63.34-7.75,3.78-15.68,7.15-23.49,10.78-1.92.89-4.11.41-5.38-1.07-.33-.38-.7-.82-.46-1.34.28-.61.86-.34,1.32-.25,1.88.39,3.51-.28,5.27-.9,5.05-1.77,9.73-4.37,14.72-6.24,4.18-1.57,7.24-4.39,10.08-7.62.3-.34.57-.79.95-.97,1.9-.85,2.03-2.59,2.42-4.29.29-1.24.9-2.41,1.4-3.6.87-2.07,1.51-4.2,1.8-6.44.23-1.83.97-3.38,2.54-4.5,1.56-1.12,2.93-2.47,4.22-3.89,1.9-2.09,2.84-4.43,1.91-7.28-.31-.95-.58-1.92-.83-2.89-.26-1-.62-1.43-1.43-.4-.11.14-.29.24-.37.4-1.62,2.77-4.44,3.43-7.25,4.08-.89.2-1.79.42-2.69.46-1.42.07-2.06.84-2.43,2.13-1.84,6.4-3.73,12.78-5.62,19.17-.13.43-.1.72.11,1.13.67,1.3.46,1.8-.89,2.38-.22.09-.41.17-.5.41-.16.42-.39.77-.91.55-.54-.22-.12-.62-.14-.94,0-.17-.06-.35-.14-.5-.78-1.52-.73-1.85.7-2.49.65-.29.7-.8.85-1.29,1.4-4.77,2.78-9.55,4.17-14.32.35-1.18.74-2.35,1.1-3.53.31-1.01.54-1.84-.19-2.99-1.41-2.22.68-5.47,3.27-5.36.86.04,1.46-.47,2.16-.75,2.93-1.19,5.21-2.93,5.72-6.34.19-1.27.78-2.44,1.67-3.4.47-.5.39-.81.02-1.38-1.91-2.97-2.58-6.26-1.69-9.66.94-3.57,5.04-4.75,7.45-2.27,1.22,1.25,1.28,2.89,1.25,4.49-.02.92.19,1.44,1.18,1.62.95.17,1.3,1.04,1.38,1.85.09.93.59,1.36,1.35,1.65,2.17.83,3.65,2.38,4.56,4.48.96,2.19,2.19,4.22,3.67,6.08,1.62,2.03,1.48,4.33,1.36,6.66-.13,2.42-.58,4.79-1.32,7.11-.48,1.5.1,2.5,1.58,3.02,2.23.79,4.47,1.58,6.7,2.36Z"/>
    <g>
      <path class="cls-2" d="m843.89,701.87c-.08-.6.42-.86.7-1.26,2.26-3.23,4.95-6.17,6.57-9.82,1.18-2.66,2.28-5.35,3.78-7.87,1.11-1.86,2.67-3.34,4.11-4.89,1.23-1.32,2.31-2.71,3.08-4.31,1.97-4.08,6.46-5.59,10.2-4.07,1.08.44,1.48.12,1.6-.94.2-1.74.71-3.35,1.74-4.81,1.91-2.73,6.14-2.61,7.8.29.7,1.22,1.34,2.49,2,3.74.1.19.06.5.35.52.34.03.45-.27.56-.51,1.63-3.69,4.19-6.78,6.54-9.99,2.35-3.21,5.06-2.12,6.59.23.31.48.38,1.12.98,1.51.3-.69.57-1.37.89-2.01,1.52-3.06,4.26-3.46,6.27-.7.98,1.34,2.08,1.22,3.33,1.14,1.36-.09,1.87-1.08,2.26-2.2.89-2.54,1.99-4.87,3.92-6.91,2.61-2.77,8.16-3.25,11.51-.15,1.79,1.65,2.9,3.58,2.89,6.08,0,.9.17,1.41,1.38.95,4.4-1.69,8.45-4.05,12.58-6.25,5.35-2.85,10.55-5.97,15.7-9.18,5.78-3.6,11.35-7.48,16.69-11.72,2.93-2.32,5.7-4.82,8.34-7.42,3.79-3.73,7.16-7.88,9.59-12.66,1.04-2.05,2.26-4.08,2.78-6.35,1.13-4.88-.21-9.23-3.15-13.16-1.84-2.46-4.28-4.31-6.5-6.38-3.47-3.24-6.53-6.82-6.45-11.96.06-3.44,1.59-6.4,3.68-9.06,5.2-6.6,12.42-10.49,19.55-14.52,4.61-2.61,9.35-4.96,14.1-7.28,6.59-3.23,13.33-6.12,20.09-8.96.25-.11.5-.25.86.08-.59.35-1.14.72-1.72,1-8.79,4.34-17.42,8.98-25.8,14.07-5.71,3.47-11.43,7-16.15,11.84-1.94,1.99-3.69,4.13-4.9,6.69-1.5,3.19-1,7.53,1.6,10.26,2.4,2.52,5.19,4.57,7.82,6.81,5.14,4.38,9.3,9.41,10.57,16.27.98,5.31,0,10.38-2.2,15.28-2.57,5.73-6.32,10.59-10.66,15.08-6.92,7.16-15,12.75-23.36,18.02-8.71,5.49-17.77,10.35-26.87,15.13-5.64,2.96-11.38,5.72-17.17,8.36-4.12,1.88-8.24,3.78-12.37,5.64-5.73,2.57-11.47,5.1-17.2,7.67-3.94,1.77-7.89,3.53-11.81,5.35-6.47,3.01-12.95,6.01-19.37,9.14-4.65,2.28-9.24,4.69-13.69,7.36-.69.42-1.4.89-2.27.87-3.87-1.1-7.64-2.51-11.37-4.03Z"/>
      <path class="cls-2" d="m835.56,717.55c.12-.94.54-2.15-.16-2.72-.6-.48-1.5.49-2.24.83-4.49,2.08-8.95,4.21-13.43,6.32-.26.12-.49.46-.87.24,0-1.13.6-1.68,1.65-2.12,3.48-1.46,6.92-3.01,10.35-4.58,1.86-.85,1.84-.9.99-2.79.03-.34.18-.58.45-.8,3.67-2.97,6.92-6.43,10.81-9.15,3.71,1.17,7.34,2.55,10.96,3.98-.07.62-.62.74-1.05.96-3.92,2.02-7.54,4.53-11.24,6.9-1.92,1.23-3.88,2.49-6.2,2.94Z"/>
    </g>
  </g>
</svg>