<?xml version="1.0" encoding="UTF-8"?>
<svg xmlns="http://www.w3.org/2000/svg" viewBox="0 0 1024 1024">
  <defs>
    <style>
      .cls-1 {
        fill: #7a533b;
      }

      .cls-1, .cls-2, .cls-3, .cls-4, .cls-5 {
        stroke-width: 0px;
      }

      .cls-2 {
        fill: #ddb8a0;
      }

      .cls-3 {
        fill: #fab759;
      }

      .cls-4 {
        fill: #c78860;
      }

      .cls-5 {
        fill: #957562;
      }
    </style>
  </defs>
  <g id="Layer_9" data-name="Layer 9">
    <path class="cls-4" d="m662.61,551.92h-296.94c-3.06,0-5.38,2.75-4.87,5.77l65.52,384.78c.81,4.75,4.92,8.22,9.74,8.22h156.17c4.81,0,8.93-3.47,9.74-8.22l65.52-384.78c.51-3.02-1.81-5.77-4.87-5.77Z"/>
    <path class="cls-2" d="m475.42,599.05c-12.26,5.14-23.21,12.47-32.88,22.02-8.07,8.06-14.54,17.04-19.42,26.95l-16.37-96.11h77.16l7.17,42.1c-1.91.43-3.81.94-5.7,1.49-3.37,1.01-6.68,2.17-9.96,3.54Z"/>
    <path class="cls-2" d="m551.82,950.68h-77.16l-31.64-185.83c6.02,5.99,12.58,11.06,19.6,15.27,1.14.67,2.26,1.3,3.38,1.93l12.52-33.67c-8.85-5.78-16.02-13.25-21.49-22.4-5.96-9.99-8.95-20.96-8.95-33.17s2.99-23.32,8.95-33.31c5.96-10.01,13.94-17.96,23.93-23.95.57-.31,1.1-.63,1.67-.94l11.42-23.22,3.47,20.37-31.38,63.77,42.26.1.81,4.78-33.53,86.25,39.62-50.52,3.84,22.56c-1.63.11-3.3.17-4.98.17h-1.06l-25,32c3.93,1.06,7.91,1.85,11.96,2.41,4.6.65,9.31.98,14.07.98,3.7,0,7.35-.19,10.95-.58l26.74,157.01Z"/>
    <path class="cls-3" d="m692.16,447.29c-3.03,12.1-7.19,23.73-11.95,35.08h-331.85c-6.88-15.06-13.37-30.31-17.5-46.41-6.68-26.16-7.28-52.67-3.36-79.39,2.89-19.64,6.76-39.16,7.71-59.07.04-1.04-.01-2.32,1.14-2.67,1.49-.43,2.07,1.03,2.7,1.98,6,8.92,8.7,18.96,8.59,29.61-.1,10.99-1.07,21.98.48,32.9,1.62,11.3,5.38,20.95,16.66,26.42,15.83,7.67,30.55-5.94,30.02-19.53-.29-6.87-1.41-13.45-3.7-19.92-5.49-15.55-9.35-31.34-7.63-48.12,1.16-11.25,6.52-20.84,11.09-30.74.54-1.17,1.63-2.57,3.26-1.89,1.32.55,1.16,2.07,1.1,3.24-.45,8.13,1.97,15.53,5.72,22.49,4.29,7.95,10.93,11.97,20.06,12.44,10.91.55,20.53-.82,26.64-11.56,4.4-7.77,5.8-15.91,4.61-24.68-1.67-12.37-6.01-23.95-10.19-35.58-3.2-8.85-6.05-17.8-7.24-27.19-.91-7.17-.74-14.24,1.63-21.18,1.79-5.26,3.42-10.59,5.17-15.87.41-1.22.34-3.15,2.26-2.93,1.43.17,1.45,1.77,1.66,2.94,1.75,9.98,5.44,19.3,11.76,27,8.81,10.73,19.99,17.91,34.26,18.7,11.53.65,18.05-6.6,20.81-17.82,2.21-9.01,1.47-18.44-1.04-27.46-3.31-11.91-6.5-23.84-9.1-35.93-2.53-11.77-2.81-23.61,1.04-35.13,2.84-8.51,7.74-15.89,14.25-22.07,1.65-1.56,3.87-3.01,4.38.66,2.88,20.87,14.87,36.85,27.42,52.41,13.83,17.13,17.6,36.93,16.59,58.32-.79,16.52-6.54,31.63-12.77,46.57-4.57,10.93-1.63,20.26,5.71,28.39,7.44,8.26,17.15,10.85,27.78,8.55,6.08-1.32,9.97-6.22,12.77-11.48,3.51-6.57,6.64-13.42,6.66-21.21.01-1.02.1-2.1,1.51-3.25.63.95,1.28,1.59,1.55,2.37,6.02,17.91,11.13,35.93,7.72,55.23-1.29,7.35-4.36,13.89-7.67,20.42-4.54,8.97-10.4,17.35-12.46,27.46-3.74,18.51-1.65,35.51,13.25,48.77,8.47,7.54,18.59,8.68,29.11,6.24,5.99-1.39,9.32-6.26,11.48-11.84,4.5-11.6,5.47-23.57,4.11-35.93-1.28-11.71-1.12-23.36,4.28-34.27,2.11-4.28,4.84-8,9.27-10.13,2.14-1.03,4.13-.97,4.03,1.77-.68,20.71,9.98,38.18,15.58,57.08,8.52,28.68,7.87,57.38.64,86.21Z"/>
    <path class="cls-4" d="m697.77,496.89l-18.04,33.89c-.86,1.6-2.53,2.62-4.36,2.62h-322.47c-1.83,0-3.49-1.01-4.36-2.62l-18.04-33.89c-3.51-6.58,1.26-14.52,8.72-14.52h349.83c7.46,0,12.22,7.94,8.72,14.52Z"/>
    <polygon class="cls-2" points="471.49 533.4 394.33 533.4 385.64 482.37 462.8 482.37 471.49 533.4"/>
  </g>
  <g id="Layer_8" data-name="Layer 8">
    <g>
      <g>
        <path class="cls-1" d="m564.97,604.89l-46.17,68.34,45.36.58-88.49,112.84,35.38-91.01-44.92-.11,51.24-104.12s13.43.37,24.98,3.62c11.52,3.24,22.63,9.86,22.63,9.86h0Z"/>
        <path class="cls-1" d="m615.56,692.82c0,1.37-.02,2.7-.07,4.05v.02c-.47,12.05-2.99,23.61-7.6,34.63-5.11,12.26-12.46,23.23-22.02,32.88-9.65,9.67-20.65,17.05-32.95,22.18-12.32,5.11-25.23,7.67-38.79,7.67-4.77,0-9.47-.31-14.08-.97-4.05-.56-8.03-1.35-11.96-2.41l25.01-32h1.06c12.21,0,23.32-2.99,33.31-8.95,9.99-5.96,17.97-13.94,23.93-23.93,5.96-9.99,8.95-21.05,8.95-33.17s-2.99-23.32-8.95-33.31c-4.32-7.24-9.72-13.45-16.17-18.58l19.77-29.26c.38.27.74.56,1.1.85,3.4,2.61,6.66,5.47,9.78,8.55,9.58,9.67,16.91,20.65,22.02,32.97,3.26,7.8,5.47,15.88,6.66,24.2.67,4.79,1.01,9.63,1.01,14.57Z"/>
        <path class="cls-1" d="m503.62,591.93l-21.01,42.69c-.56.31-1.1.63-1.66.94-9.99,5.98-17.97,13.94-23.93,23.95-5.96,9.99-8.95,21.1-8.95,33.31s2.99,23.19,8.95,33.17c5.47,9.15,12.64,16.62,21.5,22.4l-12.53,33.67c-1.12-.63-2.25-1.26-3.37-1.93-7.22-4.32-13.92-9.54-20.08-15.72-9.67-9.65-17.05-20.62-22.15-32.88-4.61-11.02-7.13-22.58-7.6-34.63-.05-1.35-.07-2.7-.07-4.07,0-4.93.34-9.78,1.01-14.55,1.19-8.32,3.4-16.4,6.66-24.22,5.11-12.32,12.48-23.3,22.15-32.97,9.67-9.56,20.62-16.89,32.88-22.02,3.28-1.37,6.59-2.54,9.96-3.55,5.94-1.75,12.01-2.97,18.24-3.58Z"/>
      </g>
      <g>
        <polygon class="cls-5" points="508.38 695.63 466.12 695.54 497.51 631.77 508.38 695.63"/>
        <polygon class="cls-5" points="515.29 736.14 475.67 786.66 509.2 700.41 515.29 736.14"/>
        <path class="cls-5" d="m525.08,793.67c-3.6.4-7.25.58-10.95.58-4.77,0-9.47-.32-14.07-.98-4.05-.56-8.04-1.35-11.96-2.41l25-32h1.06c1.68,0,3.35-.06,4.98-.17l5.95,34.98Z"/>
        <path class="cls-5" d="m494.04,611.4l-11.42,23.22c-.57.31-1.1.63-1.67.94-9.99,5.99-17.96,13.94-23.93,23.95-5.96,9.99-8.95,21.1-8.95,33.31s2.99,23.19,8.95,33.17c5.47,9.15,12.64,16.62,21.49,22.4l-12.52,33.67c-1.12-.63-2.25-1.26-3.38-1.93-7.02-4.21-13.58-9.28-19.6-15.27l-19.89-116.83c4.88-9.91,11.35-18.89,19.42-26.95,9.67-9.56,20.62-16.89,32.88-22.02,3.28-1.37,6.59-2.53,9.96-3.54,1.89-.56,3.79-1.06,5.7-1.49l2.95,17.38Z"/>
      </g>
    </g>
  </g>
</svg>