<?xml version="1.0" encoding="UTF-8"?>
<svg id="Layer_7" data-name="Layer 7" xmlns="http://www.w3.org/2000/svg" viewBox="0 0 1024 1024">
  <defs>
    <style>
      .cls-1 {
        fill: #473712;
      }

      .cls-1, .cls-2, .cls-3, .cls-4, .cls-5, .cls-6 {
        stroke-width: 0px;
      }

      .cls-2 {
        fill: #fff;
      }

      .cls-3 {
        fill: #dfac3a;
      }

      .cls-4 {
        fill: #e0ad39;
      }

      .cls-5 {
        fill: #e0ad3a;
      }

      .cls-6 {
        fill: #e1ae3a;
      }
    </style>
  </defs>
  <circle class="cls-6" cx="511.57" cy="512.68" r="275.23"/>
  <circle class="cls-2" cx="511.57" cy="512.68" r="239.14"/>
  <g>
    <path class="cls-3" d="m488.26,97.92c-1.12,2.28-3.3,3.86-5.81,4.22l-39.44,5.72-.77.16c-3.64.97-5.8,4.7-4.84,8.33.32,1.19.95,2.28,1.84,3.14l28.57,27.81c1.82,1.77,2.65,4.33,2.22,6.83l-6.74,39.29-.09.75c-.22,3.76,2.64,6.98,6.4,7.2,1.24.07,2.48-.19,3.57-.77l35.27-18.54c2.25-1.18,4.94-1.18,7.19,0l35.19,18.54.68.31c3.5,1.38,7.46-.34,8.83-3.84.46-1.16.59-2.42.38-3.65l-6.74-39.28c-.43-2.51.4-5.06,2.22-6.83l28.59-27.82.53-.58c2.37-2.92,1.93-7.21-.99-9.58-.95-.77-2.1-1.28-3.32-1.45l-39.44-5.72c-2.51-.36-4.69-1.94-5.81-4.22l-17.63-35.73c-1.66-3.37-5.75-4.76-9.12-3.1-1.35.66-2.44,1.75-3.1,3.1l-17.64,35.73Z"/>
    <path class="cls-3" d="m342.65,159.55c-.84,1.71-2.47,2.89-4.36,3.17l-29.6,4.29-.58.12c-2.73.72-4.35,3.52-3.63,6.25.24.9.71,1.71,1.38,2.36l21.44,20.87c1.37,1.33,1.99,3.25,1.67,5.13l-5.06,29.48-.07.56c-.17,2.82,1.98,5.24,4.8,5.4.93.06,1.86-.15,2.68-.58l26.47-13.92c1.69-.89,3.71-.89,5.39,0l26.41,13.91.51.24c2.63,1.03,5.59-.26,6.63-2.88.34-.87.44-1.82.28-2.74l-5.06-29.48c-.32-1.88.3-3.8,1.67-5.13l21.45-20.88.4-.43c1.78-2.19,1.45-5.41-.75-7.19-.72-.58-1.58-.96-2.49-1.09l-29.6-4.3c-1.89-.27-3.52-1.46-4.36-3.17l-13.23-26.82c-1.25-2.53-4.31-3.57-6.84-2.33-1.01.5-1.83,1.32-2.33,2.33l-13.24,26.82Z"/>
    <path class="cls-3" d="m668.12,132.74c-.5-1.01-1.32-1.83-2.33-2.33-2.53-1.25-5.6-.21-6.84,2.33l-13.23,26.82c-.84,1.71-2.47,2.89-4.36,3.17l-29.6,4.3c-.91.13-1.77.51-2.49,1.09-2.19,1.78-2.53,5-.75,7.19l.4.43,21.45,20.88c1.37,1.33,1.99,3.25,1.67,5.13l-5.06,29.48c-.16.92-.06,1.87.28,2.74,1.03,2.63,4,3.92,6.63,2.88l.51-.24,26.41-13.91c1.69-.89,3.71-.89,5.39,0l26.47,13.92c.82.43,1.75.63,2.68.58,2.82-.17,4.97-2.59,4.8-5.4l-.07-.56-5.06-29.48c-.32-1.88.3-3.8,1.67-5.13l21.44-20.87c.67-.65,1.14-1.46,1.38-2.36.72-2.73-.9-5.53-3.63-6.25l-.58-.12-29.6-4.29c-1.89-.27-3.52-1.46-4.36-3.17l-13.24-26.82Z"/>
  </g>
  <path class="cls-1" d="m518.85,687.07c-19.26,0-34.87-15.6-34.87-34.87v-194.79l-10.22,10.22c-13.62,13.62-35.69,13.62-49.31,0-13.62-13.62-13.62-35.69,0-49.31l69.74-69.74c9.96-10.01,24.91-13.04,38.01-7.56,13.03,5.38,21.52,18.12,21.52,32.22v278.98c0,19.28-15.61,34.87-34.87,34.87Z"/>
  <g>
    <g>
      <path class="cls-4" d="m950.28,293.97c-.14,23.87-11.23,47.19-30.64,66.81-4.46,4.51-6.97,5.68-8.97,3.27,2.06-5.08,1.41-10.22,1.16-12.22-1.43-11.15-4.48-21.9-9.06-31.97-3.23-7.09-6.9-13.65-11-19.69-.8-14.44,3.06-28.46,8.75-42.33,4.62-11.23,10.36-21.97,18.89-30.87,5.37-5.61,8.55-5.53,12.14,1,10.6,19.27,18.37,39.47,18.74,66.01Z"/>
      <g>
        <path class="cls-6" d="m898.44,361.02c-.13.13-.27.26-.43.38-.14.11-.3.21-.47.32-.13.08-.29.16-.44.23-.11.06-.23.11-.35.14-.38.15-.8.25-1.25.33h0s0,0,0,0c-.97.18-2.09.22-3.4.11-.51-.05-1.06-.11-1.62-.19-41.81-6.24-73.03-37.37-81.56-81.31-.63-3.25-1.34-6.48-1.62-9.76-.04-.44-.06-.87-.06-1.28,0-.23.01-.45.02-.67.01-.2.02-.39.06-.58-.01-.04,0-.07.01-.11,0-.04,0-.07.01-.11.01-.17.05-.32.08-.48h0c.08-.41.2-.76.35-1.11.07-.17.16-.33.24-.49h0c.18-.32.38-.61.61-.86.12-.13.25-.25.38-.36.26-.23.56-.42.88-.58.12-.06.25-.11.38-.17.01,0,.01-.01.02-.01.07-.04.17-.06.25-.08.19-.07.38-.12.6-.17.08-.02.17-.04.26-.06.02,0,.05-.01.07-.01h.01c.06-.01.11-.02.17-.02.08-.02.17-.02.26-.04.33-.04.68-.06,1.05-.06.54,0,1.11.04,1.72.12,36.07,7.08,61.8,27.25,77.04,60.75,4.13,9.07,6.8,18.58,8.07,28.48.48,3.7.07,6.19-1.35,7.65Z"/>
        <path class="cls-2" d="m895.86,362.34c.08-.01.17-.04.25-.06.1-.02.19-.05.29-.08-.17.06-.35.11-.54.14Zm-.94.17c-.2.02-.41.04-.62.05-.19.01-.4.03-.61.03.43,0,.85-.03,1.23-.08Zm-1.34.08s.07,0,.1,0c-.27,0-.53,0-.82,0,.25.01.49.01.72.01Z"/>
      </g>
    </g>
    <path class="cls-6" d="m871.83,243.66c-.47,5.44-2.22,7.97-5.82,7.97-1.42,0-3.13-.39-5.17-1.16-39.55-14.89-63.54-51.88-62.63-96.63.06-3.31.06-6.62.47-9.88.06-.49.14-.95.24-1.38.04-.16.07-.32.12-.48.04-.16.08-.3.13-.44.05-.14.1-.29.16-.43.05-.14.11-.27.17-.41.08-.18.17-.36.25-.51.19-.32.38-.61.6-.86h0c.11-.14.23-.26.35-.37.1-.08.18-.17.27-.24.1-.07.19-.14.3-.21.1-.07.19-.13.3-.19.11-.06.23-.12.33-.17.61-.26,1.3-.41,2.09-.41.99,0,2.12.21,3.41.68,33.77,14.5,54.68,39.63,62.55,75.58,2.14,9.74,2.74,19.61,1.9,29.54Z"/>
    <g>
      <path class="cls-4" d="m979.21,438.46c-6.83,22.88-23.99,42.15-48.12,55.55-5.57,3.09-8.29,3.5-9.52.58,2.04-2.61,3.72-6.27,4.52-11.37,1.75-11.1,1.84-22.27.26-33.23-1.11-7.71-2.79-15.04-5.04-21.98h0c3.28-14.09,10.88-26.48,20.24-38.19,7.59-9.49,16.1-18.19,26.78-24.35,6.73-3.89,9.75-2.91,11.37,4.37,4.77,21.46,6.59,43.02-.5,68.61Z"/>
      <path class="cls-6" d="m914.11,481.34c-.05.32-.11.63-.17.93-.05.26-.11.51-.16.76-.05.19-.1.39-.16.58-.04.14-.07.27-.12.42-.07.24-.14.47-.23.69-.07.21-.16.43-.24.63-.18.43-.38.81-.61,1.17-.44.7-.95,1.25-1.55,1.64-.17.11-.35.2-.53.29-.12.06-.24.11-.36.14-.07.02-.14.05-.21.07-.13.04-.25.07-.39.1-.36.08-.75.12-1.16.12-1.52,0-3.37-.53-5.59-1.54-38.38-17.7-59.64-56.32-55.52-100.91.31-3.28.54-6.59,1.18-9.81.05-.27.11-.55.18-.8.1-.38.2-.75.33-1.1.06-.19.14-.37.21-.55.08-.18.17-.35.25-.51.08-.17.17-.32.26-.47.19-.3.39-.57.61-.81.87-.98,2.01-1.49,3.43-1.49,1.1,0,2.36.31,3.81.94,32.64,16.9,51.69,43.48,56.95,79.9,1.42,9.86,1.31,19.74-.24,29.6Z"/>
    </g>
    <g>
      <path class="cls-4" d="m968.79,583.61c-11.3,21.04-32.02,36.45-58.35,44.69-6.07,1.9-8.83,1.75-9.46-1.35,2.51-2.12,4.91-5.36,6.74-10.22,3.96-10.53,6.3-21.45,6.97-32.49.47-7.78.3-15.31-.5-22.58,6.06-13.13,16.02-23.71,27.54-33.29,9.34-7.77,19.44-14.56,31.15-18.44,7.38-2.45,10.14-.88,10.26,6.58.33,21.98-2.26,43.46-14.36,67.08Z"/>
      <g>
        <path class="cls-6" d="m902.58,583.51c-.61,9.95-2.7,19.61-6.22,28.94-.2.54-.41,1.04-.62,1.5-.21.47-.43.9-.64,1.29-.56.99-1.16,1.78-1.8,2.35-.26.23-.53.42-.8.58h-.01c-.27.17-.56.3-.85.39-.14.05-.3.08-.45.12-.16.04-.31.06-.47.07s-.31.02-.48.02c-1.75,0-3.82-.93-6.3-2.77-34.01-25.09-47.03-67.2-33.99-110.03.95-3.15,1.85-6.35,3.13-9.37.39-.94.84-1.74,1.32-2.41.2-.27.41-.53.62-.73.11-.12.21-.21.32-.31.23-.21.44-.38.68-.53.12-.07.24-.14.36-.2.48-.25,1-.41,1.55-.45.13-.01.27-.02.42-.02,1.35,0,2.88.58,4.59,1.8,28.55,23.14,41.84,53.02,39.63,89.75Z"/>
        <path class="cls-2" d="m855.35,493.17c.21-.19.44-.37.68-.53-.24.14-.45.31-.68.53Z"/>
      </g>
    </g>
    <g>
      <path class="cls-4" d="m953.97,654.83c-4.83,21.45-12.4,41.72-29.73,61.83-15.93,17.78-39.68,27.89-67.21,29.72-6.35.42-8.99-.37-8.88-3.52,3.29-1.65,6.28-4.44,8.95-8.37,6.33-9.28,11.17-19.36,14.42-29.93,2.28-7.45,3.89-14.79,4.81-22.03h0c8.97-11.35,21.15-19.3,34.61-25.91,10.91-5.35,22.33-9.57,34.61-10.6,7.75-.64,10.07,1.53,8.43,8.81Z"/>
      <path class="cls-6" d="m859.91,701.01c-2.91,9.52-7.23,18.41-12.84,26.66-.55.8-1.09,1.52-1.62,2.12-.26.3-.54.57-.8.84-.26.25-.53.48-.79.68-.26.19-.53.37-.79.53-.23.13-.47.24-.69.33h-.01c-.17.07-.32.13-.49.18-.1.04-.2.06-.3.07-.1.02-.2.04-.3.05-.2.04-.39.05-.6.05-.17,0-.33-.01-.51-.04-.2-.02-.41-.06-.62-.12h-.01c-.2-.05-.41-.12-.61-.2-.18-.07-.37-.16-.56-.25-.27-.13-.54-.3-.81-.48-.1-.07-.19-.13-.3-.2-.11-.08-.2-.16-.31-.24-.2-.16-.42-.32-.62-.51-.2-.19-.42-.38-.63-.6-.21-.2-.43-.43-.66-.67-.29-.31-.58-.64-.88-1-27.16-32.38-29.91-76.37-7.16-114.93,1.67-2.84,3.29-5.74,5.25-8.38.38-.53.78-.98,1.17-1.38.13-.13.26-.26.39-.38.2-.19.42-.37.63-.54.21-.17.44-.31.66-.43.11-.07.23-.13.33-.18.11-.06.21-.11.32-.14.12-.05.23-.08.33-.12.23-.08.44-.13.67-.17.23-.05.45-.06.68-.06.3,0,.61.02.92.1.1.02.2.05.31.08.06.02.13.04.19.06.06.01.13.04.19.07.16.05.31.11.45.19.07.02.13.06.2.11.18.08.36.19.54.31.21.14.44.3.67.49.1.06.19.14.29.24.21.18.43.38.64.6.11.11.21.23.33.35.11.11.21.24.32.36,22.31,29.22,28.2,61.38,17.41,96.56Z"/>
    </g>
    <g>
      <path class="cls-4" d="m885.81,786.16c-10.9,19.1-24.05,36.28-46.5,50.46-20.43,12.35-46.1,15.07-72.97,8.78-6.18-1.46-8.47-2.97-7.47-5.96,3.64-.6,7.27-2.37,11.02-5.39,8.76-7.04,16.34-15.25,22.53-24.42,4.37-6.46,8.04-13.03,11.06-19.69,11.9-8.21,25.85-12.26,40.65-14.63,11.99-1.93,24.14-2.65,36.2-.04,7.59,1.65,9.18,4.4,5.48,10.88Z"/>
      <g>
        <path class="cls-6" d="m782.37,802.84c-5.57,8.26-12.3,15.5-20.07,21.76-2.43,1.96-4.48,2.95-6.24,2.95-1.27,0-2.39-.51-3.43-1.54-.25-.26-.5-.55-.75-.87-.32-.43-.64-.92-.94-1.46-.39-.68-.78-1.47-1.15-2.34-16.52-38.91-6.3-81.79,26.72-112.02,2.43-2.23,4.82-4.52,7.47-6.48,1.69-1.25,3.27-1.92,4.7-1.92.53,0,1.03.08,1.5.27.2.07.39.16.58.27.1.05.18.1.27.17.18.11.35.23.53.38.12.1.23.19.32.3.23.21.43.44.62.69.31.38.6.82.87,1.32.19.33.37.69.54,1.07,12.79,34.45,9.05,66.93-11.55,97.43Z"/>
        <path class="cls-2" d="m792.51,703.01c.3.39.6.84.87,1.32-.27-.5-.56-.94-.87-1.32Z"/>
      </g>
    </g>
    <path class="cls-6" d="m724.55,785.66c-3.88,36.55-21.7,63.95-53.73,82.1-8.66,4.9-17.91,8.4-27.64,10.53-1.46.32-2.72.49-3.83.49-1.82,0-3.2-.44-4.15-1.38-.29-.27-.53-.56-.73-.92-.22-.34-.39-.73-.56-1.14-.46-1.41-.63-3.23-.49-5.53,2.52-42.18,30.77-76.01,73.8-88.39,3.18-.92,6.33-1.89,9.56-2.48.8-.15,1.53-.22,2.21-.22,3.74,0,5.78,2.16,5.56,6.94Z"/>
    <path class="cls-6" d="m770.87,898.88c-18.25,12.26-37.69,21.79-64.1,24.49-19.24,1.6-38.77-4.01-56.78-15.54-13.78-6.53-33.32-5.92-46.94-3.53-4.71.82-12.89,2.67-20.5,4.48-.06-3.32-.33-6.58-.86-9.79,8.87-1.91,18.88-3.96,24.11-4.71,6.01-.88,15.36-1.71,23.76-2.34.29-.02.55-.05.85-.07.75-.05,1.46-.12,2.14-.17,4.2-.33,7.4-.68,9.14-.9.95-.1,1.46-.17,1.46-.17.84-.1,1.71-.27,2.63-.47,10.97-2.4,21.41-6.41,31.04-11.84,6.77-3.84,13.01-8.09,18.67-12.7,14.32-2.06,28.61.54,42.9,4.98,11.6,3.62,22.82,8.4,32.43,16.09,6.06,4.86,6.27,8.03.07,12.18Z"/>
  </g>
  <g>
    <g>
      <path class="cls-4" d="m132.23,300.17c-4.11,6.04-7.77,12.6-11,19.69-4.58,10.07-7.63,20.83-9.06,31.97-.25,2-.91,7.14,1.16,12.22-2,2.41-4.51,1.24-8.97-3.27-19.41-19.62-30.49-42.94-30.64-66.81.36-26.54,8.14-46.74,18.74-66.01,3.59-6.53,6.77-6.61,12.14-1,8.53,8.9,14.27,19.64,18.89,30.87,5.69,13.87,9.55,27.89,8.75,42.33Z"/>
      <g>
        <path class="cls-6" d="m216.7,271.27c-.3,3.28-1,6.52-1.62,9.76-8.53,43.94-39.75,75.07-81.56,81.31-.57.08-1.11.14-1.62.19-1.31.11-2.43.07-3.4-.11h0c-.45-.08-.87-.19-1.25-.33-.12-.05-.24-.08-.35-.14-.16-.07-.3-.14-.44-.23-.25-.16-.48-.32-.69-.53,0,0-.01,0-.01-.01-.07-.04-.13-.1-.18-.16-.04-.04-.07-.07-.1-.11-.07-.07-.14-.16-.2-.24-.07-.07-.12-.14-.17-.23-.07-.1-.14-.2-.2-.31-.21-.37-.39-.78-.53-1.23-.04-.13-.07-.26-.1-.41-.02-.08-.05-.17-.06-.26,0-.01-.01-.02-.01-.04-.04-.16-.06-.32-.08-.49-.17-1.21-.13-2.65.08-4.36,1.26-9.89,3.93-19.41,8.06-28.48,15.25-33.5,40.98-53.67,77.05-60.75.61-.08,1.18-.12,1.72-.12.37,0,.72.02,1.05.06.08.01.18.01.26.04.06,0,.11.01.17.02h.01s.05.01.07.01c.1.02.18.04.26.06.21.05.41.1.6.17.08.02.18.05.25.08.01,0,.01.01.02.01.13.06.26.11.38.17.32.17.62.36.88.58.08.06.16.13.21.2.07.06.13.13.2.2.12.13.24.29.33.44.02.02.04.05.05.07l.02.02c.05.07.1.14.13.23.01,0,.01.01.01.01.02.02.04.06.05.08.06.1.11.2.16.31.01.01.01.02.01.05.05.07.07.14.1.23,0,.01.01.02.01.04.01.01.01.02.01.04.05.11.1.21.12.32,0,.01.01.02.01.04.06.17.1.33.14.51,0,.04.01.07.01.11.04.16.06.31.08.48.01.08.02.16.02.23.02.16.04.32.05.49.04.61.02,1.25-.04,1.95Z"/>
        <path class="cls-2" d="m129.7,362.56c-.21-.01-.42-.02-.62-.05.19.02.39.05.6.06.11,0,.21.01.32.01-.11-.01-.2-.02-.3-.02Zm-2.09-.36c-.13-.04-.25-.07-.37-.11.16.06.32.12.49.16.04.01.07.02.11.04h.05c-.1-.02-.19-.05-.27-.08Z"/>
      </g>
    </g>
    <path class="cls-6" d="m163.16,250.47c-2.04.76-3.75,1.16-5.18,1.16h-.14c-.07,0-.14,0-.21-.01h-.05c-.11,0-.2-.01-.31-.02-.02,0-.05,0-.07-.01h-.05c-.12-.02-.25-.04-.37-.06-.05-.01-.1-.02-.14-.04-.16-.04-.31-.07-.45-.12-.04-.01-.07-.04-.11-.05-.01,0-.02,0-.04-.01h-.02c-.06-.02-.11-.04-.16-.06-.01-.01-.02-.01-.04-.02-.13-.04-.25-.1-.36-.17-.07-.02-.13-.06-.19-.1-.01-.01-.02-.01-.04-.02-.1-.05-.17-.1-.24-.16,0-.01-.01-.01-.01-.01-.08-.05-.17-.11-.24-.18-.14-.11-.27-.24-.41-.37-.14-.14-.27-.31-.39-.48-.02-.04-.05-.06-.07-.1-.11-.16-.21-.31-.31-.49-.21-.37-.41-.79-.57-1.24-.08-.23-.16-.47-.23-.72-.29-1-.48-2.18-.6-3.54-.85-9.93-.24-19.8,1.9-29.54,7.85-35.95,28.77-61.08,62.55-75.58,1.28-.47,2.42-.68,3.41-.68,3.12,0,4.81,2.2,5.3,6.1.41,3.26.41,6.58.47,9.88.9,44.75-23.08,81.74-62.63,96.63Z"/>
    <g>
      <path class="cls-4" d="m97.91,483.23c.8,5.11,2.48,8.76,4.52,11.37-1.24,2.91-3.96,2.51-9.54-.58-24.12-13.4-41.29-32.68-48.11-55.55-7.09-25.59-5.28-47.15-.5-68.61,1.61-7.28,4.64-8.26,11.37-4.37,10.68,6.16,19.19,14.86,26.78,24.35,9.34,11.72,16.96,24.1,20.24,38.19-2.24,6.95-3.93,14.27-5.04,21.98-1.58,10.96-1.49,22.13.26,33.23Z"/>
      <path class="cls-6" d="m121.35,487.35c-2.22,1.01-4.07,1.54-5.6,1.54-.45,0-.88-.05-1.29-.16-.13-.02-.26-.06-.39-.11-.35-.11-.66-.26-.95-.45-1.65-1.06-2.66-3.29-3.22-6.83-1.55-9.86-1.66-19.74-.24-29.6,5.26-36.42,24.31-63,56.95-79.9,1.44-.63,2.71-.94,3.81-.94,2.48,0,4.11,1.58,4.95,4.43.12.41.23.84.32,1.3.64,3.22.87,6.53,1.18,9.81,4.12,44.59-17.15,83.21-55.52,100.91Z"/>
    </g>
    <g>
      <path class="cls-4" d="m123.02,626.95c-.63,3.1-3.39,3.25-9.46,1.35-26.33-8.25-47.05-23.65-58.35-44.69-12.1-23.62-14.69-45.1-14.36-67.08.12-7.46,2.89-9.02,10.26-6.58,11.71,3.88,21.8,10.67,31.15,18.44,11.53,9.57,21.48,20.16,27.54,33.29-.8,7.27-.97,14.8-.5,22.58.67,11.04,3.01,21.96,6.97,32.49,1.84,4.86,4.24,8.09,6.74,10.22Z"/>
      <path class="cls-6" d="m140.06,616.02c-2.48,1.84-4.55,2.77-6.3,2.77-.17,0-.32-.01-.48-.02s-.31-.04-.47-.07c-.16-.04-.31-.07-.45-.12-.3-.1-.57-.23-.86-.39-.27-.17-.54-.36-.8-.58-.44-.39-.86-.88-1.25-1.47-.01-.01-.01-.02-.02-.04,0,0,0-.01-.01-.01-.07-.13-.16-.24-.24-.37-.1-.16-.19-.31-.27-.47-.44-.8-.87-1.73-1.27-2.79-3.52-9.33-5.62-18.99-6.22-28.94-2.21-36.72,11.09-66.61,39.63-89.75,1.72-1.22,3.25-1.8,4.59-1.8h.04s.07,0,.11.01c.05,0,.11,0,.17.01.05-.01.1,0,.16.01.1,0,.18.01.26.02.04.01.07.01.11.02.13.02.26.06.38.1.16.05.31.1.47.17.1.04.19.07.27.13.13.06.25.13.36.2.05.02.11.06.16.1.02.01.04.02.06.05.07.06.16.12.24.18.08.06.17.13.24.2.11.1.22.2.32.31.22.21.42.47.61.73.1.13.19.27.29.42.19.29.37.6.55.93.17.33.33.69.5,1.06,1.28,3.02,2.17,6.22,3.13,9.37,13.04,42.83.02,84.95-33.99,110.03Z"/>
    </g>
    <g>
      <path class="cls-4" d="m175.85,742.86c.11,3.15-2.54,3.94-8.88,3.52-27.53-1.83-51.28-11.93-67.21-29.72-17.33-20.11-24.89-40.39-29.73-61.83-1.65-7.28.68-9.45,8.41-8.81,12.29,1.03,23.7,5.25,34.61,10.6,13.46,6.6,25.64,14.55,34.61,25.89.93,7.24,2.54,14.6,4.82,22.05,3.25,10.57,8.09,20.63,14.42,29.93,2.67,3.93,5.67,6.73,8.95,8.37Z"/>
      <path class="cls-6" d="m189.85,728.21c-.3.36-.6.69-.88,1-.29.31-.57.6-.86.88-.14.13-.29.26-.43.38-.21.19-.42.36-.62.51-.11.08-.2.16-.3.23-.11.07-.21.14-.32.21-.26.19-.54.35-.8.48-.19.1-.38.18-.56.25-.11.05-.22.08-.32.11-.01.01-.04.01-.05.02-.08.04-.16.05-.24.07-.14.04-.29.06-.42.08-.08.02-.17.04-.24.04-.08.01-.17.02-.24.02-.07.01-.14.01-.23.01h-.02c-.2,0-.41-.01-.61-.05-.17-.02-.33-.05-.49-.1-.18-.05-.37-.11-.55-.18-.19-.07-.38-.17-.57-.27-.18-.08-.35-.19-.51-.3-.02-.01-.04-.02-.06-.04-.18-.12-.35-.25-.51-.38-.17-.14-.33-.29-.51-.44-.18-.17-.37-.35-.55-.54-.17-.18-.33-.36-.5-.55-.17-.19-.33-.39-.5-.61-.17-.21-.35-.44-.51-.67-.17-.24-.33-.48-.51-.73-5.6-8.25-9.92-17.14-12.84-26.66-10.79-35.18-4.89-67.35,17.41-96.56.21-.25.44-.49.66-.7.32-.32.66-.62.97-.87.17-.12.32-.24.49-.35.16-.11.31-.2.47-.3h.01c.2-.12.42-.23.62-.32h.01c.2-.08.41-.17.61-.23h.01c.2-.06.41-.11.61-.13h.01c.2-.04.39-.05.6-.05h.01c.11,0,.23,0,.33.01.11.01.22.02.33.05.16.02.31.05.47.1.07.02.14.04.2.07.12.04.23.07.33.12.1.04.2.08.31.13.33.17.67.37,1,.62.21.17.43.35.64.54.13.12.26.25.39.38.39.41.79.86,1.17,1.38,1.96,2.64,3.58,5.54,5.25,8.38,22.75,38.56,20,82.55-7.16,114.93Z"/>
    </g>
    <g>
      <path class="cls-4" d="m257.64,845.4c-26.85,6.29-52.54,3.57-72.97-8.78-22.44-14.18-35.59-31.36-46.48-50.46-3.7-6.48-2.11-9.24,5.48-10.88,12.05-2.61,24.2-1.9,36.2.04,14.8,2.37,28.75,6.42,40.65,14.63,3.02,6.66,6.7,13.24,11.06,19.69,6.19,9.17,13.77,17.38,22.53,24.42,3.75,3.02,7.36,4.8,11.02,5.39,1,2.98-1.3,4.5-7.48,5.96Z"/>
      <path class="cls-6" d="m274.21,821.34c-1.77,4.17-3.74,6.21-6.27,6.21-1.77,0-3.81-.99-6.24-2.95-7.78-6.25-14.5-13.5-20.07-21.76-20.6-30.5-24.35-62.98-11.55-97.43.06-.12.12-.25.18-.37.05-.13.12-.25.18-.36.14-.29.3-.56.45-.82.1-.16.19-.3.3-.44.1-.14.19-.27.3-.41.05-.07.11-.14.16-.2.16-.19.31-.35.47-.49.11-.11.21-.2.32-.3.21-.19.44-.35.68-.49.23-.13.47-.25.7-.33.48-.19.98-.27,1.5-.27,1.43,0,3.01.67,4.7,1.92,2.64,1.96,5.04,4.25,7.47,6.48,33.01,30.23,43.24,73.11,26.72,112.02Z"/>
    </g>
    <path class="cls-6" d="m299.45,785.66c3.88,36.55,21.7,63.95,53.73,82.1,8.66,4.9,17.91,8.4,27.64,10.53,1.46.32,2.72.49,3.83.49,1.82,0,3.2-.44,4.15-1.38.29-.27.53-.56.73-.92.22-.34.39-.73.56-1.14.46-1.41.63-3.23.49-5.53-2.52-42.18-30.77-76.01-73.8-88.39-3.18-.92-6.33-1.89-9.56-2.48-.8-.15-1.53-.22-2.21-.22-3.74,0-5.78,2.16-5.56,6.94Z"/>
    <path class="cls-6" d="m418.2,894.27c5.22.75,15.24,2.8,24.11,4.71-.53,3.21-.8,6.47-.86,9.79-7.63-1.8-15.8-3.65-20.5-4.48-13.62-2.39-33.15-3-46.94,3.53-18.01,11.53-37.55,17.14-56.8,15.54-26.4-2.7-45.84-12.23-64.09-24.49-6.19-4.15-6-7.33.07-12.18,9.61-7.69,20.83-12.47,32.43-16.09,14.29-4.44,28.58-7.04,42.9-4.98,5.66,4.61,11.89,8.86,18.67,12.7,9.63,5.43,20.07,9.44,31.04,11.84.92.19,1.79.37,2.61.47,0,0,.51.07,1.46.17,1.75.21,4.95.56,9.15.9.68.05,1.38.12,2.14.17.29.02.56.05.85.07,8.4.63,17.75,1.46,23.76,2.34Z"/>
  </g>
  <g>
    <path class="cls-5" d="m539.76,862.18l-25.22,37.33,24.78.32-48.34,61.64,19.33-49.71-24.54-.06,27.99-56.87s7.33.2,13.64,1.98c6.29,1.77,12.36,5.38,12.36,5.38h0Z"/>
    <path class="cls-5" d="m567.41,910.2c0,.75-.01,1.49-.04,2.23-.26,6.59-1.65,12.9-4.17,18.92-2.79,6.7-6.8,12.69-12.02,17.96-5.28,5.28-11.28,9.31-18.01,12.1-6.72,2.8-13.78,4.2-21.18,4.2-2.61,0-5.18-.18-7.7-.54-2.21-.3-4.38-.73-6.53-1.3l13.66-17.5c.19.01.38.01.57.01,6.67,0,12.73-1.63,18.19-4.89,5.45-3.26,9.82-7.61,13.08-13.07,3.26-5.47,4.88-11.5,4.88-18.12s-1.62-12.75-4.88-18.2c-2.36-3.96-5.31-7.34-8.83-10.14l10.8-15.98h0c.2.14.41.3.6.45,1.85,1.43,3.64,3,5.35,4.68,5.23,5.28,9.23,11.28,12.02,18.01,1.78,4.26,3,8.68,3.64,13.21.38,2.61.56,5.26.56,7.96Z"/>
    <path class="cls-5" d="m506.27,855.1l-11.48,23.32c-.3.17-.61.33-.91.51-5.45,3.26-9.81,7.63-13.07,13.08-3.26,5.45-4.89,11.52-4.89,18.19s1.63,12.66,4.89,18.13c2.98,5,6.9,9.08,11.73,12.23l-6.84,18.39c-.62-.33-1.23-.69-1.84-1.06-3.95-2.35-7.6-5.2-10.97-8.58-5.29-5.27-9.32-11.27-12.11-17.96-2.51-6.01-3.89-12.33-4.15-18.92-.02-.74-.04-1.48-.04-2.23,0-2.7.18-5.35.56-7.96.64-4.54,1.85-8.95,3.63-13.21,2.8-6.73,6.84-12.73,12.11-18.01,5.27-5.23,11.25-9.23,17.96-12.02,1.79-.74,3.59-1.4,5.43-1.93,3.25-.97,6.56-1.62,9.98-1.97Z"/>
  </g>
</svg>