<svg width="385" height="283" viewBox="0 0 385 283" fill="none" xmlns="http://www.w3.org/2000/svg">
<path d="M238.5 131C220 146.5 211.5 173.664 211.5 189C211.5 243 252.5 274.5 293.5 274.5C339.063 274.5 376.5 238.587 376.5 191C376.5 170.964 367.983 153.135 357 138.5" stroke="#0284C7" stroke-width="17"/>
<circle cx="91" cy="91" r="82.5" transform="matrix(1 0 0 -1 101 182)" stroke="#0B5374" stroke-width="17"/>
<circle cx="91" cy="91" r="82.5" transform="matrix(1 0 0 -1 0 283)" stroke="#0369A1" stroke-width="17"/>
<path d="M172.871 41H215L151.153 122.5H188.653L70.9999 253L145.022 140.874H105.653L172.871 41Z" fill="#FAB759"/>
<path d="M130.495 146.104C146.465 163.593 169.464 173.5 192 173.5C233 173.5 274.5 141.258 274.5 91" stroke="#0B5374" stroke-width="17"/>
<path d="M232 137.5C250 118.5 270.003 109.898 293.5 109.5C323 109 348 126.5 357 138.5" stroke="#0284C7" stroke-width="17"/>
</svg>
