<?xml version="1.0" encoding="UTF-8"?>
<svg id="Mobile" xmlns="http://www.w3.org/2000/svg" viewBox="0 0 1022 1025.06">
  <defs>
    <style>
      .cls-1 {
        fill: #060606;
      }

      .cls-1, .cls-2, .cls-3 {
        stroke-width: 0px;
      }

      .cls-2 {
        fill: #b9c9cf;
      }

      .cls-3 {
        fill: #ede3d4;
      }
    </style>
  </defs>
  <g>
    <path class="cls-3" d="m1021.63,239.81c.06,11.98.17,23.97.17,35.95.02,169.32.08,338.63-.15,507.95,0,7.29.66,14.57.18,21.86-.92,14.02.34,28.03.06,42.05-.28,14.15-.06,28.3-.06,42.45s0,28.64,0,42.95c0,14.15,0,28.3,0,42.45,0,14.32,0,28.64,0,42.95q0,6.82-6.6,6.82c-190.74,0-381.48,0-572.22,0-20.91,0-41.81,0-62.72,0-126.76,0-253.53,0-380.29,0v-315.72c1.38.16,2.6-.33,3.83-.9,28.14-12.92,56.33-25.72,84.4-38.78,21.62-10.06,43.18-20.25,64.92-30.07,34.06-15.39,67.8-31.47,101.7-47.21,39.94-18.54,80.05-36.71,119.81-55.62,25.35-12.06,50.99-23.51,76.11-36.1,19.12-9.58,39.08-17.42,58.34-26.79,17.62-8.57,35.52-16.56,53.28-24.83,20.63-9.61,41.2-19.34,61.86-28.86,31.07-14.31,62.23-28.41,93.29-42.74,17.81-8.22,35.44-16.82,53.24-25.04,31.97-14.78,64-29.43,96.03-44.08,14.2-6.5,28.42-12.94,42.69-19.29,25.34-11.27,50.71-22.47,76.09-33.66,12-5.29,24.03-10.49,36.05-15.73Z"/>
    <path class="cls-2" d="m1021.63,239.81c-12.02,5.24-24.06,10.44-36.05,15.73-25.38,11.19-50.75,22.39-76.09,33.66-14.27,6.35-28.49,12.79-42.69,19.29-32.03,14.65-64.06,29.3-96.03,44.08-17.8,8.23-35.43,16.83-53.24,25.04-31.06,14.33-62.22,28.43-93.29,42.74-20.67,9.52-41.24,19.25-61.86,28.86-17.76,8.27-35.66,16.26-53.28,24.83-19.26,9.36-39.23,17.21-58.34,26.79-25.12,12.58-50.75,24.04-76.11,36.1-39.76,18.91-79.87,37.09-119.81,55.62-33.9,15.73-67.64,31.82-101.7,47.21-21.74,9.82-43.3,20.01-64.92,30.07-28.07,13.07-56.27,25.86-84.4,38.78-1.23.56-2.44,1.05-3.83.9v-59.95c4.9-3.69,8.67-8.52,12.93-12.85,9.07-9.22,16.98-19.55,27-27.86,3.67-3.04,7.6-6.16,10.17-10.06,6.64-10.12,12.59-20.69,18.79-31.1.79-1.32,1.76-2.29,3.18-3.01,6.36-3.22,12.9-6.04,19.6-8.45,12.18-4.38,22.61-11.31,29.91-22,8.89-13.03,16.74-26.74,23.5-41.03.62-1.31.39-2.47.2-3.82-1.08-7.73-3.34-15.19-5.04-22.77-3.35-14.89-7.83-29.46-12.57-43.96-.71-2.15-1.23-3.96.61-5.95,5.63-6.09,11.03-12.39,16.63-18.51,9.33-10.17,17.43-21.3,25.37-32.55,1.29-1.83,1.79-3.5-.28-5.17-6.69-5.38-6.67-13.19-7.09-20.68-.14-2.41-1.57-4.67-.47-7.29,3.46-8.27,6.68-16.63,10.02-24.95,3.83-9.53,8.36-18.77,11.38-28.62,3.02-.03,6.1,1.5,7.76,3.01,13.91,12.61,25.65,22.41,40.2,34.27,9.52,7.77,19.24,15.29,28.88,22.91,1.48,1.17,3.14,1.85,5.04,1.93,6.56,3.74,11.26,9.69,16.99,14.43,21.61,17.88,45.62,31.28,72.07,40.51,19.26,6.72,38.34,13.96,57.65,20.55,13.17,4.5,26.62,8.18,39.88,12.44,2.56.82,3.83.24,5.34-1.77,2.99-3.97,6.18-7.8,9.47-11.52,11.09-12.57,22.19-25.13,33.41-37.58,4.88-5.41,8.35-11.42,10.17-18.53,2.71-10.6,6.39-20.98,8.56-31.68,2.89-14.28,10.67-24.19,23.43-30.72,9.76-4.99,19.47-10.11,29.01-15.52,5.13-2.91,10.93-5.34,13.42-11.39,7.65-18.54,18.26-35.41,29.32-52.02,1.12-1.68,2.43-3.45,1.79-5.51-1.8-5.82-2.55-12.03-6.69-16.98-6.93-8.28-13.32-16.98-19.04-26.14-4.34-6.96-9.47-12.84-17.59-15.27-2.87-.86-2.72-2.27-1.51-4.39,3.71-6.49,7.23-13.08,11.07-19.49,8.22-13.74,18.06-26.21,29.99-36.94,2.07-1.86,2.64-3.61,1.94-6.47-1.96-7.93-4.76-15.55-7.87-23.05-.65-1.56-.76-2.7-.25-4.17,1.69-4.85,3.48-9.68,4.96-14.6,3.67-12.21,7.6-24.37,9.07-37.12,2.22-.31,3.86.32,5.2,1.54,4.42,4.01,7.73,6.36,12.09,10.42,11.15,10.39,22.32,20.78,33.44,31.2,3.86,3.62,8.53,5.98,13.46,7.24,5.99,1.53,9.58,5.71,13.22,9.94,13,15.1,27.18,29.03,41.86,42.45.7.64,1.72.91,2.59,1.35.46.46.85,1.09,1.41,1.37,27.72,13.7,56.81,24.07,85.5,35.43,19.72,7.81,40.82,11.74,59.69,21.81.8.43,1.75,1.36,2.69.47.88-.84.19-1.85-.15-2.77-3.05-8.27-5.02-16.85-6.95-25.41-.73-3.24-1.92-5.89-4.02-8.31-4.35-5.01-8.62-10.08-13.01-15.06-1.68-1.91-2.22-3.73-1.37-6.32,1.45-4.4,2.23-9.02,3.63-13.43.97-3.06-.23-4.69-2.71-6.06-5.38-2.96-10.63-6.18-16.11-8.94-2.78-1.4-2.57-2.8-1.23-5,8.19-13.46,15.26-27.61,24.92-40.17,1.49-1.93,3.08-3.91,3.54-6.5,1.98-11.07,4.02-22.12,6.03-33.18,3.99,1.98,6.48,5.6,8.86,9.01,9.79,14.05,21.41,26.11,36.14,35.04,4.95,3,7.97,7.99,11.65,12.22,8.2,9.43,18.08,16.7,28.91,22.61,5.93,3.24,8.06,9.15,11.51,14.04,12.55,17.77,25.55,35.19,38.81,52.41,1.17,1.52,1.96,2.93,1.96,4.91-.1,29.79-.15,59.57-.21,89.36Z"/>
    <path class="cls-3" d="m183.83,278.95c-3.02,9.85-7.55,19.09-11.38,28.62-3.34,8.32-6.56,16.68-10.02,24.95-1.1,2.63.33,4.88.47,7.29.42,7.49.41,15.29,7.09,20.68,2.07,1.67,1.57,3.35.28,5.17-7.94,11.25-16.04,22.37-25.37,32.55-5.61,6.11-11.01,12.41-16.63,18.51-1.84,1.99-1.31,3.8-.61,5.95,4.74,14.49,9.22,29.07,12.57,43.96,1.71,7.58,3.97,15.04,5.04,22.77.19,1.36.41,2.52-.2,3.82-6.77,14.29-14.61,28-23.5,41.03-7.3,10.7-17.73,17.63-29.91,22-6.7,2.41-13.24,5.22-19.6,8.45-1.42.72-2.39,1.68-3.18,3.01-6.2,10.41-12.15,20.98-18.79,31.1-2.56,3.9-6.5,7.02-10.17,10.06-10.02,8.31-17.93,18.64-27,27.86-4.26,4.33-8.03,9.16-12.93,12.85v-231.8c2.57.42,3.94-1.4,5.43-2.94,16.78-17.29,35.67-32.21,53.62-48.18,10.79-9.6,23.3-15.08,35.94-20.73,7.73-3.46,14.1-8.57,20.35-14.01,10.49-9.14,20.54-18.85,31.55-27.31,10.86-8.34,21.64-16.92,33.43-24.01,1.12-.67,2.09-1.56,3.52-1.65Z"/>
    <path class="cls-3" d="m620.27,8.14c-1.47,12.75-5.39,24.91-9.07,37.12-1.48,4.92-3.26,9.74-4.96,14.6-.51,1.46-.4,2.6.25,4.17,3.1,7.51,5.91,15.12,7.87,23.05.71,2.86.13,4.61-1.94,6.47-11.93,10.74-21.76,23.21-29.99,36.94-3.84,6.41-7.36,13.01-11.07,19.49-1.21,2.12-1.36,3.53,1.51,4.39,8.12,2.43,13.25,8.31,17.59,15.27,5.71,9.16,12.11,17.86,19.04,26.14,4.14,4.95,4.89,11.17,6.69,16.98.64,2.07-.67,3.83-1.79,5.51-11.06,16.61-21.67,33.47-29.32,52.02-2.49,6.04-8.29,8.48-13.42,11.39-9.54,5.41-19.25,10.53-29.01,15.52-12.76,6.53-20.55,16.44-23.43,30.72-2.16,10.7-5.85,21.08-8.56,31.68-1.82,7.11-5.29,13.12-10.17,18.53-11.22,12.45-22.33,25.01-33.41,37.58-3.29,3.73-6.48,7.56-9.47,11.52-1.51,2.01-2.77,2.59-5.34,1.77-13.26-4.26-26.71-7.94-39.88-12.44-19.31-6.59-38.39-13.83-57.65-20.55-26.45-9.22-50.46-22.63-72.07-40.51-5.73-4.74-10.43-10.69-16.99-14.43,3.43-4.24,6.21-8.11,9.91-11.45,12.92-11.7,25.48-23.75,37.86-36,19.2-19.02,38.48-37.96,57.83-56.84,6.77-6.61,14.62-12.02,22.47-17.14,13.03-8.49,23.34-19.51,32.22-31.94,6.72-9.41,14.9-17.74,20.71-27.83.27-.47,1.1-.62,1.67-.93,1.27,21.18-5.53,40.72-12.31,60.59,1.52-.49,1.97-1.62,2.74-2.47,9.16-9.98,16.96-21.23,27.7-29.75,1.87-1.48,2.76-3.37,3.14-5.91.73-4.89,2.3-9.64,3.26-14.5,1.35-6.83,5.1-12.97,5.55-20.04,10.21-8.31,18.02-19.02,27.65-27.88,6.46-5.95,10.51-13.61,15.63-20.51,4.33-5.84,8.56-11.77,12.79-17.69.73-1.02,1.97-2.2,2.54-2.71,1.32,7.62,1.83,16.47,5.9,23.44.66,1.13.42,2.93.25,4.38-1.76,15.16-3.59,30.31-5.41,45.46,9.39-26.64,14.68-54.19,19.46-81.86,1.95-4.1,6.18-5.88,9.13-8.96,6.08-6.34,11.75-13.11,18.21-19.03,9.9-9.08,18.86-19.06,28.37-28.5,2.11-2.1,4.26-4.17,7.3-4.88Z"/>
    <path class="cls-3" d="m884.01.21c-2.02,11.06-4.05,22.12-6.03,33.18-.46,2.59-2.06,4.57-3.54,6.5-9.67,12.56-16.74,26.71-24.92,40.17-1.34,2.2-1.54,3.6,1.23,5,5.48,2.76,10.73,5.97,16.11,8.94,2.48,1.37,3.68,3,2.71,6.06-1.4,4.42-2.18,9.03-3.63,13.43-.85,2.59-.31,4.41,1.37,6.32,4.38,4.98,8.66,10.05,13.01,15.06,2.1,2.42,3.28,5.07,4.02,8.31,1.94,8.56,3.9,17.14,6.95,25.41.34.91,1.03,1.93.15,2.77-.93.88-1.88-.04-2.69-.47-18.87-10.07-39.97-14-59.69-21.81-28.7-11.36-57.78-21.73-85.5-35.43-.56-.28-.94-.91-1.41-1.37,3.52-4.62,8.96-6.71,13.56-9.74,20.29-13.36,40.49-26.85,60.6-40.48,6.94-4.7,12.42-10.96,18.52-16.5,15.46-14.04,30.34-28.73,45.45-43.17,1.07-1.02,1.99-2.29,3.73-2.19Z"/>
    <path class="cls-2" d="m478.45,146.88c-.45,7.06-4.2,13.21-5.55,20.04-.96,4.86-2.53,9.62-3.26,14.5-.38,2.54-1.27,4.42-3.14,5.91-10.74,8.51-18.53,19.77-27.7,29.75-.77.84-1.22,1.98-2.74,2.47,6.79-19.87,13.58-39.41,12.31-60.59.43-1.97,2.12-2.3,3.66-2.84,8.8-3.08,17.61-6.16,26.41-9.24Z"/>
    <path class="cls-2" d="m557.26,69.51c-4.78,27.67-10.07,55.22-19.46,81.86,1.81-15.15,3.65-30.3,5.41-45.46.17-1.45.41-3.25-.25-4.38-4.07-6.98-4.58-15.82-5.9-23.44,1.11-1.16,1.26-1.53,2.61-1.95,5.99-1.88,15.15-4.21,17.59-6.63Z"/>
  </g>
  <g>
    <path class="cls-1" d="m447.22,837.31c5.12,2.08,10.29,4.01,15.61,5.53,5.38,2.37,11.04,3.97,16.52,6.06.68.26.72-.14,1.07-.54,1.13-1.27,2.46-.9,2.79.77.14.7.1,1.33.97,1.57.31.09.67.41.46.86-.16.35-.46.68-.88.44-.64-.36-.92-.08-1.38.38-1.1,1.11-2.26.86-2.62-.68-.26-1.14-.91-1.48-1.8-1.78-5.61-1.93-11.09-4.21-16.78-5.92-4.96-1.96-9.95-3.85-15.05-5.46-3-1.08-6.01-2.13-8.99-3.24-.71-.27-1.08-.16-1.53.48-.82,1.17-2.05,1.53-3.31.87-.85-.44-1.13-.31-1.5.49-.82,1.74-2.11,3.18-3.72,4.14-3.32,1.99-6.42,4.39-10.03,5.88-.71.29-1.44.58-1.57,1.45-.54,3.68-1.32,7.31-2.37,11.21,5.18-2.36,10.05-4.6,14.93-6.8.84-.38,1.63-.96,2.63-.82,1.16,2.59,1.19,2.66-1.36,3.83-4.71,2.16-9.43,4.29-14.21,6.29-1.43.6-2.26,1.35-2.26,2.91.53.29.84-.16,1.2-.33,6.15-2.89,12.28-5.82,18.44-8.67,1.02-.47,2.26-1.81,3.08-1.14.97.78.39,2.44.22,3.73-6.53,3.02-13.08,5.99-19.57,9.07-4.96,2.35-9.84,4.89-14.79,7.25-6.11,2.91-12.29,5.66-18.39,8.58-5.14,2.46-10.2,5.07-15.31,7.59-1.18.58-2.37,1.16-3.61,1.56-2.53.82-5.33-.07-6.79-1.99-.36-.47-.63-.94-.37-1.54.18-.43.56-.47.94-.41,4.3.7,7.96-1.36,11.62-2.97,7.33-3.23,14.53-6.78,21.79-10.15,1.49-.69.33-2.42,1.63-3.16-1.04-.49-1.62.16-2.24.47-10.63,5.19-21.52,9.82-32.25,14.8-2.63,1.22-5.64.56-7.39-1.46-.45-.52-.96-1.12-.63-1.84.39-.84,1.18-.47,1.82-.34,2.59.54,4.81-.39,7.23-1.24,6.93-2.44,13.37-6,20.21-8.56,5.74-2.15,9.94-6.03,13.83-10.46.41-.47.78-1.09,1.31-1.33,2.6-1.17,2.78-3.56,3.33-5.9.39-1.7,1.24-3.31,1.93-4.94,1.2-2.84,2.08-5.76,2.47-8.84.32-2.51,1.33-4.63,3.49-6.18,2.14-1.54,4.02-3.39,5.8-5.34,2.61-2.87,3.9-6.09,2.62-9.99-.43-1.31-.8-2.64-1.14-3.97-.35-1.37-.86-1.96-1.96-.55-.15.2-.39.34-.51.54-2.23,3.81-6.09,4.71-9.95,5.6-1.22.28-2.45.57-3.69.64-1.95.1-2.83,1.15-3.34,2.92-2.53,8.79-5.12,17.55-7.72,26.32-.17.58-.14.99.15,1.56.92,1.79.63,2.47-1.22,3.26-.3.13-.56.23-.68.56-.22.57-.54,1.05-1.25.75-.74-.31-.17-.85-.19-1.29,0-.23-.09-.48-.2-.69-1.07-2.09-1.01-2.54.97-3.41.89-.39.96-1.1,1.16-1.77,1.93-6.55,3.81-13.11,5.72-19.66.47-1.62,1.02-3.23,1.51-4.84.42-1.39.74-2.53-.26-4.11-1.94-3.05.93-7.5,4.49-7.35,1.18.05,2-.64,2.97-1.03,4.02-1.63,7.15-4.02,7.85-8.71.26-1.74,1.07-3.36,2.29-4.67.64-.69.53-1.11.03-1.9-2.63-4.07-3.54-8.59-2.31-13.27,1.29-4.9,6.92-6.52,10.23-3.12,1.67,1.71,1.75,3.97,1.72,6.17-.02,1.26.26,1.98,1.62,2.22,1.31.24,1.79,1.43,1.9,2.54.13,1.28.8,1.86,1.86,2.27,2.98,1.14,5.01,3.27,6.27,6.15,1.32,3.01,3.01,5.8,5.04,8.34,2.22,2.78,2.04,5.94,1.86,9.14-.18,3.33-.8,6.58-1.82,9.76-.66,2.06.14,3.43,2.17,4.15,3.06,1.09,6.13,2.16,9.2,3.25Z"/>
    <g>
      <path class="cls-2" d="m447.22,837.31c-.11-.82.57-1.18.96-1.73,3.1-4.43,6.79-8.47,9.02-13.49,1.62-3.65,3.13-7.35,5.18-10.8,1.52-2.56,3.66-4.58,5.65-6.72,1.69-1.81,3.18-3.72,4.24-5.91,2.7-5.6,8.87-7.68,14.01-5.59,1.48.6,2.03.16,2.19-1.28.27-2.39.98-4.6,2.39-6.61,2.63-3.75,8.43-3.58,10.71.39.97,1.68,1.83,3.42,2.74,5.13.14.26.08.68.48.72.46.04.62-.37.77-.7,2.24-5.06,5.75-9.3,8.98-13.72,3.22-4.41,6.95-2.91,9.05.32.43.66.53,1.54,1.35,2.07.42-.95.78-1.88,1.22-2.76,2.08-4.21,5.84-4.74,8.6-.96,1.34,1.84,2.85,1.68,4.58,1.56,1.87-.13,2.56-1.49,3.1-3.02,1.22-3.48,2.73-6.68,5.38-9.49,3.58-3.8,11.2-4.46,15.8-.21,2.45,2.27,3.98,4.92,3.97,8.35,0,1.24.24,1.94,1.9,1.3,6.04-2.32,11.61-5.57,17.27-8.59,7.34-3.91,14.49-8.2,21.56-12.61,7.93-4.95,15.58-10.27,22.92-16.09,4.02-3.19,7.82-6.62,11.45-10.19,5.21-5.12,9.83-10.82,13.17-17.38,1.43-2.82,3.1-5.61,3.82-8.72,1.55-6.71-.28-12.67-4.33-18.07-2.53-3.38-5.87-5.91-8.93-8.76-4.77-4.45-8.97-9.37-8.86-16.42.08-4.73,2.18-8.79,5.06-12.44,7.15-9.07,17.06-14.4,26.84-19.94,6.33-3.58,12.83-6.81,19.35-10,9.04-4.43,18.3-8.4,27.58-12.3.35-.15.68-.34,1.17.12-.81.48-1.56.98-2.36,1.38-12.07,5.95-23.92,12.33-35.42,19.31-7.84,4.76-15.69,9.61-22.17,16.25-2.66,2.73-5.06,5.67-6.72,9.19-2.07,4.37-1.38,10.34,2.19,14.08,3.3,3.46,7.13,6.27,10.74,9.35,7.06,6.02,12.77,12.92,14.51,22.34,1.35,7.29,0,14.25-3.02,20.97-3.53,7.87-8.67,14.53-14.64,20.7-9.5,9.82-20.59,17.5-32.07,24.74-11.95,7.54-24.39,14.21-36.88,20.78-7.74,4.07-15.62,7.85-23.57,11.48-5.66,2.59-11.31,5.2-16.99,7.75-7.86,3.53-15.75,7.01-23.61,10.53-5.42,2.43-10.83,4.85-16.21,7.35-8.88,4.14-17.78,8.25-26.59,12.55-6.39,3.13-12.69,6.44-18.8,10.11-.95.57-1.92,1.22-3.12,1.19-5.32-1.52-10.49-3.45-15.61-5.53Z"/>
      <path class="cls-2" d="m435.78,858.83c.17-1.29.75-2.95-.22-3.73-.82-.66-2.06.67-3.08,1.14-6.16,2.86-12.29,5.78-18.44,8.67-.36.17-.67.63-1.2.33,0-1.56.83-2.31,2.26-2.91,4.78-2,9.5-4.13,14.21-6.29,2.55-1.17,2.52-1.24,1.36-3.83.04-.46.24-.8.62-1.1,5.04-4.07,9.51-8.83,14.84-12.56,5.09,1.61,10.08,3.5,15.05,5.46-.1.85-.85,1.02-1.44,1.32-5.39,2.77-10.35,6.22-15.44,9.47-2.64,1.69-5.33,3.42-8.51,4.03Z"/>
    </g>
  </g>
</svg>