<?xml version="1.0" encoding="UTF-8"?>
<svg id="Desktop" xmlns="http://www.w3.org/2000/svg" viewBox="0 0 1022 1025.06">
  <defs>
    <style>
      .cls-1 {
        fill: #060606;
      }

      .cls-1, .cls-2, .cls-3 {
        stroke-width: 0px;
      }

      .cls-2 {
        fill: #b9c9cf;
      }

      .cls-3 {
        fill: #ede3d4;
      }
    </style>
  </defs>
  <g>
    <path class="cls-3" d="m1021.63,239.61c.06,11.98.17,23.97.17,35.95.02,169.32.08,338.63-.15,507.95,0,7.29.66,14.57.18,21.86-.92,14.02.34,28.03.06,42.05-.28,14.15-.06,28.3-.06,42.45s0,28.64,0,42.95c0,14.15,0,28.3,0,42.45,0,14.32,0,28.64,0,42.95q0,6.82-6.6,6.82c-190.74,0-381.48,0-572.22,0-20.91,0-41.81,0-62.72,0-126.76,0-253.53,0-380.29,0v-315.72c1.38.16,2.6-.33,3.83-.9,28.14-12.92,56.33-25.72,84.4-38.78,21.62-10.06,43.18-20.25,64.92-30.07,34.06-15.39,67.8-31.47,101.7-47.21,39.94-18.54,80.05-36.71,119.81-55.62,25.35-12.06,50.99-23.51,76.11-36.1,19.12-9.58,39.08-17.42,58.34-26.79,17.62-8.57,35.52-16.56,53.28-24.83,20.63-9.61,41.2-19.34,61.86-28.86,31.07-14.31,62.23-28.41,93.29-42.74,17.81-8.22,35.44-16.82,53.24-25.04,31.97-14.78,64-29.43,96.03-44.08,14.2-6.5,28.42-12.94,42.69-19.29,25.34-11.27,50.71-22.47,76.09-33.66,12-5.29,24.03-10.49,36.05-15.73Z"/>
    <path class="cls-2" d="m1021.63,239.61c-12.02,5.24-24.06,10.44-36.05,15.73-25.38,11.19-50.75,22.39-76.09,33.66-14.27,6.35-28.49,12.79-42.69,19.29-32.03,14.65-64.06,29.3-96.03,44.08-17.8,8.23-35.43,16.83-53.24,25.04-31.06,14.33-62.22,28.43-93.29,42.74-20.67,9.52-41.24,19.25-61.86,28.86-17.76,8.27-35.66,16.26-53.28,24.83-19.26,9.36-39.23,17.21-58.34,26.79-25.12,12.58-50.75,24.04-76.11,36.1-39.76,18.91-79.87,37.09-119.81,55.62-33.9,15.73-67.64,31.82-101.7,47.21-21.74,9.82-43.3,20.01-64.92,30.07-28.07,13.07-56.27,25.86-84.4,38.78-1.23.56-2.44,1.05-3.83.9v-59.95c4.9-3.69,8.67-8.52,12.93-12.85,9.07-9.22,16.98-19.55,27-27.86,3.67-3.04,7.6-6.16,10.17-10.06,6.64-10.12,12.59-20.69,18.79-31.1.79-1.32,1.76-2.29,3.18-3.01,6.36-3.22,12.9-6.04,19.6-8.45,12.18-4.38,22.61-11.31,29.91-22,8.89-13.03,16.74-26.74,23.5-41.03.62-1.31.39-2.47.2-3.82-1.08-7.73-3.34-15.19-5.04-22.77-3.35-14.89-7.83-29.46-12.57-43.96-.71-2.15-1.23-3.96.61-5.95,5.63-6.09,11.03-12.39,16.63-18.51,9.33-10.17,17.43-21.3,25.37-32.55,1.29-1.83,1.79-3.5-.28-5.17-6.69-5.38-6.67-13.19-7.09-20.68-.14-2.41-1.57-4.67-.47-7.29,3.46-8.27,6.68-16.63,10.02-24.95,3.83-9.53,8.36-18.77,11.38-28.62,3.02-.03,6.1,1.5,7.76,3.01,13.91,12.61,25.65,22.41,40.2,34.27,9.52,7.77,19.24,15.29,28.88,22.91,1.48,1.17,3.14,1.85,5.04,1.93,6.56,3.74,11.26,9.69,16.99,14.43,21.61,17.88,45.62,31.28,72.07,40.51,19.26,6.72,38.34,13.96,57.65,20.55,13.17,4.5,26.62,8.18,39.88,12.44,2.56.82,3.83.24,5.34-1.77,2.99-3.97,6.18-7.8,9.47-11.52,11.09-12.57,22.19-25.13,33.41-37.58,4.88-5.41,8.35-11.42,10.17-18.53,2.71-10.6,6.39-20.98,8.56-31.68,2.89-14.28,10.67-24.19,23.43-30.72,9.76-4.99,19.47-10.11,29.01-15.52,5.13-2.91,10.93-5.34,13.42-11.39,7.65-18.54,18.26-35.41,29.32-52.02,1.12-1.68,2.43-3.45,1.79-5.51-1.8-5.82-2.55-12.03-6.69-16.98-6.93-8.28-13.32-16.98-19.04-26.14-4.34-6.96-9.47-12.84-17.59-15.27-2.87-.86-2.72-2.27-1.51-4.39,3.71-6.49,7.23-13.08,11.07-19.49,8.22-13.74,18.06-26.21,29.99-36.94,2.07-1.86,2.64-3.61,1.94-6.47-1.96-7.93-4.76-15.55-7.87-23.05-.65-1.56-.76-2.7-.25-4.17,1.69-4.85,3.48-9.68,4.96-14.6,3.67-12.21,7.6-24.37,9.07-37.12,2.22-.31,3.86.32,5.2,1.54,4.42,4.01,7.73,6.36,12.09,10.42,11.15,10.39,22.32,20.78,33.44,31.2,3.86,3.62,8.53,5.98,13.46,7.24,5.99,1.53,9.58,5.71,13.22,9.94,13,15.1,27.18,29.03,41.86,42.45.7.64,1.72.91,2.59,1.35.46.46.85,1.09,1.41,1.37,27.72,13.7,56.81,24.07,85.5,35.43,19.72,7.81,40.82,11.74,59.69,21.81.8.43,1.75,1.36,2.69.47.88-.84.19-1.85-.15-2.77-3.05-8.27-5.02-16.85-6.95-25.41-.73-3.24-1.92-5.89-4.02-8.31-4.35-5.01-8.62-10.08-13.01-15.06-1.68-1.91-2.22-3.73-1.37-6.32,1.45-4.4,2.23-9.02,3.63-13.43.97-3.06-.23-4.69-2.71-6.06-5.38-2.96-10.63-6.18-16.11-8.94-2.78-1.4-2.57-2.8-1.23-5,8.19-13.46,15.26-27.61,24.92-40.17,1.49-1.93,3.08-3.91,3.54-6.5,1.98-11.07,4.02-22.12,6.03-33.18,3.99,1.98,6.48,5.6,8.86,9.01,9.79,14.05,21.41,26.11,36.14,35.04,4.95,3,7.97,7.99,11.65,12.22,8.2,9.43,18.08,16.7,28.91,22.61,5.93,3.24,8.06,9.15,11.51,14.04,12.55,17.77,25.55,35.19,38.81,52.41,1.17,1.52,1.96,2.93,1.96,4.91-.1,29.79-.15,59.57-.21,89.36Z"/>
    <path class="cls-3" d="m183.84,278.75c-3.02,9.85-7.55,19.09-11.38,28.62-3.34,8.32-6.56,16.68-10.02,24.95-1.1,2.63.33,4.88.47,7.29.42,7.49.41,15.29,7.09,20.68,2.07,1.67,1.57,3.35.28,5.17-7.94,11.25-16.04,22.37-25.37,32.55-5.61,6.11-11.01,12.41-16.63,18.51-1.84,1.99-1.31,3.8-.61,5.95,4.74,14.49,9.22,29.07,12.57,43.96,1.71,7.58,3.97,15.04,5.04,22.77.19,1.36.41,2.52-.2,3.82-6.77,14.29-14.61,28-23.5,41.03-7.3,10.7-17.73,17.63-29.91,22-6.7,2.41-13.24,5.22-19.6,8.45-1.42.72-2.39,1.68-3.18,3.01-6.2,10.41-12.15,20.98-18.79,31.1-2.56,3.9-6.5,7.02-10.17,10.06-10.02,8.31-17.93,18.64-27,27.86-4.26,4.33-8.03,9.16-12.93,12.85v-231.8c2.57.42,3.94-1.4,5.43-2.94,16.78-17.29,35.67-32.21,53.62-48.18,10.79-9.6,23.3-15.08,35.94-20.73,7.73-3.46,14.1-8.57,20.35-14.01,10.49-9.14,20.54-18.85,31.55-27.31,10.86-8.34,21.64-16.92,33.43-24.01,1.12-.67,2.09-1.56,3.52-1.65Z"/>
    <path class="cls-3" d="m620.28,7.94c-1.47,12.75-5.39,24.91-9.07,37.12-1.48,4.92-3.26,9.74-4.96,14.6-.51,1.46-.4,2.6.25,4.17,3.1,7.51,5.91,15.12,7.87,23.05.71,2.86.13,4.61-1.94,6.47-11.93,10.74-21.76,23.21-29.99,36.94-3.84,6.41-7.36,13.01-11.07,19.49-1.21,2.12-1.36,3.53,1.51,4.39,8.12,2.43,13.25,8.31,17.59,15.27,5.71,9.16,12.11,17.86,19.04,26.14,4.14,4.95,4.89,11.17,6.69,16.98.64,2.07-.67,3.83-1.79,5.51-11.06,16.61-21.67,33.47-29.32,52.02-2.49,6.04-8.29,8.48-13.42,11.39-9.54,5.41-19.25,10.53-29.01,15.52-12.76,6.53-20.55,16.44-23.43,30.72-2.16,10.7-5.85,21.08-8.56,31.68-1.82,7.11-5.29,13.12-10.17,18.53-11.22,12.45-22.33,25.01-33.41,37.58-3.29,3.73-6.48,7.56-9.47,11.52-1.51,2.01-2.77,2.59-5.34,1.77-13.26-4.26-26.71-7.94-39.88-12.44-19.31-6.59-38.39-13.83-57.65-20.55-26.45-9.22-50.46-22.63-72.07-40.51-5.73-4.74-10.43-10.69-16.99-14.43,3.43-4.24,6.21-8.11,9.91-11.45,12.92-11.7,25.48-23.75,37.86-36,19.2-19.02,38.48-37.96,57.83-56.84,6.77-6.61,14.62-12.02,22.47-17.14,13.03-8.49,23.34-19.51,32.22-31.94,6.72-9.41,14.9-17.74,20.71-27.83.27-.47,1.1-.62,1.67-.93,1.27,21.18-5.53,40.72-12.31,60.59,1.52-.49,1.97-1.62,2.74-2.47,9.16-9.98,16.96-21.23,27.7-29.75,1.87-1.48,2.76-3.37,3.14-5.91.73-4.89,2.3-9.64,3.26-14.5,1.35-6.83,5.1-12.97,5.55-20.04,10.21-8.31,18.02-19.02,27.65-27.88,6.46-5.95,10.51-13.61,15.63-20.51,4.33-5.84,8.56-11.77,12.79-17.69.73-1.02,1.97-2.2,2.54-2.71,1.32,7.62,1.83,16.47,5.9,23.44.66,1.13.42,2.93.25,4.38-1.76,15.16-3.59,30.31-5.41,45.46,9.39-26.64,14.68-54.19,19.46-81.86,1.95-4.1,6.18-5.88,9.13-8.96,6.08-6.34,11.75-13.11,18.21-19.03,9.9-9.08,18.86-19.06,28.37-28.5,2.11-2.1,4.26-4.17,7.3-4.88Z"/>
    <path class="cls-3" d="m884.01,0c-2.02,11.06-4.05,22.12-6.03,33.18-.46,2.59-2.06,4.57-3.54,6.5-9.67,12.56-16.74,26.71-24.92,40.17-1.34,2.2-1.54,3.6,1.23,5,5.48,2.76,10.73,5.97,16.11,8.94,2.48,1.37,3.68,3,2.71,6.06-1.4,4.42-2.18,9.03-3.63,13.43-.85,2.59-.31,4.41,1.37,6.32,4.38,4.98,8.66,10.05,13.01,15.06,2.1,2.42,3.28,5.07,4.02,8.31,1.94,8.56,3.9,17.14,6.95,25.41.34.91,1.03,1.93.15,2.77-.93.88-1.88-.04-2.69-.47-18.87-10.07-39.97-14-59.69-21.81-28.7-11.36-57.78-21.73-85.5-35.43-.56-.28-.94-.91-1.41-1.37,3.52-4.62,8.96-6.71,13.56-9.74,20.29-13.36,40.49-26.85,60.6-40.48,6.94-4.7,12.42-10.96,18.52-16.5,15.46-14.04,30.34-28.73,45.45-43.17,1.07-1.02,1.99-2.29,3.73-2.19Z"/>
    <path class="cls-2" d="m478.45,146.68c-.45,7.06-4.2,13.21-5.55,20.04-.96,4.86-2.53,9.62-3.26,14.5-.38,2.54-1.27,4.42-3.14,5.91-10.74,8.51-18.53,19.77-27.7,29.75-.77.84-1.22,1.98-2.74,2.47,6.79-19.87,13.58-39.41,12.31-60.59.43-1.97,2.12-2.3,3.66-2.84,8.8-3.08,17.61-6.16,26.41-9.24Z"/>
    <path class="cls-2" d="m557.27,69.31c-4.78,27.67-10.07,55.22-19.46,81.86,1.81-15.15,3.65-30.3,5.41-45.46.17-1.45.41-3.25-.25-4.38-4.07-6.98-4.58-15.82-5.9-23.44,1.11-1.16,1.26-1.53,2.61-1.95,5.99-1.88,15.15-4.21,17.59-6.63Z"/>
  </g>
  <g>
    <path class="cls-1" d="m774.8,697.66c4.92,2,9.89,3.86,15,5.31,5.17,2.28,10.6,3.82,15.87,5.82.65.25.69-.13,1.03-.51,1.09-1.22,2.36-.86,2.68.74.13.68.09,1.28.93,1.51.3.08.65.39.44.83-.16.34-.44.66-.84.43-.61-.35-.89-.08-1.33.37-1.06,1.06-2.17.83-2.52-.66-.25-1.1-.87-1.42-1.73-1.71-5.39-1.86-10.66-4.05-16.12-5.69-4.77-1.89-9.56-3.7-14.46-5.24-2.88-1.03-5.77-2.04-8.64-3.12-.69-.26-1.04-.15-1.47.46-.79,1.12-1.97,1.47-3.18.84-.82-.42-1.08-.3-1.45.47-.79,1.67-2.02,3.05-3.58,3.98-3.19,1.91-6.16,4.21-9.64,5.65-.68.28-1.39.56-1.51,1.4-.52,3.54-1.26,7.03-2.27,10.77,4.98-2.27,9.66-4.42,14.35-6.54.8-.36,1.56-.93,2.53-.79,1.12,2.49,1.15,2.56-1.31,3.68-4.52,2.07-9.06,4.12-13.65,6.05-1.38.58-2.17,1.3-2.17,2.8.51.28.8-.16,1.15-.32,5.91-2.78,11.8-5.59,17.72-8.33.98-.46,2.17-1.74,2.96-1.1.93.75.37,2.35.21,3.58-6.27,2.9-12.56,5.76-18.81,8.71-4.77,2.26-9.45,4.7-14.21,6.97-5.87,2.79-11.8,5.44-17.66,8.25-4.93,2.36-9.8,4.87-14.71,7.3-1.13.56-2.28,1.11-3.47,1.5-2.43.78-5.12-.07-6.52-1.91-.35-.46-.6-.91-.36-1.48.17-.41.54-.45.91-.39,4.13.67,7.65-1.3,11.17-2.85,7.05-3.1,13.96-6.51,20.94-9.76,1.43-.66.32-2.33,1.57-3.03-1-.47-1.55.16-2.15.45-10.22,4.98-20.68,9.43-30.99,14.22-2.53,1.17-5.42.54-7.1-1.41-.43-.5-.92-1.08-.6-1.77.38-.8,1.14-.45,1.74-.32,2.48.52,4.63-.38,6.95-1.19,6.66-2.34,12.84-5.76,19.41-8.23,5.52-2.07,9.55-5.8,13.29-10.05.4-.45.75-1.05,1.26-1.28,2.5-1.12,2.68-3.42,3.2-5.66.38-1.64,1.19-3.18,1.85-4.74,1.15-2.73,2-5.54,2.37-8.49.31-2.41,1.28-4.45,3.35-5.94,2.06-1.48,3.87-3.26,5.57-5.13,2.5-2.76,3.74-5.85,2.52-9.6-.41-1.26-.77-2.54-1.09-3.82-.34-1.31-.82-1.89-1.89-.53-.15.19-.38.32-.49.52-2.14,3.66-5.85,4.53-9.56,5.38-1.17.27-2.36.55-3.55.61-1.88.1-2.72,1.1-3.21,2.81-2.43,8.44-4.92,16.86-7.42,25.29-.17.56-.14.95.14,1.5.89,1.72.61,2.38-1.17,3.14-.29.12-.54.23-.66.54-.21.55-.51,1.01-1.2.73-.71-.29-.16-.81-.18-1.24,0-.22-.09-.46-.19-.66-1.02-2.01-.97-2.44.93-3.28.85-.38.93-1.06,1.11-1.7,1.85-6.29,3.66-12.59,5.5-18.89.46-1.56.98-3.1,1.45-4.65.41-1.34.71-2.43-.25-3.95-1.86-2.93.9-7.21,4.32-7.07,1.13.05,1.92-.62,2.85-.99,3.86-1.56,6.87-3.86,7.55-8.37.25-1.67,1.02-3.22,2.2-4.49.62-.66.51-1.07.02-1.82-2.52-3.91-3.4-8.25-2.22-12.75,1.24-4.71,6.65-6.26,9.83-3,1.6,1.65,1.69,3.81,1.65,5.93-.02,1.21.25,1.9,1.55,2.13,1.25.23,1.72,1.37,1.82,2.44.12,1.23.77,1.79,1.78,2.18,2.86,1.1,4.81,3.14,6.02,5.9,1.26,2.89,2.89,5.57,4.85,8.01,2.14,2.67,1.96,5.71,1.79,8.78-.17,3.2-.77,6.32-1.74,9.38-.63,1.97.13,3.29,2.09,3.98,2.94,1.04,5.89,2.08,8.84,3.12Z"/>
    <g>
      <path class="cls-2" d="m774.8,697.66c-.11-.78.55-1.14.92-1.67,2.98-4.26,6.53-8.14,8.67-12.96,1.56-3.51,3.01-7.06,4.98-10.38,1.46-2.46,3.52-4.4,5.43-6.45,1.62-1.74,3.05-3.58,4.07-5.68,2.6-5.38,8.52-7.38,13.46-5.37,1.42.58,1.95.16,2.11-1.23.26-2.29.94-4.42,2.29-6.35,2.52-3.6,8.1-3.44,10.29.38.93,1.61,1.76,3.28,2.63,4.93.13.25.07.66.46.69.44.04.6-.35.74-.67,2.16-4.87,5.52-8.94,8.63-13.18,3.1-4.24,6.68-2.79,8.7.31.41.64.51,1.48,1.3,1.99.4-.92.75-1.8,1.17-2.65,2-4.04,5.61-4.56,8.27-.92,1.29,1.77,2.74,1.61,4.4,1.5,1.8-.12,2.46-1.43,2.98-2.9,1.17-3.35,2.62-6.42,5.16-9.12,3.44-3.65,10.76-4.29,15.18-.2,2.36,2.18,3.82,4.72,3.82,8.02,0,1.19.23,1.86,1.83,1.25,5.8-2.23,11.15-5.35,16.6-8.25,7.06-3.76,13.92-7.88,20.71-12.11,7.62-4.75,14.97-9.87,22.02-15.46,3.86-3.07,7.52-6.36,11-9.79,5-4.92,9.45-10.39,12.65-16.7,1.38-2.71,2.98-5.39,3.67-8.38,1.49-6.44-.27-12.17-4.16-17.37-2.43-3.25-5.64-5.68-8.58-8.42-4.58-4.27-8.62-9-8.51-15.78.07-4.54,2.1-8.44,4.86-11.95,6.87-8.71,16.39-13.84,25.79-19.16,6.08-3.44,12.33-6.54,18.59-9.61,8.69-4.26,17.58-8.07,26.5-11.82.33-.14.66-.33,1.13.11-.78.46-1.5.94-2.27,1.33-11.6,5.72-22.98,11.84-34.03,18.55-7.54,4.58-15.08,9.24-21.3,15.62-2.55,2.62-4.86,5.44-6.46,8.83-1.98,4.2-1.32,9.94,2.1,13.53,3.17,3.32,6.85,6.03,10.32,8.99,6.78,5.78,12.27,12.41,13.94,21.47,1.29,7.01,0,13.69-2.9,20.15-3.39,7.56-8.33,13.96-14.06,19.89-9.12,9.44-19.79,16.81-30.81,23.77-11.48,7.25-23.44,13.65-35.44,19.96-7.43,3.91-15.01,7.54-22.65,11.03-5.44,2.48-10.87,4.99-16.32,7.44-7.55,3.39-15.13,6.73-22.69,10.12-5.2,2.33-10.41,4.66-15.58,7.06-8.54,3.98-17.09,7.92-25.54,12.06-6.14,3-12.19,6.19-18.06,9.71-.91.55-1.84,1.17-3,1.14-5.11-1.46-10.08-3.32-15-5.31Z"/>
      <path class="cls-2" d="m763.81,718.34c.16-1.24.72-2.83-.21-3.58-.79-.64-1.98.64-2.96,1.1-5.92,2.74-11.81,5.56-17.72,8.33-.35.16-.64.6-1.15.32,0-1.5.79-2.22,2.17-2.8,4.59-1.92,9.13-3.97,13.65-6.05,2.45-1.12,2.42-1.19,1.31-3.68.04-.44.23-.77.59-1.06,4.84-3.91,9.13-8.48,14.26-12.07,4.89,1.54,9.69,3.36,14.46,5.24-.1.82-.82.98-1.39,1.27-5.17,2.66-9.94,5.98-14.83,9.1-2.54,1.62-5.12,3.28-8.18,3.87Z"/>
    </g>
  </g>
</svg>