<?xml version="1.0" encoding="UTF-8" standalone="no"?><!DOCTYPE svg PUBLIC "-//W3C//DTD SVG 1.1//EN" "http://www.w3.org/Graphics/SVG/1.1/DTD/svg11.dtd"><svg width="100%" height="100%" viewBox="0 0 33334 18750" version="1.1" xmlns="http://www.w3.org/2000/svg" xmlns:xlink="http://www.w3.org/1999/xlink" xml:space="preserve" xmlns:serif="http://www.serif.com/" style="fill-rule:evenodd;clip-rule:evenodd;stroke-linejoin:round;stroke-miterlimit:2;"><g id="Wine-2---4" serif:id="Wine 2 + 4"><path d="M10518.5,4527.16c179.769,81.158 186.476,-1946.99 -639.155,-1931.01c-715.649,13.841 -955.691,581.111 -676.778,580.27c171.347,-0.518 935.597,-471.989 1087.81,199.557c175.512,774.358 73.249,1081.26 228.128,1151.19Z" style="fill:#a32f2f;"/><path d="M9962.48,3181.02c-55.374,-154.301 -1449.54,231.514 -1396.79,886.004c28.819,357.48 510.946,237.814 474.188,-56.766c-43.318,-347.136 415.037,-613.577 922.597,-829.238Z" style="fill:#a32f2f;"/><path d="M6013.86,6189.21c-478.032,1112.58 2561.17,31.123 3547.67,-1088.83c579.536,-657.936 1021.03,-1573.5 491.807,-2024.75c-119.867,-102.208 -356.629,-41.034 -481.125,-46.961c-299.627,-14.263 578.373,-452.534 630.179,-384.829c419.006,547.567 859.576,1392.35 2.983,2646.78c-631.397,924.644 -1585.24,3645.09 -4438.71,4337.48c-638.486,154.93 -401.694,-1863.03 247.192,-3438.9Z" style="fill:#a32f2f;"/></g><path id="Logo-2" serif:id="Logo 2" d="M5737.25,9774.02c-55.383,-1.313 -110.767,-8.125 -166.155,-20.432c-330.749,-62.014 -496.124,-354.868 -496.124,-878.553c0,-847.551 427.217,-2291.14 1281.66,-4330.76c330.75,-771.751 575.365,-1522.83 733.852,-2253.24c62.014,-282.516 93.021,-508.184 93.021,-677.005c0,-168.821 -6.887,-301.463 -20.668,-397.93c-34.453,-303.189 -148.153,-513.356 -341.088,-630.497c-344.53,-186.042 -730.405,-279.069 -1157.63,-279.069c-447.89,0 -919.895,110.248 -1416.02,330.749c-496.124,220.502 -962.966,489.237 -1400.52,806.206c-437.556,316.968 -835.492,694.231 -1193.8,1131.79c-358.315,437.551 -625.324,895.78 -801.038,1374.68c-175.709,478.902 -263.568,911.286 -263.568,1297.16c0,158.487 13.785,310.076 41.346,454.783c110.248,475.451 316.969,830.319 620.158,1064.6c303.188,234.282 661.498,351.422 1074.93,351.422c578.816,0 1121.45,-254.954 1627.91,-764.859c506.463,-509.909 759.692,-1050.82 759.692,-1622.74c-0,-310.076 -62.014,-534.024 -186.043,-671.837c-124.033,-137.809 -251.508,-206.716 -382.434,-206.716c-130.921,-0 -261.843,18.947 -392.764,56.847c-130.921,37.895 -196.381,34.453 -196.381,-10.339c-0,-44.788 79.24,-103.355 237.722,-175.709c158.487,-72.353 323.862,-108.527 496.129,-108.527c172.263,-0 330.75,51.68 475.451,155.04c268.735,206.716 403.103,520.239 403.103,940.568c-0,420.329 -160.208,842.379 -480.623,1266.15c-320.41,423.776 -714.9,764.859 -1183.46,1023.26c-468.563,258.396 -931.959,387.596 -1390.18,387.596c-458.229,0 -883.725,-167.1 -1276.49,-501.296c-392.768,-334.195 -654.611,-783.806 -785.532,-1348.84c-34.453,-165.374 -51.68,-341.088 -51.68,-527.136c-0,-434.109 106.802,-906.114 320.415,-1416.02c213.609,-509.905 521.964,-983.635 925.067,-1421.19c403.097,-437.556 838.933,-802.758 1307.5,-1095.61c468.563,-292.849 964.687,-535.744 1488.38,-728.68c523.685,-199.828 1016.37,-299.742 1478.04,-299.742c461.67,0 882,72.348 1260.99,217.055c668.386,289.403 1002.58,902.668 1002.58,1839.79c-0,689.064 -248.062,1543.5 -744.186,2563.32c-310.076,633.938 -585.704,1316.11 -826.873,2046.52c-358.315,1081.83 -537.47,1832.91 -537.47,2253.24c-0,316.969 106.801,475.456 320.415,475.456c427.217,0 1174.85,-554.697 2242.9,-1664.09c751.079,-778.639 1340.23,-1633.08 1767.45,-2563.31c275.628,-592.597 413.442,-1136.95 413.442,-1633.08c-0,-261.848 -20.673,-446.17 -62.019,-552.976c-41.342,-106.802 -68.907,-175.709 -82.688,-206.716c-13.78,-31.007 -41.341,-58.573 -82.687,-82.688c-41.341,-24.119 -68.907,-36.179 -82.687,-36.179c-96.468,-27.56 -196.382,-49.954 -299.742,-67.181c-103.361,-17.227 -163.654,-63.74 -180.881,-139.534c-17.227,-75.8 18.952,-120.588 108.527,-134.368l196.387,20.673c316.969,89.575 592.592,313.523 826.873,671.833c130.921,199.828 196.382,439.281 196.382,718.35c-0,279.07 -65.461,608.098 -196.382,987.081c-316.969,840.659 -806.205,1669.26 -1467.7,2485.8c-661.499,816.539 -1314.39,1441.86 -1958.66,1875.97c-309.186,208.326 -591.002,366.667 -845.504,475.038c-2.46,1.6 -5.031,3.089 -7.697,4.463c-148.863,95.959 -480.744,292.361 -819.81,737.323c-141.476,185.661 -274.199,417.437 -409.849,701.386c-105.026,219.847 -214.72,468.774 -304.497,762.087c-461.117,1277.75 -343.151,2562.92 221.865,3624.19c207.792,390.298 469.64,755.058 794.166,1068.08c136.908,132.058 284.9,255.071 443.88,365.148c502.418,347.855 1098.59,582.826 1750.41,718.672c50.327,13.097 90.244,46.071 113.528,88.333c51.515,0.639 104.151,1.801 157.723,3.416c417.023,12.588 891.579,52.923 1331.53,125.155c663.878,109.006 1245.95,292.181 1466.71,489.765c52.445,49.864 68.691,126.906 40.853,193.7c-27.842,66.794 -94.002,109.493 -166.335,107.345c-633.355,-14.777 -1224.14,-2.782 -1788.04,12.216c-950.464,25.276 -1824.63,75.186 -2694.12,95.255c-639.417,14.761 -1275.75,7.833 -1937.36,-30.952c-61.621,-2.309 -112.295,-49.331 -119.203,-110.61c-6.903,-61.275 32.038,-118.394 91.602,-134.358l2858.89,-694.608c-443.352,-195.104 -844.614,-443.106 -1207.93,-724.454c-158.361,-122.635 -311.047,-249.264 -456.553,-382.112c-348.379,-318.076 -654.319,-670.751 -899.438,-1063.09c-693.386,-1109.84 -919.371,-2492.82 -523.227,-3917.3c86.29,-265.641 176.619,-503.359 284.885,-707.851c135.223,-255.402 285.907,-463.346 437.712,-635.568c203.712,-231.112 406.041,-397.613 589.679,-519.745Zm22315.6,3883.67c25.543,-73.893 54.447,-149.19 86.712,-225.905c155.041,-368.649 373.816,-721.797 656.332,-1059.44c282.515,-337.637 623.604,-565.031 1023.26,-682.172c144.701,-48.234 315.243,-72.348 511.63,-72.348c196.382,-0 415.157,62.014 656.331,186.048c468.563,-882.005 868.22,-1698.54 1198.97,-2449.62c96.468,-227.389 191.215,-373.816 284.236,-439.276c93.026,-65.461 179.16,-98.189 258.401,-98.189l144.702,0c17.226,0 82.687,8.614 196.386,25.835c113.695,17.227 201.549,22.399 263.563,15.506c-158.482,144.702 -578.811,847.547 -1260.98,2108.53c-868.219,1612.41 -1391.91,2687.35 -1571.06,3224.82c-68.906,199.828 -103.36,365.203 -103.36,496.124c0,220.501 89.58,330.749 268.735,330.749c323.862,0 754.525,-540.916 1292,-1622.74c20.668,-41.341 39.621,-82.688 56.847,-124.029c17.227,-41.346 44.788,-68.907 82.688,-82.687c37.894,-13.785 63.734,-5.172 77.52,25.84c13.78,31.007 6.888,80.962 -20.673,149.869c-551.251,1281.66 -1109.39,1922.49 -1674.42,1922.49c-186.047,0 -334.195,-82.687 -444.443,-248.062c-110.253,-165.375 -165.375,-329.028 -165.375,-490.957c0,-161.933 17.227,-311.802 51.68,-449.616c-399.656,661.499 -744.191,1037.04 -1033.59,1126.62c-82.692,34.453 -163.654,51.675 -242.895,51.675c-79.246,0 -156.766,-10.334 -232.561,-31.007c-337.642,-89.575 -506.463,-358.31 -506.463,-806.2c0,-58.306 2.868,-117.82 8.614,-178.562c-101.881,166.472 -242.563,353.455 -422.05,560.991c-261.842,316.969 -513.351,475.451 -754.525,475.451c-268.735,0 -454.778,-161.928 -558.138,-485.79c-20.673,-62.014 -31.007,-155.035 -31.007,-279.069c-0,-124.033 39.62,-289.408 118.861,-496.124c79.241,-206.721 204.995,-458.229 377.263,-754.525c172.267,-296.295 268.735,-470.283 289.408,-521.964c20.668,-51.68 31.007,-101.639 31.007,-149.873c-0,-213.609 -275.628,-327.303 -826.878,-341.084l-124.029,330.75c-434.109,1136.95 -850.992,1898.37 -1250.65,2284.24c-15.345,13.81 -28.984,23.52 -40.923,29.125c-237.683,263.085 -454.894,394.65 -651.587,394.65c-199.828,0 -361.757,-96.473 -485.79,-289.408c-62.014,-103.36 -93.021,-241.174 -93.021,-413.437c-0,-172.267 34.453,-382.429 103.36,-630.491c-551.251,888.887 -1026.71,1333.34 -1426.36,1333.34c-110.248,0 -210.162,-34.453 -299.742,-103.36c-206.721,-144.707 -310.076,-392.769 -310.076,-744.191c0,-36.531 0.855,-73.093 2.571,-109.599c-114.499,186.898 -260.066,378.48 -436.681,574.721c-186.047,206.715 -392.768,370.369 -620.157,490.957c-227.394,120.582 -530.577,249.782 -909.565,387.596c-530.578,964.687 -1064.6,1674.42 -1602.07,2129.2c-503.016,413.442 -1047.37,620.158 -1633.08,620.158c-303.188,-0 -537.47,-63.74 -702.845,-191.215c-165.374,-127.475 -248.062,-280.795 -248.062,-459.95c0,-179.155 51.681,-382.429 155.041,-609.818c179.155,-351.423 503.017,-633.938 971.58,-847.552c351.422,-165.374 816.539,-318.689 1395.35,-459.944c578.811,-141.26 950.907,-236.008 1116.28,-284.241c248.062,-434.11 544.358,-1209.3 888.893,-2325.59c-399.656,702.844 -733.852,1195.53 -1002.59,1478.04c-268.735,282.516 -540.916,423.771 -816.539,423.771c-372.096,0 -589.15,-155.036 -651.165,-465.117c-27.56,-48.234 -34.453,-120.582 -20.673,-217.055c13.781,-96.467 22.394,-165.374 25.84,-206.715c3.215,-38.579 22.927,-99.658 59.137,-183.216c-86.37,152.822 -173.269,286.244 -260.685,400.27c-351.423,482.344 -785.532,723.513 -1302.33,723.513c-275.628,0 -509.91,-89.575 -702.845,-268.735c-192.941,-179.155 -289.408,-423.77 -289.408,-733.852c-0,-57.612 2.556,-115.878 7.677,-174.823c-193.946,336.938 -367.044,589.855 -519.307,758.807c-251.509,279.069 -503.017,418.603 -754.525,418.603c-251.503,0 -442.723,-96.467 -573.644,-289.403c-68.907,-89.58 -103.356,-211.888 -103.356,-366.928c0,-155.041 34.449,-342.809 103.356,-563.31c68.907,-220.497 258.401,-578.812 568.477,-1074.94c75.8,-124.033 113.694,-222.221 113.694,-294.575c0,-72.353 -58.568,-108.527 -175.708,-108.527c-117.141,-0 -341.089,155.04 -671.838,465.117c-496.124,454.782 -975.021,1136.95 -1436.7,2046.52c-41.342,68.901 -87.855,111.968 -139.535,129.195c-51.68,17.227 -153.315,29.286 -304.909,36.179c-151.594,6.888 -251.508,24.115 -299.742,51.68c52.223,-104.452 128.415,-260.7 228.561,-468.749c-252.495,264.267 -492.331,396.396 -719.518,396.396c-251.509,0 -432.389,-75.8 -542.637,-227.394c-110.253,-151.589 -165.375,-320.41 -165.375,-506.458c0,-186.047 44.788,-389.322 134.368,-609.823l661.498,-1684.76c13.781,-41.341 20.673,-96.467 20.673,-165.374c0,-68.907 -41.346,-158.482 -124.033,-268.735l568.477,-10.334c158.487,-0 251.508,29.286 279.069,87.854c27.566,58.573 6.893,149.874 -62.014,273.902l-826.873,1932.82c-117.141,254.954 -175.714,472.009 -175.714,651.164c-0,199.828 106.807,299.742 320.415,299.742c130.921,0 268.735,-65.46 413.437,-196.382c254.954,-254.949 578.816,-775.193 971.579,-1560.73c19.461,-41.698 38.917,-71.618 58.382,-89.766c363.256,-719.644 612.525,-1144.49 747.824,-1274.58c82.687,-82.692 196.381,-124.033 341.083,-124.033c27.566,-0 98.193,10.334 211.888,31.007c113.694,20.673 198.107,24.119 253.229,10.334c-254.95,137.814 -671.833,785.532 -1250.65,1943.16c323.861,-399.656 618.437,-718.345 883.725,-956.073c265.289,-237.728 583.978,-458.229 956.074,-661.504c372.095,-203.269 644.277,-304.909 816.539,-304.909c41.346,-0 79.246,6.893 113.694,20.673c-847.546,1488.38 -1271.32,2459.96 -1271.32,2914.73c-0,179.16 65.46,268.735 196.381,268.735c326.926,0 758.218,-515.846 1293.9,-1547.59c22.585,-63.982 47.791,-128.663 75.614,-194.012c148.148,-347.976 349.701,-671.838 604.656,-971.58c254.95,-299.742 547.804,-518.518 878.553,-656.332c158.482,-68.907 310.077,-103.36 454.783,-103.36c144.702,-0 279.069,41.346 403.103,124.033c117.14,96.468 175.708,203.275 175.708,320.416c0,413.436 -248.062,809.646 -744.186,1188.63c-151.594,117.141 -365.207,222.227 -640.83,315.248c-275.628,93.027 -485.79,139.535 -630.491,139.535c-96.468,234.282 -144.707,496.129 -144.707,785.532c-0,192.94 43.067,346.255 129.2,459.95c86.134,113.694 208.442,170.541 366.929,170.541c627.045,0 1195.52,-589.145 1705.43,-1767.44c25.574,-58.453 54.05,-99.477 85.435,-123.058l69.601,-135.338c234.282,-447.89 427.222,-826.879 578.816,-1136.95c68.902,-144.701 203.27,-217.055 403.098,-217.055l630.496,0c-13.785,13.781 -48.234,41.342 -103.36,82.688c-124.034,82.687 -217.055,179.155 -279.069,289.408c-248.067,427.217 -558.143,1037.04 -930.239,1829.46c-151.594,323.861 -227.389,561.584 -227.389,713.179c0,151.594 25.84,258.401 77.521,320.415c51.68,62.014 122.307,93.021 211.887,93.021c130.922,0 313.523,-137.809 547.805,-413.436c489.231,-571.919 1030.15,-1471.15 1622.74,-2697.68c75.799,-144.701 210.167,-217.055 403.102,-217.055l558.143,0c-179.155,124.029 -320.415,280.795 -423.775,470.284c-103.361,189.494 -215.329,446.17 -335.916,770.031c-120.588,323.857 -272.182,754.52 -454.783,1291.99c-182.602,537.47 -322.136,940.573 -418.604,1209.31c647.718,-192.941 1143.84,-534.024 1488.38,-1023.26c101.519,-143.057 232.4,-360.277 392.663,-651.748c128.516,-460.217 390.399,-925.137 785.632,-1394.77c330.75,-385.876 737.299,-637.384 1219.64,-754.525c130.921,-34.453 254.955,-51.68 372.096,-51.68c316.968,-0 585.704,110.248 806.2,330.749c68.907,75.8 89.58,148.148 62.019,217.055c-27.566,68.907 -86.134,96.468 -175.714,82.687c-75.794,-248.062 -241.169,-372.095 -496.124,-372.095c-296.295,-0 -661.503,234.281 -1095.61,702.845c-248.062,275.627 -478.897,599.484 -692.506,971.579c-268.735,447.89 -403.102,806.205 -403.102,1074.94c-0,268.735 86.134,403.103 258.401,403.103c413.436,0 954.348,-633.938 1622.74,-1901.81c130.926,-254.955 241.174,-428.943 330.754,-521.969c89.575,-93.022 203.27,-139.535 341.084,-139.535c27.566,0 98.193,10.339 211.888,31.007c113.694,20.673 198.107,24.12 253.229,10.339c-124.029,124.029 -299.743,404.824 -527.132,842.38c-227.393,437.551 -363.482,764.858 -408.269,981.913c-44.788,217.055 -67.186,392.764 -67.186,527.131c-0,134.368 51.68,201.554 155.04,201.554c130.921,0 292.855,-120.587 485.79,-361.761c281.162,-349.732 558.908,-805.249 833.273,-1366.63c54.724,-120.235 107.702,-243.488 158.98,-369.806c282.515,-695.952 478.897,-1357.45 589.145,-1984.5c41.346,-213.608 137.814,-320.41 289.408,-320.41c151.595,0 261.843,96.468 330.75,289.403c20.673,62.015 31.007,134.368 31.007,217.055c-0,310.081 -196.382,602.931 -589.151,878.559c137.814,6.887 322.141,10.334 552.977,10.334c230.835,-0 521.964,-17.227 873.386,-51.681c13.78,20.673 20.673,75.795 20.673,165.375c0,89.58 -41.346,222.222 -124.033,397.936c-82.688,175.708 -156.762,327.302 -222.222,454.782c-65.461,127.475 -127.475,248.062 -186.048,361.757c-58.568,113.694 -124.029,253.229 -196.382,418.603c-72.353,165.375 -132.647,316.969 -180.881,454.783c-172.262,523.69 -144.701,785.532 82.688,785.532c256.967,0 622.577,-453.6 1096.76,-1360.66Zm-19789.6,4196.85c-41.482,64.001 -120.743,97.388 -198.565,77.138c-74.778,-23.431 -148.485,-48.35 -221.12,-74.683c-104.995,6.425 -198.963,17.79 -278.802,34.504c-279.91,66.255 -705.003,175.547 -1141.39,293.181c-278.677,75.121 -562.022,153.194 -815.644,223.812l-0.055,0.005c591.812,-16.749 1172.62,-54.609 1765.83,-90.42c581.392,-35.098 1174.46,-68.384 1799.69,-86.929c378.324,-11.22 768.396,-15.275 1174.81,-10.822c-288.447,-94.953 -637.414,-178.209 -993.666,-242.1c-374.662,-67.191 -757.635,-110.887 -1091.09,-123.686Zm7498.96,-324.561c-75.795,151.594 -113.695,291.128 -113.695,418.608c0,127.475 48.234,225.668 144.702,294.575c96.467,68.907 217.055,103.361 361.756,103.361c399.661,-0 826.878,-205 1281.66,-614.991c454.778,-409.995 854.439,-849.271 1198.97,-1317.84l227.389,-382.429c-1136.95,296.296 -1853.58,509.909 -2149.88,640.83c-441.002,192.936 -757.966,478.898 -950.906,857.881Zm-5736.44,-5850.15l-51.681,186.048c-351.422,1095.61 -675.283,1894.92 -971.579,2397.94c-434.11,730.406 -888.893,1095.61 -1364.34,1095.61c-385.875,-0.005 -578.816,-186.047 -578.816,-558.143c0,-282.515 103.361,-720.071 310.081,-1312.66c-68.907,110.248 -122.307,146.422 -160.207,108.528c-37.9,-37.9 -46.513,-84.413 -25.84,-139.54l186.047,-351.417c130.922,-268.735 196.382,-537.47 196.382,-806.205c0,-268.735 -55.126,-427.222 -165.374,-475.456c413.436,-68.907 654.61,-101.635 723.517,-98.189c68.907,3.442 111.969,32.728 129.196,87.855c17.227,55.126 25.84,117.14 25.84,186.047c-0,420.33 -108.528,916.454 -325.582,1488.38c-217.055,571.919 -325.583,956.074 -325.583,1152.46c0,196.381 31.013,310.076 93.027,341.088c62.014,31.007 124.028,46.508 186.048,46.508c179.155,0 382.429,-144.702 609.818,-434.11c227.394,-289.403 454.783,-716.625 682.171,-1281.66c-96.467,-220.501 -144.701,-415.157 -144.701,-583.978c-0,-168.821 20.673,-318.694 62.014,-449.616c124.034,-392.763 320.415,-637.384 589.15,-733.851c55.127,-20.673 106.807,-31.007 155.041,-31.007c110.248,-0 165.375,55.126 165.375,165.374Zm20878.6,289.408c-89.58,-89.58 -215.334,-134.367 -377.263,-134.367c-161.928,-0 -387.596,120.582 -677.004,361.756c-461.671,385.876 -844.1,861.327 -1147.29,1426.36c-199.828,372.09 -299.742,678.725 -299.742,919.894c0,110.253 22.394,210.167 67.182,299.742c44.787,89.58 115.42,134.368 211.887,134.368c234.282,-0 523.69,-241.169 868.22,-723.513c344.529,-482.343 795.866,-1243.76 1354.01,-2284.24Zm-13467.7,72.349c0,-137.809 -55.126,-206.716 -165.375,-206.716c-192.94,-0 -485.789,237.723 -878.558,713.178c-234.281,289.409 -440.997,613.265 -620.157,971.58c117.14,0 287.687,-41.346 511.63,-124.033c223.947,-82.688 418.608,-192.936 583.983,-330.75c378.983,-323.861 568.477,-664.944 568.477,-1023.26Zm11660.5,-5823.13c158.411,-570.504 383.587,-1192.33 675.53,-1865.52c292.855,-675.279 540.917,-1183.46 744.191,-1524.55c203.275,-341.088 363.482,-573.644 480.623,-697.678c234.277,-248.062 465.117,-372.09 692.506,-372.09c158.487,0 265.288,113.694 320.415,341.083c6.888,41.346 10.334,93.027 10.334,155.041c-0,234.281 -82.687,530.577 -248.062,888.892c-592.592,1316.11 -1298.88,2349.7 -2118.87,3100.78c-6.893,27.561 -37.9,122.308 -93.021,284.236c-55.127,161.934 -101.64,316.969 -139.54,465.117c-37.895,148.153 -56.847,296.301 -56.847,444.449c-0,148.148 34.453,285.962 103.36,413.436c68.907,127.475 179.155,191.215 330.749,191.215c248.062,0 489.237,-167.095 723.518,-501.291c234.282,-334.195 482.344,-759.692 744.186,-1276.49c55.127,-96.472 106.807,-134.367 155.041,-113.699c34.453,27.566 41.346,63.74 20.673,108.527c-20.673,44.793 -63.74,141.261 -129.201,289.408c-65.46,148.148 -113.694,251.509 -144.701,310.082c-31.007,58.567 -86.134,161.928 -165.375,310.076c-79.246,148.148 -148.148,258.396 -206.721,330.749c-58.568,72.353 -137.814,165.375 -237.728,279.069c-99.914,113.7 -194.656,198.108 -284.236,253.234c-241.174,151.594 -468.563,227.389 -682.171,227.389c-213.609,-0 -378.988,-46.513 -496.129,-139.535c-117.141,-93.021 -187.769,-192.935 -211.883,-299.742c-24.119,-106.806 -36.179,-201.548 -36.179,-284.241c-0,-82.687 3.446,-189.489 10.339,-320.41c5.836,-62.291 13.463,-124.034 22.882,-185.233c-43.55,77.677 -94.249,165.259 -152.083,262.753c-120.587,203.27 -232.561,363.477 -335.916,480.618c-268.735,303.189 -532.303,454.783 -790.704,454.783c-258.396,-0 -435.83,-113.695 -532.298,-341.088c-41.346,-103.356 -62.014,-234.282 -62.014,-392.764c-0,-158.487 34.453,-354.869 103.355,-589.15c-503.011,881.999 -968.133,1323 -1395.35,1323c-372.096,-0 -589.151,-155.041 -651.165,-465.117c-20.673,-34.453 -31.007,-75.8 -31.007,-124.033c0,-141.482 29.065,-297.101 87.18,-466.818c-420.611,717.747 -835.557,1076.64 -1244.81,1076.64c6.892,110.248 10.339,291.129 10.339,542.637c-0,251.508 -62.02,625.324 -186.048,1121.45c-124.033,496.124 -332.475,940.573 -625.324,1333.34c-292.855,392.769 -608.098,589.151 -945.74,589.151c-378.983,-0 -568.477,-189.494 -568.477,-568.477c-0,-544.363 354.868,-1653.75 1064.6,-3328.18c-18.299,-30.494 -34.574,-59.816 -48.823,-87.96c-299.852,286.017 -648.799,429.048 -1046.79,429.048c-275.628,0 -509.91,-89.58 -702.845,-268.735c-192.94,-179.155 -289.408,-423.776 -289.408,-733.852c-0,-48.621 1.821,-97.705 5.464,-147.252c-130.333,234.256 -247.579,422.89 -351.72,565.856c-203.269,279.074 -480.617,501.296 -832.04,666.67c-165.374,468.564 -404.823,933.68 -718.35,1395.35c-313.523,461.675 -708.012,868.219 -1183.46,1219.64c-475.456,351.423 -947.46,527.136 -1416.02,527.136c-647.724,0 -971.58,-265.288 -971.58,-795.871c-0,-440.997 299.742,-837.212 899.226,-1188.63c509.905,-296.301 1161.07,-575.37 1953.49,-837.212c365.203,-117.141 630.491,-210.168 795.866,-279.074c179.16,-523.685 268.735,-1095.61 268.735,-1715.77c-0,-124.029 -6.888,-217.055 -20.673,-279.069c-192.936,392.763 -458.224,795.866 -795.866,1209.31c-399.656,496.123 -795.866,689.059 -1188.63,578.811c-358.31,-151.594 -537.47,-447.89 -537.47,-888.893c0,-42.906 1.555,-86.113 4.674,-129.628c-176.066,299.088 -334.387,526.628 -474.958,682.599c-251.508,279.075 -503.016,418.609 -754.525,418.609c-251.508,0 -442.723,-96.468 -573.644,-289.408c-68.907,-89.575 -103.36,-211.888 -103.36,-366.923c-0,-155.041 34.453,-342.809 103.36,-563.311c68.907,-220.501 258.401,-578.811 568.477,-1074.94c75.8,-124.028 113.695,-222.222 113.695,-294.57c-0,-72.353 -58.568,-108.527 -175.709,-108.527c-117.141,-0 -341.088,155.035 -671.837,465.117c-496.124,454.777 -975.022,1136.95 -1436.7,2046.51c-41.341,68.907 -87.854,111.974 -139.535,129.201c-51.68,17.227 -153.314,29.281 -304.909,36.174c-151.594,6.893 -251.508,24.119 -299.742,51.68c52.158,-104.316 128.225,-260.303 228.214,-468.02c-301.729,291.335 -653.433,437.013 -1055.09,437.013c-275.623,0 -509.904,-89.58 -702.845,-268.735c-192.935,-179.155 -289.403,-423.776 -289.403,-733.852c0,-310.076 74.074,-639.105 222.222,-987.081c148.148,-347.981 349.702,-671.837 604.651,-971.579c254.955,-299.742 547.804,-518.523 878.559,-656.332c158.482,-68.907 310.076,-103.36 454.777,-103.36c144.707,-0 279.075,41.341 403.103,124.028c117.141,96.473 175.714,203.275 175.714,320.415c-0,413.437 -248.062,809.652 -744.191,1188.63c-151.594,117.141 -365.203,222.222 -640.826,315.248c-275.627,93.022 -485.789,139.535 -630.496,139.535c-96.468,234.281 -144.702,496.124 -144.702,785.532c0,192.935 43.067,346.25 129.201,459.95c86.134,113.694 208.441,170.541 366.923,170.541c627.05,0 1195.53,-589.15 1705.43,-1767.45c20.371,-46.558 42.584,-82.058 66.638,-106.494c369.982,-734.546 623.397,-1167.62 760.24,-1299.19c82.687,-82.687 196.382,-124.033 341.083,-124.033c27.566,-0 98.194,10.339 211.888,31.012c113.695,20.668 198.108,24.114 253.229,10.334c-254.949,137.814 -671.832,785.532 -1250.65,1943.16c323.862,-399.661 618.437,-718.351 883.726,-956.078c265.288,-237.723 583.978,-458.225 956.073,-661.499c372.096,-203.274 644.272,-304.909 816.54,-304.909c41.346,-0 79.241,6.887 113.694,20.668c-847.546,1488.38 -1271.32,2459.96 -1271.32,2914.74c0,179.155 65.461,268.735 196.382,268.735c316.979,0 732.076,-484.939 1245.23,-1454.76c141.683,-385.992 391.561,-793.431 749.605,-1222.25c323.861,-385.876 702.844,-630.492 1136.95,-733.852c117.141,-34.453 234.281,-51.68 351.422,-51.68c310.076,-0 613.265,103.36 909.566,310.081c110.248,89.575 165.374,165.375 165.374,227.389c0,62.014 -20.673,122.308 -62.019,180.881c-41.341,58.567 -84.408,65.46 -129.195,20.668c-44.793,-44.788 -74.074,-87.855 -87.86,-129.196c-89.575,-254.954 -234.281,-382.429 -434.109,-382.429c-365.203,-0 -775.193,254.949 -1229.98,764.859c-254.955,289.403 -475.451,599.484 -661.499,930.233c-227.394,413.437 -341.088,732.131 -341.088,956.074c0,223.947 68.907,373.816 206.721,449.616c48.234,20.673 96.468,31.007 144.701,31.007c158.487,-0 356.59,-108.528 594.318,-325.583c237.728,-217.054 458.229,-492.682 661.498,-826.878c203.275,-334.195 332.475,-594.312 387.602,-780.36c55.121,-186.047 122.308,-303.188 201.548,-351.422c79.241,-48.234 167.101,-75.8 263.569,-82.687c96.467,-6.893 161.928,-24.12 196.381,-51.681c55.127,310.077 82.688,673.559 82.688,1090.44c-0,416.883 -72.354,890.613 -217.055,1421.19c316.969,-227.389 542.637,-430.663 677.004,-609.818c134.368,-179.155 241.175,-341.089 320.416,-485.79c74.461,-135.978 141.32,-270.436 200.567,-403.364c25.84,-76.459 55.459,-153.899 88.836,-232.295c148.153,-347.981 349.701,-671.837 604.656,-971.579c254.95,-299.742 547.804,-518.523 878.553,-656.332c158.487,-68.907 310.077,-103.36 454.783,-103.36c144.702,-0 279.069,41.341 403.103,124.028c117.14,96.473 175.708,203.275 175.708,320.415c0,413.437 -248.062,809.652 -744.185,1188.63c-151.595,117.141 -365.203,222.222 -640.831,315.248c-275.623,93.022 -485.79,139.535 -630.491,139.535c-96.468,234.281 -144.702,496.124 -144.702,785.532c0,192.935 43.062,346.25 129.196,459.95c86.133,113.694 208.441,170.541 366.928,170.541c311.203,0 607.982,-145.114 890.331,-435.347c-0.961,-10.198 -1.439,-20.125 -1.439,-29.77c0,-289.408 65.461,-482.343 196.382,-578.816c96.468,-82.687 177.435,-124.028 242.895,-124.028c33.744,-0 61.536,0.915 83.377,2.757c99.984,-179.814 197.971,-380.603 293.886,-602.242c23.334,-53.34 49.089,-92.166 77.263,-116.471c656.412,-1450.65 1254.28,-2679.75 1793.54,-3687.16c124.028,-248.062 251.508,-430.669 382.429,-547.809c130.921,-117.141 296.296,-175.709 496.124,-175.709c27.561,0 96.468,10.334 206.721,31.007c110.248,20.673 192.935,27.561 248.062,20.673c-323.862,303.189 -778.644,971.58 -1364.35,2005.17c-585.699,1033.59 -1140.4,2139.54 -1664.09,3317.84c158.487,192.935 268.735,451.336 330.749,775.198l31.008,134.362l31.012,0c186.042,0 382.429,-108.522 589.145,-325.577c206.721,-217.055 375.542,-441.002 506.463,-671.838c130.921,-230.835 237.728,-434.109 320.415,-609.823c4.307,-9.152 8.533,-18.087 12.679,-26.816c2.369,-6.365 5.031,-12.925 7.994,-19.692l23.627,-45.945c23.878,-48.782 44.219,-88.342 61.033,-118.68l101.383,-197.137c234.282,-447.89 427.222,-826.873 578.816,-1136.95c68.907,-144.701 203.275,-217.055 403.103,-217.055l630.491,0c-248.062,179.16 -497.849,525.411 -749.358,1038.77c-251.508,513.351 -446.169,916.453 -583.978,1209.3c-137.814,292.854 -206.721,515.076 -206.721,666.67c0,151.595 25.84,258.396 77.521,320.416c51.68,62.014 122.307,93.021 211.887,93.021c130.922,0 313.523,-137.814 547.804,-413.437c365.203,-427.222 878.554,-1326.45 1540.06,-2697.68c75.795,-144.701 210.163,-217.055 403.098,-217.055l558.143,0c-151.594,117.141 -270.456,237.728 -356.589,361.762c-86.134,124.028 -204.995,344.529 -356.59,661.498c-413.441,826.878 -644.276,1374.68 -692.51,1643.42c-20.673,96.467 -31.007,186.042 -31.007,268.735c-0,220.496 75.799,337.636 227.388,351.417c372.096,-0 830.325,-575.365 1374.68,-1726.1c3.934,-9.187 7.873,-17.835 11.808,-25.956Zm-6978.24,5049.23c0.005,199.828 55.126,299.742 165.38,299.742c130.921,-0 311.796,-153.315 542.637,-459.95c230.835,-306.635 427.217,-726.959 589.145,-1260.98c161.933,-534.024 242.895,-1018.09 242.895,-1452.2l-0,-103.361l-93.022,0c-199.828,0 -368.649,-55.121 -506.462,-165.374c-627.046,1584.84 -940.568,2632.22 -940.573,3142.13Zm-10718.5,-1.293c-96.468,82.687 -203.269,124.028 -320.41,124.028c-117.141,0 -210.167,-41.341 -279.074,-124.028c-68.907,-82.688 -96.468,-182.602 -82.687,-299.743c20.673,-117.14 79.241,-217.054 175.713,-299.742c96.468,-82.687 203.275,-124.033 320.415,-124.033c117.141,-0 211.883,41.346 284.237,124.033c72.353,82.688 98.193,182.602 77.52,299.742c-20.673,117.141 -79.241,217.055 -175.714,299.743Zm3886.43,-360.464c-0,261.843 168.821,392.764 506.458,392.764c199.833,-0 425.501,-58.568 677.004,-175.709c251.509,-117.141 459.95,-237.728 625.325,-361.761c282.52,-227.389 592.596,-565.031 930.238,-1012.92c254.95,-358.315 451.337,-706.291 589.146,-1043.93l-361.757,124.033c-1074.93,372.096 -1832.91,702.845 -2273.91,992.253c-323.856,213.609 -537.465,485.785 -640.825,816.539c-34.453,103.356 -51.68,192.936 -51.68,268.735Zm8289.41,-2811.38l62.014,0c-20.668,-296.295 -103.356,-534.023 -248.062,-713.178l-227.389,516.797c68.907,130.921 206.721,196.381 413.437,196.381Zm-10635.7,-3100.78c-0,-137.814 -55.122,-206.721 -165.375,-206.721c-192.935,-0 -485.79,237.728 -878.553,713.178c-234.282,289.409 -441.003,613.27 -620.158,971.58c117.141,0 287.683,-41.341 511.63,-124.028c223.948,-82.688 418.604,-192.941 583.978,-330.755c378.989,-323.856 568.478,-664.944 568.478,-1023.25Zm10056.9,-0c0,-137.814 -55.126,-206.721 -165.374,-206.721c-192.941,-0 -485.79,237.728 -878.559,713.178c-234.281,289.409 -440.997,613.27 -620.152,971.58c117.141,0 287.682,-41.341 511.625,-124.028c223.947,-82.688 418.608,-192.941 583.983,-330.755c378.983,-323.856 568.477,-664.944 568.477,-1023.25Zm6739.05,919.899c351.423,-358.315 699.399,-809.651 1043.93,-1354.01c344.53,-544.363 597.759,-1007.75 759.692,-1390.18c161.928,-382.429 242.89,-642.551 242.89,-780.365c0,-137.813 -24.114,-206.72 -72.348,-206.72c-68.907,-0 -199.828,136.093 -392.769,408.269c-192.935,272.182 -453.057,761.418 -780.36,1467.7c-327.308,706.291 -594.317,1324.72 -801.038,1855.31Z" style="fill:#fff;fill-rule:nonzero;"/></svg>