<?xml version="1.0" encoding="utf-8"?>
<!-- Generator: Adobe Illustrator 28.0.0, SVG Export Plug-In . SVG Version: 6.00 Build 0)  -->
<svg version="1.1" id="Layer_1" xmlns:serif="http://www.serif.com/"
	 xmlns="http://www.w3.org/2000/svg" xmlns:xlink="http://www.w3.org/1999/xlink" x="0px" y="0px" viewBox="0 0 365.5 604.4"
	 style="enable-background:new 0 0 365.5 604.4;" xml:space="preserve">
<style type="text/css">
	.st0{fill-rule:evenodd;clip-rule:evenodd;fill:#A32F2F;}
	.st1{fill:#2C2C2C;}
</style>
<g id="Wine-2---4" serif:id="Wine 2 + 4">
	<path class="st0" d="M340.8,145.1c5.8,2.6,6-63.1-20.7-62.6c-23.2,0.4-31,18.8-21.9,18.8c5.6,0,30.3-15.3,35.2,6.5
		C339.1,132.9,335.8,142.9,340.8,145.1L340.8,145.1z"/>
	<path class="st0" d="M322.8,101.5c-1.8-5-47,7.5-45.3,28.7c0.9,11.6,16.6,7.7,15.4-1.8C291.5,117.1,306.3,108.5,322.8,101.5
		L322.8,101.5z"/>
	<path class="st0" d="M194.8,199c-15.5,36,83,1,114.9-35.3c18.8-21.3,33.1-51,15.9-65.6c-3.9-3.3-11.6-1.3-15.6-1.5
		c-9.7-0.5,18.7-14.7,20.4-12.5c13.6,17.7,27.8,45.1,0.1,85.8c-20.5,30-51.4,118.1-143.8,140.5C166.1,315.4,173.8,250,194.8,199
		L194.8,199z"/>
</g>
<path id="Logo-2" serif:id="Logo 2" class="st1" d="M185.9,315.1c-1.8,0-3.6-0.3-5.4-0.7c-10.7-2-16.1-11.5-16.1-28.5
	c0-27.5,13.8-74.2,41.5-140.3c10.7-25,18.6-49.3,23.8-73c2-9.2,3-16.5,3-21.9s-0.2-9.8-0.7-12.9C231,28,227.3,21.2,221,17.4
	c-11.2-6-23.7-9-37.5-9c-14.5,0-29.8,3.6-45.9,10.7c-16.1,7.1-31.2,15.9-45.4,26.1C78.1,55.5,65.2,67.7,53.6,81.9
	c-11.6,14.2-20.3,29-26,44.5c-5.7,15.5-8.5,29.5-8.5,42c0,5.1,0.4,10,1.3,14.7c3.6,15.4,10.3,26.9,20.1,34.5
	c9.8,7.6,21.4,11.4,34.8,11.4c18.8,0,36.3-8.3,52.7-24.8c16.4-16.5,24.6-34,24.6-52.6c0-10-2-17.3-6-21.8c-4-4.5-8.1-6.7-12.4-6.7
	c-4.2,0-8.5,0.6-12.7,1.8c-4.2,1.2-6.4,1.1-6.4-0.3c0-1.5,2.6-3.3,7.7-5.7c5.1-2.3,10.5-3.5,16.1-3.5c5.6,0,10.7,1.7,15.4,5
	c8.7,6.7,13.1,16.9,13.1,30.5c0,13.6-5.2,27.3-15.6,41c-10.4,13.7-23.2,24.8-38.3,33.2c-15.2,8.4-30.2,12.6-45,12.6
	c-14.8,0-28.6-5.4-41.4-16.2c-12.7-10.8-21.2-25.4-25.5-43.7C0.6,172.5,0,166.8,0,160.7c0-14.1,3.5-29.4,10.4-45.9
	c6.9-16.5,16.9-31.9,30-46c13.1-14.2,27.2-26,42.4-35.5C97.9,23.8,114,16,130.9,9.7c17-6.5,32.9-9.7,47.9-9.7s28.6,2.3,40.9,7
	c21.7,9.4,32.5,29.2,32.5,59.6c0,22.3-8,50-24.1,83c-10,20.5-19,42.6-26.8,66.3c-11.6,35.1-17.4,59.4-17.4,73
	c0,10.3,3.5,15.4,10.4,15.4c13.8,0,38.1-18,72.7-53.9c24.3-25.2,43.4-52.9,57.3-83c8.9-19.2,13.4-36.8,13.4-52.9
	c0-8.5-0.7-14.5-2-17.9c-1.3-3.5-2.2-5.7-2.7-6.7c-0.4-1-1.3-1.9-2.7-2.7c-1.3-0.8-2.2-1.2-2.7-1.2c-3.1-0.9-6.4-1.6-9.7-2.2
	c-3.3-0.6-5.3-2.1-5.9-4.5c-0.6-2.5,0.6-3.9,3.5-4.4l6.4,0.7c10.3,2.9,19.2,10.2,26.8,21.8c4.2,6.5,6.4,14.2,6.4,23.3
	c0,9-2.1,19.7-6.4,32c-10.3,27.2-26.1,54.1-47.6,80.5c-21.4,26.5-42.6,46.7-63.5,60.8c-10,6.7-19.1,11.9-27.4,15.4
	c-0.1,0.1-0.2,0.1-0.2,0.1c-4.8,3.1-15.6,9.5-26.6,23.9c-4.6,6-8.9,13.5-13.3,22.7c-3.4,7.1-7,15.2-9.9,24.7
	c-14.9,41.4-11.1,83,7.2,117.4c6.7,12.6,15.2,24.5,25.7,34.6c4.4,4.3,9.2,8.3,14.4,11.8c16.3,11.3,35.6,18.9,56.7,23.3
	c1.6,0.4,2.9,1.5,3.7,2.9c1.7,0,3.4,0.1,5.1,0.1c13.5,0.4,28.9,1.7,43.1,4.1c21.5,3.5,40.4,9.5,47.5,15.9c1.7,1.6,2.2,4.1,1.3,6.3
	c-0.9,2.2-3,3.5-5.4,3.5c-20.5-0.5-39.7-0.1-57.9,0.4c-30.8,0.8-59.1,2.4-87.3,3.1c-20.7,0.5-41.3,0.3-62.8-1
	c-2-0.1-3.6-1.6-3.9-3.6c-0.2-2,1-3.8,3-4.4l92.6-22.5c-14.4-6.3-27.4-14.4-39.1-23.5c-5.1-4-10.1-8.1-14.8-12.4
	c-11.3-10.3-21.2-21.7-29.1-34.4c-22.5-36-29.8-80.8-17-126.9c2.8-8.6,5.7-16.3,9.2-22.9c4.4-8.3,9.3-15,14.2-20.6
	C173.4,324.5,179.9,319.1,185.9,315.1L185.9,315.1z M267.7,576.9c-1.3,2.1-3.9,3.2-6.4,2.5c-2.4-0.8-4.8-1.6-7.2-2.4
	c-3.4,0.2-6.4,0.6-9,1.1c-9.1,2.1-22.8,5.7-37,9.5c-9,2.4-18.2,5-26.4,7.3l0,0c19.2-0.5,38-1.8,57.2-2.9c18.8-1.1,38.1-2.2,58.3-2.8
	c12.3-0.4,24.9-0.5,38.1-0.4c-9.3-3.1-20.7-5.8-32.2-7.8C290.9,578.7,278.5,577.3,267.7,576.9L267.7,576.9z"/>
</svg>
