<svg width="100%" height="100%" viewBox="0 0 256 256" version="1.1" xmlns="http://www.w3.org/2000/svg" xmlns:xlink="http://www.w3.org/1999/xlink" xml:space="preserve" xmlns:serif="http://www.serif.com/" style="fill-rule:evenodd;clip-rule:evenodd;stroke-linecap:round;stroke-linejoin:round;stroke-miterlimit:1.5;">
    <g>
        <path d="M70.14,83.666l7.926,-10.341c7.323,-9.092 12.589,-6.719 20.706,-2.285l46.013,25.134c10.238,5.592 6.874,19.696 -9.202,13.709l-36.811,-15.994c-7.794,-3.789 -10.523,-1.07 -9.203,6.854l11.503,111.961c2.977,28.966 -21.154,27.669 -25.307,4.569l-11.504,-63.977l-11.503,66.262c-3.2,18.431 -27.549,20.66 -25.308,-4.57l7.171,-75.401l12.905,0.397c20.092,0.042 20.513,-30.801 0.057,-30.844l-9.259,-0.168l-2.433,-13.576l-13.042,21.342l23.007,-0c11.945,-0 10.883,13.709 2.301,13.709l-34.511,0c-11.12,0 -13.53,-8.861 -6.902,-20.564l15.791,-27.36c7.928,-14.231 14.246,-9.655 18.87,-7.285c3.472,1.78 13.276,10.5 13.276,10.5c0.017,-3.703 -1.697,-18.983 -1.697,-18.983c5.369,1.709 13.112,1.805 18.48,-0c0,-0 -1.316,13.803 -1.324,16.911Z" style="fill:none;" />
        <clipPath id="_clip1">
            <path d="M70.14,83.666l7.926,-10.341c7.323,-9.092 12.589,-6.719 20.706,-2.285l46.013,25.134c10.238,5.592 6.874,19.696 -9.202,13.709l-36.811,-15.994c-7.794,-3.789 -10.523,-1.07 -9.203,6.854l11.503,111.961c2.977,28.966 -21.154,27.669 -25.307,4.569l-11.504,-63.977l-11.503,66.262c-3.2,18.431 -27.549,20.66 -25.308,-4.57l7.171,-75.401l12.905,0.397c20.092,0.042 20.513,-30.801 0.057,-30.844l-9.259,-0.168l-2.433,-13.576l-13.042,21.342l23.007,-0c11.945,-0 10.883,13.709 2.301,13.709l-34.511,0c-11.12,0 -13.53,-8.861 -6.902,-20.564l15.791,-27.36c7.928,-14.231 14.246,-9.655 18.87,-7.285c3.472,1.78 13.276,10.5 13.276,10.5c0.017,-3.703 -1.697,-18.983 -1.697,-18.983c5.369,1.709 13.112,1.805 18.48,-0c0,-0 -1.316,13.803 -1.324,16.911Z" />
        </clipPath>
        <g clip-path="url(#_clip1)">
            <path d="M62.412,70l2.588,88l11.848,62c6.597,19.842 22.906,20.602 24.152,-1l-11,-117c-2.744,-10.723 4.076,-10.723 16,-5l26,10c20.727,8.162 24.61,-3.564 10,-14l-42,-20c-10.994,-10.734 -20.232,-2.854 -29,10l1,-16.245l-9.588,3.245Z" style="fill-opacity:0.13;" />
        </g>
        <path d="M70.14,83.666l7.926,-10.341c7.323,-9.092 12.589,-6.719 20.706,-2.285l46.013,25.134c10.238,5.592 6.874,19.696 -9.202,13.709l-36.811,-15.994c-7.794,-3.789 -10.523,-1.07 -9.203,6.854l11.503,111.961c2.977,28.966 -21.154,27.669 -25.307,4.569l-11.504,-63.977l-11.503,66.262c-3.2,18.431 -27.549,20.66 -25.308,-4.57l7.171,-75.401l12.905,0.397c20.092,0.042 20.513,-30.801 0.057,-30.844l-9.259,-0.168l-2.433,-13.576l-13.042,21.342l23.007,-0c11.945,-0 10.883,13.709 2.301,13.709l-34.511,0c-11.12,0 -13.53,-8.861 -6.902,-20.564l15.791,-27.36c7.928,-14.231 14.246,-9.655 18.87,-7.285c3.472,1.78 13.276,10.5 13.276,10.5c0.017,-3.703 -1.697,-18.983 -1.697,-18.983c5.369,1.709 13.112,1.805 18.48,-0c0,-0 -1.316,13.803 -1.324,16.911Z" style="fill:none;stroke:#000;stroke-width:4.91px;" />
        <path id="stolish" d="M163.822,162.151l-10.984,-0c-4.444,-0 -8.053,-3.584 -8.053,-7.997c0,-4.414 3.609,-7.998 8.053,-7.998l62.118,0c4.445,0 8.053,3.584 8.053,7.998c-0,4.413 -3.608,7.997 -8.053,7.997l-12.243,-0l38.008,61.524c2.325,3.762 1.136,8.691 -2.652,10.999c-3.788,2.308 -8.751,1.128 -11.075,-2.635l-35.045,-56.726l0,53.1c0,4.414 -3.608,7.997 -8.052,7.997c-4.444,0 -8.052,-3.583 -8.052,-7.997l-0,-55.138l-35.961,58.209c-2.324,3.762 -7.286,4.942 -11.074,2.634c-3.789,-2.308 -4.977,-7.237 -2.653,-10.999l37.665,-60.968Z" style="fill:none;" />
        <clipPath id="_clip2">
            <path d="M163.822,162.151l-10.984,-0c-4.444,-0 -8.053,-3.584 -8.053,-7.997c0,-4.414 3.609,-7.998 8.053,-7.998l62.118,0c4.445,0 8.053,3.584 8.053,7.998c-0,4.413 -3.608,7.997 -8.053,7.997l-12.243,-0l38.008,61.524c2.325,3.762 1.136,8.691 -2.652,10.999c-3.788,2.308 -8.751,1.128 -11.075,-2.635l-35.045,-56.726l0,53.1c0,4.414 -3.608,7.997 -8.052,7.997c-4.444,0 -8.052,-3.583 -8.052,-7.997l-0,-55.138l-35.961,58.209c-2.324,3.762 -7.286,4.942 -11.074,2.634c-3.789,-2.308 -4.977,-7.237 -2.653,-10.999l37.665,-60.968Z" />
        </clipPath>
        <g clip-path="url(#_clip2)">
            <path d="M183.897,146.156l0,90.254c10.547,0.694 8.355,-25.387 9.103,-60.41c12.084,21.296 24.132,42.627 40,60.41c5.484,-0.398 8.226,-4.146 8.91,-10.41l-37.91,-65c10.662,2.834 16.604,0.033 19,-7c-0.635,-8.401 -18.406,-8.805 -39.103,-7.844" style="fill-opacity:0.13;" />
        </g>
        <path d="M163.822,162.151l-10.984,-0c-4.444,-0 -8.053,-3.584 -8.053,-7.997c0,-4.414 3.609,-7.998 8.053,-7.998l62.118,0c4.445,0 8.053,3.584 8.053,7.998c-0,4.413 -3.608,7.997 -8.053,7.997l-12.243,-0l38.008,61.524c2.325,3.762 1.136,8.691 -2.652,10.999c-3.788,2.308 -8.751,1.128 -11.075,-2.635l-35.045,-56.726l0,53.1c0,4.414 -3.608,7.997 -8.052,7.997c-4.444,0 -8.052,-3.583 -8.052,-7.997l-0,-55.138l-35.961,58.209c-2.324,3.762 -7.286,4.942 -11.074,2.634c-3.789,-2.308 -4.977,-7.237 -2.653,-10.999l37.665,-60.968Z" style="fill:none;stroke:#000;stroke-width:4.9px;" />
        <ellipse cx="62.412" cy="38.389" rx="23.007" ry="22.849" style="fill:none;" />
        <clipPath id="_clip3">
            <ellipse cx="62.412" cy="38.389" rx="23.007" ry="22.849" />
        </clipPath>
        <g clip-path="url(#_clip3)">
            <path d="M62.412,15.54l-0,45.698c12.06,-0.089 20.28,-6.76 23.007,-22.849c-2.114,-13.616 -9.783,-21.233 -23.007,-22.849Z" style="fill-opacity:0.13;" />
        </g>
        <ellipse cx="62.412" cy="38.389" rx="23.007" ry="22.849" style="fill:none;stroke:#000;stroke-width:4.9px;" />
    </g>
    <g>
        <path id="board" d="M252.918,54.121c-0,-3.273 -2.676,-5.93 -5.972,-5.93l-126.098,-0c-3.296,-0 -5.971,2.657 -5.971,5.93l-0,17.397l30.609,16.376c0,-0 17.306,7.307 12.678,21.482c-5.488,16.809 -21.129,9.882 -21.129,9.882l-21.916,-8.257l-0.242,22.655c-0,3.273 2.675,5.931 5.971,5.931l126.098,-0c3.296,-0 5.972,-2.658 5.972,-5.931l-0,-79.535Zm-11.008,71.042c0,-3.036 -2.464,-5.5 -5.5,-5.5l-69.387,-0c-3.036,-0 -5.5,2.464 -5.5,5.5c-0,3.035 2.464,5.5 5.5,5.5l69.387,-0c3.036,-0 5.5,-2.465 5.5,-5.5Zm0,-19.425c0,-3.035 -2.464,-5.5 -5.5,-5.5l-55.586,0c-3.036,0 -5.5,2.465 -5.5,5.5c-0,3.036 2.464,5.5 5.5,5.5l55.586,0c3.036,0 5.5,-2.464 5.5,-5.5Zm0,-20c0,-3.035 -2.464,-5.5 -5.5,-5.5l-65.387,0c-3.036,0 -5.5,2.465 -5.5,5.5c-0,3.036 2.464,5.5 5.5,5.5l65.387,0c3.036,0 5.5,-2.464 5.5,-5.5Zm0,-21c0,-3.035 -2.464,-5.5 -5.5,-5.5l-69.387,0c-3.036,0 -5.5,2.465 -5.5,5.5c-0,3.036 2.464,5.5 5.5,5.5l69.387,0c3.036,0 5.5,-2.464 5.5,-5.5Z" style="fill:none;" />
        <clipPath id="_clip4">
            <path id="board1" serif:id="board" d="M252.918,54.121c-0,-3.273 -2.676,-5.93 -5.972,-5.93l-126.098,-0c-3.296,-0 -5.971,2.657 -5.971,5.93l-0,17.397l30.609,16.376c0,-0 17.306,7.307 12.678,21.482c-5.488,16.809 -21.129,9.882 -21.129,9.882l-21.916,-8.257l-0.242,22.655c-0,3.273 2.675,5.931 5.971,5.931l126.098,-0c3.296,-0 5.972,-2.658 5.972,-5.931l-0,-79.535Zm-11.008,71.042c0,-3.036 -2.464,-5.5 -5.5,-5.5l-69.387,-0c-3.036,-0 -5.5,2.464 -5.5,5.5c-0,3.035 2.464,5.5 5.5,5.5l69.387,-0c3.036,-0 5.5,-2.465 5.5,-5.5Zm0,-19.425c0,-3.035 -2.464,-5.5 -5.5,-5.5l-55.586,0c-3.036,0 -5.5,2.465 -5.5,5.5c-0,3.036 2.464,5.5 5.5,5.5l55.586,0c3.036,0 5.5,-2.464 5.5,-5.5Zm0,-20c0,-3.035 -2.464,-5.5 -5.5,-5.5l-65.387,0c-3.036,0 -5.5,2.465 -5.5,5.5c-0,3.036 2.464,5.5 5.5,5.5l65.387,0c3.036,0 5.5,-2.464 5.5,-5.5Zm0,-21c0,-3.035 -2.464,-5.5 -5.5,-5.5l-69.387,0c-3.036,0 -5.5,2.465 -5.5,5.5c-0,3.036 2.464,5.5 5.5,5.5l69.387,0c3.036,0 5.5,-2.464 5.5,-5.5Z" />
        </clipPath>
        <g clip-path="url(#_clip4)">
            <rect x="183.897" y="44.389" width="112.255" height="112.255" style="fill-opacity:0.13;" />
        </g>
        <path id="board2" serif:id="board" d="M252.918,54.121c-0,-3.273 -2.676,-5.93 -5.972,-5.93l-126.098,-0c-3.296,-0 -5.971,2.657 -5.971,5.93l-0,17.397l30.609,16.376c0,-0 17.306,7.307 12.678,21.482c-5.488,16.809 -21.129,9.882 -21.129,9.882l-21.916,-8.257l-0.242,22.655c-0,3.273 2.675,5.931 5.971,5.931l126.098,-0c3.296,-0 5.972,-2.658 5.972,-5.931l-0,-79.535Zm-11.008,71.042c0,-3.036 -2.464,-5.5 -5.5,-5.5l-69.387,-0c-3.036,-0 -5.5,2.464 -5.5,5.5c-0,3.035 2.464,5.5 5.5,5.5l69.387,-0c3.036,-0 5.5,-2.465 5.5,-5.5Zm0,-19.425c0,-3.035 -2.464,-5.5 -5.5,-5.5l-55.586,0c-3.036,0 -5.5,2.465 -5.5,5.5c-0,3.036 2.464,5.5 5.5,5.5l55.586,0c3.036,0 5.5,-2.464 5.5,-5.5Zm0,-20c0,-3.035 -2.464,-5.5 -5.5,-5.5l-65.387,0c-3.036,0 -5.5,2.465 -5.5,5.5c-0,3.036 2.464,5.5 5.5,5.5l65.387,0c3.036,0 5.5,-2.464 5.5,-5.5Zm0,-21c0,-3.035 -2.464,-5.5 -5.5,-5.5l-69.387,0c-3.036,0 -5.5,2.465 -5.5,5.5c-0,3.036 2.464,5.5 5.5,5.5l69.387,0c3.036,0 5.5,-2.464 5.5,-5.5Z" style="fill:none;stroke:#000;stroke-width:4.9px;" />
    </g>
</svg>