<svg width="100%" height="100%" viewBox="0 0 256 256" version="1.1" xmlns="http://www.w3.org/2000/svg" xmlns:xlink="http://www.w3.org/1999/xlink" xml:space="preserve" xmlns:serif="http://www.serif.com/" style="fill-rule:evenodd;clip-rule:evenodd;stroke-linecap:round;stroke-linejoin:round;stroke-miterlimit:1.5;">
    <g>
        <g id="menneske">
            <path d="M39.004,212.531l-33.504,18.428l-0,18.846l67.427,-0l-0.418,-20.103l-33.505,-17.171Z" style="fill:none;stroke:#000;stroke-width:8.9px;" />
            <path d="M38.167,207.506l-20.103,-8.376l0,-28.479l21.778,-12.564l20.521,11.727l0,27.641l-22.196,10.051Z" style="fill:none;stroke:#000;stroke-width:8.9px;" />
            <path d="M40.684,161.395l1.005,86.777l30.154,0.67l-1.341,-18.093l-29.24,-19.419l19.524,-17.435l-2.01,-24.794l-18.092,-7.706Z" style="fill-opacity:0.13;" />
        </g>
        <g id="menneske1" serif:id="menneske">
            <path d="M128.796,212.531l-33.505,18.428l0,18.846l67.428,-0l-0.419,-20.103l-33.504,-17.171Z" style="fill:none;stroke:#000;stroke-width:8.9px;" />
            <path d="M127.958,207.506l-20.102,-8.376l-0,-28.479l21.777,-12.564l20.522,11.727l-0,27.641l-22.197,10.051Z" style="fill:none;stroke:#000;stroke-width:8.9px;" />
            <path d="M130.475,161.395l1.005,86.777l30.154,0.67l-1.34,-18.093l-29.241,-19.419l19.525,-17.435l-2.011,-24.794l-18.092,-7.706Z" style="fill-opacity:0.13;" />
        </g>
        <g id="menneske2" serif:id="menneske">
            <path d="M216.577,212.531l-33.504,18.428l-0,18.846l67.427,-0l-0.419,-20.103l-33.504,-17.171Z" style="fill:none;stroke:#000;stroke-width:8.9px;" />
            <path d="M215.739,207.506l-20.102,-8.376l-0,-28.479l21.778,-12.564l20.521,11.727l-0,27.641l-22.197,10.051Z" style="fill:none;stroke:#000;stroke-width:8.9px;" />
            <path d="M218.256,161.395l1.005,86.777l30.154,0.67l-1.34,-18.093l-29.24,-19.419l19.524,-17.435l-2.01,-24.794l-18.093,-7.706Z" style="fill-opacity:0.13;" />
        </g>
        <path d="M52.681,121.743l155.088,-0" style="fill:none;stroke:#000;stroke-width:8.9px;" />
        <path d="M54.644,75.936l152.471,0.654" style="fill:none;stroke:#000;stroke-width:8.9px;" />
        <path d="M161.962,26.203l-1.308,106.01" style="fill:none;stroke:#000;stroke-width:8.9px;" />
        <path d="M94.561,23.586l1.309,110.59" style="fill:none;stroke:#000;stroke-width:8.9px;" />
        <path d="M54.805,139.116l-10.225,-40.899l20.45,-61.348l61.348,-30.674l71.573,36.973l18.486,57.912l-10.879,32.392" style="fill:none;stroke:#000;stroke-width:8.9px;" />
        <path d="M128.628,11.925l0,120.615l74.547,0l12.146,-30.991l-18.009,-59.052l-68.684,-30.572Z" style="fill-opacity:0.13;" />
    </g>
</svg>