<svg width="100%" height="100%" viewBox="0 0 256 256" version="1.1" xmlns="http://www.w3.org/2000/svg" xmlns:xlink="http://www.w3.org/1999/xlink" xml:space="preserve" xmlns:serif="http://www.serif.com/" style="fill-rule:evenodd;clip-rule:evenodd;stroke-linejoin:round;stroke-miterlimit:2;">
    <g id="Joined">
        <path d="M233.851,156.17c-3.827,5.999 -10.525,9.984 -18.167,9.984c-7.834,-0 -14.672,-4.186 -18.449,-10.432c-0.365,-0.606 -1.009,-0.506 -1.009,0.169l-0,35.73c-0,-0 0.071,1.796 -0.317,3.418c-0.507,2.124 -2.009,3.479 -2.432,4.245c-0.423,0.766 -0.507,1.718 -0.105,1.85c0.379,0.124 1.727,-0.881 5.637,-0.881c8.24,0.223 10.975,2.038 14.341,5.524c5.496,6.606 4.759,11.008 1.77,11.874c-1.593,0.462 -3.38,-0.582 -3.38,-2.432c-0,-1.942 1.383,-2.934 2.712,-3.244c0,0 -4.642,-8.304 -14.262,-8.568c-6.393,-0.176 -11.054,1.543 -16.49,6.131c-4.739,3.998 -12.13,16.253 -25.951,26.759c-11.908,9.055 -36.217,17.635 -36.217,17.635c0,0 0.915,0.519 1.181,0.682c0.254,0.152 0.974,0.284 1.133,0.284c0.157,-0 0.545,-0.102 0.545,-0.102l38.287,-13.934c0.131,-1.552 1.419,-2.777 3.007,-2.777c0.842,0 1.603,0.345 2.153,0.898l8.431,-3.068c-0.022,-0.194 -0.06,-0.382 -0.06,-0.582c0,-2.978 2.414,-5.391 5.39,-5.391c1.871,-0 3.518,0.955 4.484,2.401l49.184,-17.9c-0,-0 0.95,-0.398 1.483,-0.592c0.533,-0.193 0.524,-1.58 0.117,-1.896c-0.327,-0.252 -1.715,-1.307 -1.715,-19.947c-0,-0.287 -0.004,-15.827 -0.009,-35.851c0,-0.767 -0.815,-0.733 -1.292,0.013Zm-161.08,69.607c-0.563,-0.324 -0.267,-2.039 0.282,-2.577c1.112,-1.084 1.403,-4.8 1.403,-23.123l-0,-37.159l38.899,-14.158l-0,61.429c-0,9.539 16.779,15.463 18.959,16.141c8.382,2.605 24.237,1.301 30.986,-8.654c3.118,-4.6 3.367,-15.607 -5.382,-16.077c-5.982,-0.321 -10.985,4.177 -10.034,9.929c0.537,-0.854 1.934,-1.256 2.968,-0.617c1.111,0.688 1.268,2.248 0.979,3.066c-0.314,0.885 -1.387,1.516 -2.319,1.516c-4.182,-0 -3.654,-8.069 -1.884,-10.713c1.336,-1.994 4.032,-5.074 9.857,-5.206c5.463,-0.123 10.075,2.262 12.137,5.221c1.398,2.01 4.627,9.516 -1.108,17.815c-14.209,18.551 -48.778,30.283 -48.778,30.283l-45.28,-26.143c-0,-0 -1.122,-0.648 -1.685,-0.973Zm-20.312,-0.955c0.036,-0.081 0.215,-0.761 0.063,-0.841c-0.53,0.9 -1.825,0.159 -1.825,-0.527c-0,-0.687 0.556,-1.164 1.268,-1.164c0.714,-0 1.587,1.025 1.414,2.309c-0.318,2.35 -2.616,2.35 -3.739,1.814c-1.548,-0.739 -1.647,-2.995 -0.748,-4.052c0.924,-1.089 2.488,-1.51 4.017,-1.084c1.612,0.45 3.925,2.085 4.228,6.237c0.344,4.731 -4.017,10.464 -13.266,13.212c-9.052,2.691 -24.633,0.232 -32.31,-13.377c-2.326,-4.122 -25.88,-49.21 62.893,-82.096c15.523,-5.751 52.43,-19.083 52.43,-19.083l-0,6.946c-0,0 -27.588,9.141 -45.968,15.942c-22.5,8.326 -51.363,20.532 -59.243,34.571c6.501,-7.72 23.891,-18.709 52.624,-29.022c17.611,-6.322 52.587,-18.973 52.587,-18.973l-0,2.96c-0,0 -49.061,17.855 -52.43,19.081c-2.031,0.739 -19.747,7.658 -36.662,16.828c-8.033,4.355 -23.559,16.035 -25.703,33.749c-3.806,31.429 23.314,33.242 29.668,31.718c7.775,-1.865 16.116,-8.204 13.934,-14.358c-0.722,-2.037 -2.297,-3.686 -4.105,-3.674c-1.686,0.01 -2.298,1.189 -2.298,2.246c0,0.655 0.538,1.754 1.754,1.647c0.707,-0.06 1.177,-0.473 1.417,-1.009Zm81.183,-81.329c0.002,-15.565 0.007,-32.601 0.007,-34.996c0,-5.425 4.898,-9.402 12.712,-13.992c11.673,-6.859 15.106,-5.082 15.106,-5.082c0,0 -2.325,1.642 -3.901,4.183c-1.316,2.117 -1.93,5.077 -1.93,6.159l-0,36.502c1.196,-0.393 2.331,-0.767 3.382,-1.113l0,-35.89l5.074,-1.847l0,36.053c0.784,-0.264 1.347,-0.457 1.639,-0.563c3.012,-1.096 14.487,-4.44 15.221,-9.941c0.582,-4.361 -2.351,-6.312 -5.258,-6.025c-2.405,0.237 -3.449,2.037 -3.4,3.99c0.043,1.629 1.452,2.501 2.343,2.51c0.634,0.079 1.321,-0.08 1.585,-0.792c-0.871,1.03 -2.167,0.212 -2.194,-0.793c-0.015,-0.565 0.423,-1.424 1.299,-1.424c1.047,0 1.926,0.815 1.661,2.217c-0.213,1.13 -1.387,1.487 -2.194,1.533c-1.4,0.079 -3.347,-0.936 -3.54,-3.119c-0.23,-2.571 1.673,-5.478 4.712,-5.478c3.594,-0 6.836,2.395 6.598,7.196c-0.342,6.875 -12.421,10.227 -16.833,11.817c-0.369,0.133 -0.926,0.326 -1.639,0.568l0,13.538l27.06,-9.856l0,2.959l-27.06,9.849l0,4.959l27.06,-9.849l0,6.681c0,-0 -26.39,9.584 -27.06,9.85c-0.67,0.264 -2.66,0.901 -3.729,0.304c-0.651,-0.365 -1.345,-1.008 -1.345,-2.469l0,-24.271c-1.054,0.349 -2.189,0.724 -3.382,1.117l-0,25.234c-0,3.478 -2.221,7.769 -8.404,10.986c-15.849,8.242 -17.265,5.813 -17.265,5.813c0,-0 2.032,-0.78 3.138,-3.242c0.568,-1.264 0.568,-3.515 0.544,-6.659c-0.008,-1.072 -0.009,-12.303 -0.007,-24.911c-3.471,1.143 -6.02,1.991 -6.758,2.26c-2.911,1.058 -7.809,2.964 -8.385,7.27c-0.23,1.719 0.575,4.48 3.494,5.145c1.835,0.418 3.886,-1.013 4.152,-2.784c0.297,-1.995 -1.504,-4.126 -3.41,-3.497c-1.5,0.497 -1.718,2.09 -1.202,2.804c-0.305,-1.296 0.874,-1.959 1.757,-1.377c1.084,0.714 0.751,2.351 -0.502,2.566c-0.926,0.159 -1.942,-0.619 -2.008,-1.823c-0.079,-1.428 1.017,-2.874 2.642,-2.96c2.009,-0.108 3.859,1.531 3.868,3.749c0.012,3.356 -2.928,4.592 -4.793,4.575c-3.092,-0.028 -5.901,-2.692 -5.641,-6.41c0.445,-6.364 8.37,-8.348 10.028,-8.95c0.881,-0.32 3.399,-1.163 6.758,-2.274Zm62.585,0.884c0,0.06 -0,0.122 -0,0.184c-0,0 1.103,0.153 1.388,0.078c0.699,-0.182 1.069,-0.621 1.069,-0.621c0.274,-8.649 6.997,-15.662 15.535,-16.391c0.24,4.429 0.192,15.023 0.192,15.512c0,0.611 0.552,1.265 1.272,1.265c0.719,0 1.272,-0.607 1.272,-1.265c0,-0.526 -0.047,-11.091 0.191,-15.512c8.661,0.737 15.476,7.942 15.562,16.765l0,0.189c0,9.404 -7.62,17.027 -17.024,17.027c-6.51,-0 -12.15,-3.657 -15.012,-9.025c-0.383,-0.719 -0.593,-1.128 -0.828,-1.789c-0.322,-0.347 -0.895,-0.608 -1.504,-0.293c-0.717,0.37 -0.807,1.04 -0.673,1.4c0.135,0.359 0.472,1.111 0.944,1.977c0.396,0.726 0.835,1.424 1.317,2.093c3.53,4.884 9.265,8.069 15.756,8.069c10.745,-0 19.457,-8.712 19.457,-19.459l0.001,0c-0.001,-2.523 -0.001,-5.082 -0.001,-7.658l-0,-6.611l-0.002,0c-0.007,-31.478 -0.014,-63.211 -0.014,-63.211l0,-9.62c0,-7.32 0.978,-8.764 1.656,-9.055c0.792,-0.338 0.979,-1.231 0.293,-1.627c-0.687,-0.396 -1.949,-1.111 -1.949,-1.111c0,-0 -63.717,-36.789 -66.384,-38.341c-15.5,-9.025 -43.76,-9.695 -56.097,7.585c-5.911,8.281 -9.798,23.25 -0.1,32.949c4.074,4.073 11.861,5.044 15.592,1.48c3.171,-3.03 2.783,-6.484 1.708,-7.769c-1.076,-1.286 -3.611,-1.697 -4.844,-0.547c-1.235,1.15 -1.275,3.982 0.296,4.875c0.937,0.534 3.156,1.141 4.267,-1.448c-0.318,2.133 -1.339,5.999 -8.193,5.999c-12.667,-0 -17.952,-22.481 -4.263,-36.117c4.617,-4.599 14.482,-7.822 24.628,-7.822c10.146,-0 22.891,6.536 30.942,13.354c8.05,6.819 23.549,26.779 23.549,36.908l0,87.787c0,-0.068 0,-0.137 0.001,-0.204Zm-121.772,-67.687c-0,-0 -1.061,0.385 -1.847,0.671c-0.788,0.287 -0.849,2.077 0.208,3.164c0.898,0.925 1.639,6.606 1.639,21.141l-0,36.151l38.899,-14.163l0,-29.172c0,-10.679 34.116,-34.357 37.631,-38.005c3.514,-3.646 6.553,-7.737 6.553,-14.181c0,-5.884 -2.572,-10.112 -4.439,-11.979c-1.867,-1.868 -4.863,-3.806 -9.936,-3.806c-4.325,0 -8.457,4.201 -8.457,8.315c0,4.607 2.432,8.65 7.981,8.65c3.699,0 4.599,-1.295 5.355,-2.171c0.194,3.783 -2.43,6.79 -4.325,8.646c-1.894,1.855 -7.519,4.267 -10.068,5.195c-2.548,0.927 -59.194,21.544 -59.194,21.544Zm143.553,48.573l0.004,0l-0.004,-0Zm-0.085,-0.01l0.044,0.005l-0.04,-0.005l-0.004,-0Zm-0.014,-0.002c-0.731,-0.083 -1.473,-0.126 -2.225,-0.126c-0.553,0 -1.101,0.023 -1.644,0.069c0.541,-0.046 1.09,-0.069 1.643,-0.069c0.753,0 1.495,0.043 2.226,0.126Zm-4.029,-0.043l-0.004,0l0.004,-0Zm0.08,-0.008l-0.022,0.002l0.022,-0.002Zm0.042,-0.003l-0.012,0.001l0.037,-0.003l-0.025,0.002Z" style="fill-rule:nonzero;" />
    </g>
</svg>