<svg width="100%" height="100%" viewBox="0 0 256 256" version="1.1" xmlns="http://www.w3.org/2000/svg" xmlns:xlink="http://www.w3.org/1999/xlink" xml:space="preserve" xmlns:serif="http://www.serif.com/" style="fill-rule:evenodd;clip-rule:evenodd;stroke-linejoin:round;stroke-miterlimit:10;">
    <g>
        <path d="M244.205,69.445l-142.942,-0c-4.521,-0 -8.185,2.944 -8.185,6.581l0,39.066l-15.076,19.848l166.203,-0c4.52,-0 8.185,-2.944 8.185,-6.581l-0,-52.333c-0,-3.637 -3.665,-6.581 -8.185,-6.581" style="fill:none;fill-rule:nonzero;stroke:#000;stroke-width:3px;" />
        <path d="M74.732,64.74c-6.229,-6.35 -15.851,-10.824 -30.37,-11.229c-14.52,0.405 -24.142,4.879 -30.371,11.229c-14.707,14.998 -10.874,38.875 -6.102,49.394c1.026,2.257 2.868,5.606 2.943,5.738c4.954,8.983 10.264,15.576 14.125,19.862l0,12.948l38.809,0l-0,-12.948c3.861,-4.286 9.172,-10.879 14.125,-19.862c0.076,-0.132 1.918,-3.481 2.942,-5.738c4.773,-10.519 8.607,-34.396 -6.101,-49.394Z" style="fill:none;fill-rule:nonzero;stroke:#000;stroke-width:2px;stroke-linejoin:miter;" />
        <path d="M62.536,173.09l-36.224,-0c-0.702,-0 -1.276,-0.575 -1.276,-1.276l-0,-5.676c-0,-0.702 0.574,-1.275 1.276,-1.275l36.224,-0c0.702,-0 1.276,0.573 1.276,1.275l0,5.676c0,0.701 -0.574,1.276 -1.276,1.276Z" style="fill:none;fill-rule:nonzero;stroke:#000;stroke-width:2px;stroke-linejoin:miter;" />
        <path d="M52.714,187.71l-16.457,-0c1.124,6.898 8.229,6.842 8.229,6.842c-0,-0 7.104,0.056 8.228,-6.842Z" style="fill:none;fill-rule:nonzero;stroke:#000;stroke-width:2px;stroke-linejoin:miter;" />
        <path d="M39.444,152.682l-9.301,-44.096l9.301,44.096Z" style="fill:none;fill-rule:nonzero;stroke:#000;stroke-width:1.8px;stroke-linejoin:miter;" />
        <path d="M49.733,152.682l8.905,-45.481" style="fill:none;fill-rule:nonzero;stroke:#000;stroke-width:1.8px;stroke-linejoin:miter;" />
        <path d="M31.945,117.13l8.685,-5.773l2.177,10.686l4.947,-14.444l2.968,11.869l6.135,-3.169" style="fill:none;fill-rule:nonzero;stroke:#000;stroke-width:1.8px;stroke-linejoin:miter;" />
        <path d="M53.011,187.71l-17.227,-0c-5.902,-0 -10.687,-4.785 -10.687,-10.687l0,-0.051l38.653,0c0.052,-0 0.105,-0.001 0.157,-0.002c-0.019,0.764 -0.194,4.55 -3.303,7.595c-3.078,3.015 -6.818,3.137 -7.593,3.145Z" style="fill:none;fill-rule:nonzero;stroke:#000;stroke-width:2px;stroke-linejoin:miter;" />
        <path d="M62.412,164.862l-36.225,0c-0.701,0 -1.276,-0.574 -1.276,-1.276l0,-5.675c0,-0.702 0.575,-1.276 1.276,-1.276l36.225,-0c0.702,-0 1.275,0.574 1.275,1.276l0,5.675c0,0.702 -0.573,1.276 -1.275,1.276Z" style="fill:none;fill-rule:nonzero;stroke:#000;stroke-width:2px;stroke-linejoin:miter;" />
        <path d="M103.409,80.414l-0,8.653l10.704,0l0,34.812l8.763,-0l-0,-34.812l10.677,0l0,-8.653l-30.144,-0Z" style="fill-rule:nonzero;" />
        <path d="M137.326,80.304l-0,43.627l26.208,-0l0,-8.683l-17.472,0l0,-8.763l13.104,-0l0,-8.712l-13.104,0l0,-8.758l17.472,0l0,-8.711l-26.208,0Z" style="fill-rule:nonzero;" />
        <path d="M203.356,117.754l-6.228,-6.229c-2.589,2.592 -5.717,3.885 -9.384,3.885c-3.648,-0 -6.758,-1.288 -9.329,-3.857c-2.588,-2.586 -3.882,-5.703 -3.882,-9.358c-0,-3.608 1.294,-6.731 3.882,-9.352c2.553,-2.592 5.663,-3.885 9.329,-3.885c3.614,-0 6.732,1.293 9.357,3.885l6.228,-6.229c-3.591,-3.464 -8.927,-6.443 -15.638,-6.443l0.027,-0.109c-6.04,-0 -11.226,2.164 -15.558,6.5c-4.314,4.347 -6.471,9.549 -6.471,15.61c-0,6.073 2.157,11.269 6.471,15.582c4.296,4.26 9.482,6.402 15.558,6.419c6.779,0 12.071,-2.881 15.638,-6.419Z" style="fill-rule:nonzero;" />
        <path d="M207.129,80.414l0,43.465l8.709,-0l0,-17.423l14.533,-0l0,17.423l8.709,-0l-0,-43.465l-8.709,-0l0,17.388l-14.533,0l0,-17.388l-8.709,-0Z" style="fill-rule:nonzero;" />
        <path d="M70.882,142.559l0,9.892l12.234,-0l-0,39.782l10.015,-0l-0,-39.782l12.202,-0l0,-9.892l-34.451,0Z" style="fill:none;fill-rule:nonzero;stroke:#000;stroke-width:3px;" />
        <path d="M100.09,192.233l10.785,-0l3.359,-7.55l17.01,0l3.359,7.55l10.816,-0l-22.68,-50.691l-22.649,50.691Zm18.089,-16.363l4.591,-10.508l4.53,10.508l-9.121,0Z" style="fill:none;fill-rule:nonzero;stroke:#000;stroke-width:3px;" />
        <path d="M149.729,142.559l-0,49.674l29.952,-0l-0,-9.923l-19.969,0l0,-39.751l-9.983,0Z" style="fill:none;fill-rule:nonzero;stroke:#000;stroke-width:3px;" />
        <path d="M183.99,142.559l-0,49.674l9.953,-0l-0,-20.831l14.483,20.831l12.141,-0l-17.071,-24.437l14.698,-25.237l-11.524,0l-12.727,21.971l-0,-21.971l-9.953,0Z" style="fill:none;fill-rule:nonzero;stroke:#000;stroke-width:3px;" />
        <path d="M235.683,182.499c-2.802,0 -5.816,-2.26 -5.816,-5.032l-9.913,2.109c1.13,7.398 8.075,13.033 15.759,13.033c8.362,-0 15.88,-6.765 15.88,-15.142c-0,-6.916 -5.529,-11.692 -11.797,-13.499c-3.45,-1.025 -9.115,-2.215 -9.115,-6.69c-0,-2.757 2.29,-5.047 5.062,-5.047c2.727,0 5.017,2.29 5.017,5.017l9.914,-2.094c-1.025,-7.367 -7.353,-13.032 -14.991,-13.032c-8.377,-0 -15.172,6.749 -15.172,15.126c-0,6.765 5.349,11.737 11.405,13.801c3.436,1.19 9.522,1.823 9.522,6.358c0,2.757 -3.043,5.047 -5.8,5.047l0.045,0.045Z" style="fill:none;fill-rule:nonzero;stroke:#000;stroke-width:3px;" />
    </g>
</svg>