<svg width="100%" height="100%" viewBox="0 0 256 256" version="1.1" xmlns="http://www.w3.org/2000/svg" xmlns:xlink="http://www.w3.org/1999/xlink" xml:space="preserve" xmlns:serif="http://www.serif.com/" style="fill-rule:evenodd;clip-rule:evenodd;stroke-linecap:round;stroke-linejoin:round;stroke-miterlimit:1.5;">
    <g id="koffert">
        <path d="M8.52,84l238.96,0l0,19.195l-14.482,8.31l-0,22.495l-79.998,21.574l-0.521,-44.069l-50.321,-0l-0.158,44.069l-78.998,-12.589l0,-31.48l-14.482,-7.804l-0,-19.701Z" style="fill-opacity:0.13;" />
        <path d="M80.609,60.505l11.902,-31.869l73.396,0.144l10.643,31.652" style="fill:none;stroke:#000;stroke-width:8.88px;" />
        <ellipse cx="128.685" cy="142.985" rx="5.705" ry="12.59" style="stroke:#000;stroke-width:0.99px;" />
        <path d="M23.002,111.505l0,115.859l209.996,0l-0,-115.859l14.482,-7.242l0,-43.447l-238.96,0l-0,43.447l14.482,7.242Z" style="fill:none;stroke:#000;stroke-width:8.88px;" />
        <path d="M23.002,111.505l79.654,25.344l-0,25.344l25.344,21.724l25.344,-21.724l0,-28.965l79.654,-21.723l-79.654,21.723l0,-21.723l-50.688,-0l-0,25.344" style="fill:none;stroke:#000;stroke-width:8.88px;" />
    </g>
</svg>