<?xml version="1.0" encoding="UTF-8"?>
<svg id="Online_logo_favicon" data-name="Online logo favicon" xmlns="http://www.w3.org/2000/svg" viewBox="0 0 1080 1080">
  <defs>
    <style>
      .cls-1 {
        fill: #0b5374;
      }

      .cls-1, .cls-2, .cls-3 {
        stroke-width: 0px;
      }

      .cls-2 {
        fill: #fff;
      }

      .cls-3 {
        fill: #fab759;
      }
    </style>
  </defs>
  <circle class="cls-2" cx="540" cy="540" r="540"/>
  <g>
    <path class="cls-3" d="m781.62,116.77l-221.18,327.43,217.31,2.77-423.97,540.61,169.52-436.02-215.2-.55L553.57,52.18s64.32,1.79,119.65,17.36c55.18,15.53,108.4,47.22,108.4,47.22Z"/>
    <path class="cls-1" d="m829.64,149.24c18.19,13.67,35.56,28.7,52.13,45.1,45.83,46.27,80.99,98.91,105.49,157.89,24.5,58.98,36.75,120.91,36.75,185.79s-12.25,126.69-36.75,185.45c-24.5,58.75-59.66,111.27-105.49,157.55-46.28,46.28-98.9,81.67-157.89,106.17-58.98,24.5-120.91,36.75-185.79,36.75-42.95,0-84.56-5.37-124.83-16.11l119.8-153.39c1.68.02,3.35.04,5.03.04,58.53,0,111.73-14.29,159.59-42.87,47.87-28.59,86.09-66.81,114.68-114.68,28.58-47.86,42.87-100.84,42.87-158.91s-14.29-111.73-42.87-159.59c-20.74-34.73-46.56-64.38-77.44-88.96l94.73-140.23ZM487.76,54.63l-100.66,204.56c-2.66,1.48-5.3,3-7.92,4.57-47.86,28.58-86.09,66.81-114.67,114.67-28.59,47.86-42.88,101.06-42.88,159.59s14.29,111.04,42.88,158.91c26.2,43.89,60.52,79.67,102.94,107.35l-59.99,161.25c-40.84-22.26-78.29-50.43-112.36-84.51-46.28-46.27-81.66-98.79-106.17-157.55-24.5-58.75-36.75-120.57-36.75-185.45s12.25-126.81,36.75-185.79c24.5-58.98,59.89-111.61,106.17-157.89,46.27-45.83,98.79-80.99,157.55-105.48,43.37-18.09,88.42-29.5,135.12-34.23Z"/>
  </g>
</svg>