<svg
  xmlns="http://www.w3.org/2000/svg"
  viewBox="-102 -102 372 372"
  fill="#ddd"
>
  <title>Event image placeholder</title>
  <path
    d="M124.905 11.06L87.031 67.129l37.212.475-72.599 92.573 29.028-74.663-36.85-.094L85.854 0s11.014.306 20.49 2.973c9.448 2.66 18.56 8.087 18.56 8.087z"
  />
  <path
    d="M133.129 16.62a86.663 86.663 0 018.926 7.722c7.847 7.924 13.868 16.937 18.063 27.036 4.196 10.1 6.293 20.705 6.293 31.815 0 11.11-2.097 21.695-6.293 31.756-4.195 10.061-10.216 19.054-18.063 26.978-7.924 7.925-16.936 13.985-27.036 18.18-10.1 4.195-20.705 6.293-31.815 6.293-7.355 0-14.48-.919-21.375-2.758l20.514-26.266c.287.004.574.006.86.006 10.023 0 19.133-2.447 27.329-7.34 8.197-4.896 14.742-11.44 19.637-19.638 4.894-8.196 7.34-17.267 7.34-27.21 0-10.023-2.446-19.133-7.34-27.329-3.552-5.947-7.972-11.025-13.261-15.233l16.22-24.013zM74.586.417L57.35 35.446c-.455.253-.907.514-1.357.783-8.196 4.894-14.742 11.44-19.636 19.636-4.895 8.196-7.342 17.306-7.342 27.328 0 9.944 2.447 19.015 7.342 27.211 4.487 7.515 10.363 13.643 17.627 18.382L43.71 156.398c-6.993-3.812-13.407-8.636-19.241-14.47-7.925-7.925-13.984-16.918-18.18-26.979C2.095 104.89-.003 94.303-.003 83.193S2.095 61.478 6.29 51.378c4.196-10.099 10.255-19.112 18.18-27.036 7.924-7.847 16.917-13.868 26.978-18.063A81.007 81.007 0 0174.586.42z"
  />
</svg>